<svg width="15" height="21" viewBox="0 0 15 21" fill="none" xmlns="http://www.w3.org/2000/svg">
<rect width="14.0435" height="19.32" fill="black" fill-opacity="0" transform="translate(0.491699 0.839844)"/>
<path fill-rule="evenodd" clip-rule="evenodd" d="M12.5352 6.87988H2.4917C1.93941 6.87988 1.4917 7.3276 1.4917 7.87988V18.1599C1.4917 18.7122 1.93941 19.1599 2.4917 19.1599H12.5352C13.0875 19.1599 13.5352 18.7122 13.5352 18.1599V7.87988C13.5352 7.3276 13.0875 6.87988 12.5352 6.87988ZM2.4917 5.87988C1.38713 5.87988 0.491699 6.77531 0.491699 7.87988V18.1599C0.491699 19.2645 1.38713 20.1599 2.4917 20.1599H12.5352C13.6397 20.1599 14.5352 19.2645 14.5352 18.1599V7.87988C14.5352 6.77531 13.6397 5.87988 12.5352 5.87988H2.4917Z" fill="white"/>
<path fill-rule="evenodd" clip-rule="evenodd" d="M11.2238 4.7782C11.2284 4.70305 11.2307 4.62729 11.2307 4.55099C11.2307 2.50138 9.56635 0.839844 7.51329 0.839844C5.46023 0.839844 3.7959 2.50138 3.7959 4.55099C3.7959 4.57649 3.79616 4.60192 3.79641 4.62729C3.79692 4.67785 3.79743 4.72816 3.7959 4.7782V10.0798H4.7959V4.79124C4.79749 4.72194 4.79667 4.63732 4.79618 4.58699C4.79602 4.571 4.7959 4.55847 4.7959 4.55099C4.7959 3.05525 6.01093 1.83984 7.51329 1.83984C9.01565 1.83984 10.2307 3.05525 10.2307 4.55099C10.2307 4.60713 10.229 4.66275 10.2257 4.71782L10.2238 4.74863L10.2307 10.0798H11.2307L11.2238 4.7782Z" fill="white"/>
</svg>
