<svg width="20" height="21" viewBox="0 0 20 21" fill="none" xmlns="http://www.w3.org/2000/svg">
<rect width="19" height="21" fill="black" fill-opacity="0" transform="translate(0.0136719)"/>
<rect width="14.0435" height="19.32" fill="black" fill-opacity="0" transform="translate(2.4917 0.839844)"/>
<path d="M2.9917 7.87988C2.9917 7.05146 3.66327 6.37988 4.4917 6.37988H14.5352C15.3636 6.37988 16.0352 7.05146 16.0352 7.87988V18.1599C16.0352 18.9883 15.3636 19.6599 14.5352 19.6599H4.4917C3.66327 19.6599 2.9917 18.9883 2.9917 18.1599V7.87988Z" stroke="white"/>
<path d="M12.7238 4.77885L12.7307 10.0798H6.2959V4.78532C6.29745 4.72691 6.29681 4.66034 6.2963 4.60766C6.29609 4.58587 6.2959 4.56646 6.2959 4.55099C6.2959 2.77832 7.73558 1.33984 9.51329 1.33984C11.291 1.33984 12.7307 2.77832 12.7307 4.55099C12.7307 4.61721 12.7287 4.6829 12.7247 4.74801L12.7238 4.76342L12.7238 4.77885Z" stroke="white"/>
</svg>
