<?xml version="1.0" encoding="utf-8"?>
<!-- Generator: Adobe Illustrator 19.2.1, SVG Export Plug-In . SVG Version: 6.00 Build 0)  -->
<svg version="1.1" id="Layer_1" width="23px" height="23px" xmlns="http://www.w3.org/2000/svg" xmlns:xlink="http://www.w3.org/1999/xlink" x="0px" y="0px"
	 viewBox="0 0 23 23" style="enable-background:new 0 0 23 23;" xml:space="preserve">
<style type="text/css">
	.st0{fill:none;stroke:#ADB9FF;}
</style>
<path class="st0" d="M3.8,7.7C3.9,7,4.5,6.5,5.3,6.5H17c0.7,0,1.3,0.5,1.5,1.2l3.1,13c0.2,0.9-0.5,1.8-1.5,1.8H3
	c-0.9,0-1.6-0.8-1.5-1.8L3.8,7.7z"/>
<path class="st0" d="M14.5,8l0,0.3"/>
<path class="st0" d="M7.5,8.3V4.3c0-0.1,0-0.1,0-0.2c0,0,0,0,0-0.1c0-1.9,1.6-3.5,3.5-3.5c1.9,0,3.5,1.6,3.5,3.5c0,0.1,0,0.1,0,0.2
	l0,0v0l0,3.8"/>
</svg>
