<svg width="23" height="25" viewBox="0 0 23 25" fill="none" xmlns="http://www.w3.org/2000/svg">
<rect width="23" height="25" fill="black" fill-opacity="0"/>
<rect width="20.0914" height="23" fill="black" fill-opacity="0" transform="translate(0.973999 1)"/>
<path fill-rule="evenodd" clip-rule="evenodd" d="M19.0654 8H2.974C2.42171 8 1.974 8.44772 1.974 9V22C1.974 22.5523 2.42171 23 2.974 23H19.0654C19.6177 23 20.0654 22.5523 20.0654 22V9C20.0654 8.44772 19.6177 8 19.0654 8ZM2.974 7C1.86943 7 0.973999 7.89543 0.973999 9V22C0.973999 23.1046 1.86943 24 2.974 24H19.0654C20.17 24 21.0654 23.1046 21.0654 22V9C21.0654 7.89543 20.17 7 19.0654 7H2.974Z" fill="black"/>
<path fill-rule="evenodd" clip-rule="evenodd" d="M14.9926 5.2623C14.9975 5.18096 15 5.09897 15 5.01639C15 2.7982 13.2091 1 11 1C8.79086 1 7 2.7982 7 5.01639C7 5.04399 7.00028 5.07151 7.00055 5.09897C7.0011 5.15369 7.00165 5.20814 7 5.2623V11H8V5.27546C8.00171 5.2026 8.00086 5.11441 8.00032 5.05908C8.00014 5.04057 8 5.02574 8 5.01639C8 3.34663 9.347 2 11 2C12.653 2 14 3.34663 14 5.01639C14 5.07892 13.9981 5.14089 13.9944 5.20225L13.9926 5.23289L14 11H15L14.9926 5.2623Z" fill="black"/>
</svg>
