<svg width="23" height="23" viewBox="0 0 23 23" fill="none" xmlns="http://www.w3.org/2000/svg">
<path d="M3.79094 7.73932C3.91743 7.02253 4.54025 6.5 5.26812 6.5H17.0061C17.7022 6.5 18.3068 6.97887 18.4663 7.65644L21.5251 20.6564C21.7466 21.598 21.0322 22.5 20.0649 22.5H2.974C2.0413 22.5 1.33473 21.6578 1.49682 20.7393L3.79094 7.73932Z" stroke="#ADB9FF"/>
<path d="M14.4926 4.26294L14.5 10H7.5V4.26942C7.50167 4.20703 7.50099 4.13647 7.50044 4.07949C7.50021 4.05551 7.5 4.03394 7.5 4.01639C7.5 2.07241 9.06893 0.5 11 0.5C12.9311 0.5 14.5 2.07241 14.5 4.01639C14.5 4.08894 14.4978 4.16092 14.4935 4.23228L14.4926 4.24759L14.4926 4.26294Z" stroke="#ADB9FF"/>
</svg>
