<svg width="263" height="241" viewBox="0 0 263 241" fill="none" xmlns="http://www.w3.org/2000/svg">
<rect width="263" height="241" fill="black" fill-opacity="0"/>
<rect width="220" height="220" fill="black" fill-opacity="0" transform="translate(17 9)"/>
<path fill-rule="evenodd" clip-rule="evenodd" d="M127.501 41C84.6993 41 50 75.6983 50 118.5C50 161.302 84.6993 196 127.501 196C170.302 196 205 161.302 205 118.5C205 75.6983 170.302 41 127.501 41ZM127.501 44.1C168.532 44.1 201.913 77.4762 201.913 118.5C201.913 159.524 168.532 192.9 127.501 192.9C86.468 192.9 53.0869 159.524 53.0869 118.5C53.0869 77.4762 86.468 44.1 127.501 44.1Z" fill="black"/>
<path d="M128 25V41" stroke="black"/>
<path d="M103 27L108 43" stroke="black"/>
<path d="M79 38L90 54" stroke="black"/>
<path d="M59 50L75 66" stroke="black"/>
<path d="M47 70L63 81" stroke="black"/>
<path d="M38 94L54 99" stroke="black"/>
<path d="M34 122H50" stroke="black"/>
<path d="M38 148L54 143" stroke="black"/>
<path d="M49 171L65 160" stroke="black"/>
<path d="M61 191L77 175" stroke="black"/>
<path d="M82 202L93 186" stroke="black"/>
<path d="M105 210L110 194" stroke="black"/>
<path d="M130 212V196" stroke="black"/>
<path d="M155 209L150 193" stroke="black"/>
<path d="M178 200L167 184" stroke="black"/>
<path d="M197 187L181 171" stroke="black"/>
<path d="M209 167L193 156" stroke="black"/>
<path d="M218 145L202 140" stroke="black"/>
<path d="M220 119H204" stroke="black"/>
<path d="M218 95L202 100" stroke="black"/>
<path d="M211 73L195 84" stroke="black"/>
<path d="M200 52L184 68" stroke="black"/>
<path d="M178 39L167 55" stroke="black"/>
<path d="M154 29L149 45" stroke="black"/>
<path fill-rule="evenodd" clip-rule="evenodd" d="M136 17C136 21.4176 132.419 25 128 25C123.581 25 120 21.4176 120 17C120 12.5824 123.581 9 128 9C132.419 9 136 12.5824 136 17Z" stroke="black"/>
<path fill-rule="evenodd" clip-rule="evenodd" d="M108.725 16.9301C109.869 21.1962 107.337 25.5822 103.07 26.7259C98.8042 27.868 94.4179 25.3374 93.2742 21.0698C92.132 16.8037 94.6627 12.4177 98.9306 11.274C103.197 10.1319 107.583 12.6641 108.725 16.9301Z" stroke="black"/>
<path fill-rule="evenodd" clip-rule="evenodd" d="M82.9266 25.9999C85.1358 29.8265 83.8257 34.7185 79.9992 36.9277C76.1728 39.1354 71.2825 37.8252 69.0734 33.9986C66.8642 30.1736 68.1743 25.2816 72.0008 23.0723C75.8272 20.8647 80.7175 22.1749 82.9266 25.9999Z" stroke="black"/>
<path fill-rule="evenodd" clip-rule="evenodd" d="M59.6563 39.3437C62.7812 42.4685 62.7812 47.5327 59.6563 50.6575C56.5331 53.7808 51.4673 53.7808 48.3425 50.6575C45.2192 47.5327 45.2192 42.4685 48.3425 39.3437C51.4673 36.2188 56.5331 36.2188 59.6563 39.3437Z" stroke="black"/>
<path fill-rule="evenodd" clip-rule="evenodd" d="M43.9992 59.0734C47.8257 61.2825 49.1358 66.1728 46.9266 69.9992C44.7175 73.8257 39.8272 75.1358 36.0008 72.9266C32.1743 70.7175 30.8642 65.8272 33.0734 62.0008C35.2825 58.1743 40.1728 56.8642 43.9992 59.0734Z" stroke="black"/>
<path fill-rule="evenodd" clip-rule="evenodd" d="M32.0707 84.2747C36.3368 85.4184 38.869 89.8045 37.7253 94.0707C36.5816 98.3368 32.1971 100.869 27.9309 99.7253C23.6631 98.5816 21.131 94.1971 22.2747 89.9309C23.4184 85.6631 27.8045 83.131 32.0707 84.2747Z" stroke="black"/>
<path fill-rule="evenodd" clip-rule="evenodd" d="M25 113C29.4192 113 33 116.582 33 121C33 125.418 29.4192 129 25 129C20.5808 129 17 125.418 17 121C17 116.582 20.5808 113 25 113Z" stroke="black"/>
<path fill-rule="evenodd" clip-rule="evenodd" d="M28.9309 143.275C33.1971 142.131 37.5816 144.663 38.7253 148.931C39.869 153.196 37.3368 157.582 33.0707 158.726C28.8045 159.868 24.4184 157.338 23.2747 153.07C22.131 148.804 24.6631 144.418 28.9309 143.275Z" stroke="black"/>
<path fill-rule="evenodd" clip-rule="evenodd" d="M38.0008 168.073C41.8272 165.864 46.7175 167.174 48.9266 171.001C51.1358 174.827 49.8257 179.717 45.9992 181.927C42.1728 184.136 37.2825 182.826 35.0734 178.999C32.8642 175.173 34.1743 170.283 38.0008 168.073Z" stroke="black"/>
<path fill-rule="evenodd" clip-rule="evenodd" d="M49.3425 189.344C52.4673 186.219 57.5331 186.219 60.6563 189.344C63.7812 192.467 63.7812 197.533 60.6563 200.658C57.5331 203.781 52.4673 203.781 49.3425 200.658C46.2192 197.533 46.2192 192.467 49.3425 189.344Z" stroke="black"/>
<path fill-rule="evenodd" clip-rule="evenodd" d="M70.0734 205.001C72.2825 201.174 77.1728 199.864 80.9992 202.073C84.8257 204.283 86.1358 209.173 83.9266 212.999C81.7175 216.826 76.8272 218.136 73.0008 215.927C69.1743 213.717 67.8642 208.827 70.0734 205.001Z" stroke="black"/>
<path fill-rule="evenodd" clip-rule="evenodd" d="M95.2742 215.929C96.4179 211.663 100.804 209.131 105.07 210.275C109.337 211.418 111.869 215.803 110.725 220.069C109.583 224.337 105.197 226.869 100.931 225.725C96.6627 224.582 94.132 220.195 95.2742 215.929Z" stroke="black"/>
<path fill-rule="evenodd" clip-rule="evenodd" d="M122 221C122 216.581 125.581 213 130 213C134.419 213 138 216.581 138 221C138 225.419 134.419 229 130 229C125.581 229 122 225.419 122 221Z" stroke="black"/>
<path fill-rule="evenodd" clip-rule="evenodd" d="M150.275 219.069C149.131 214.803 151.663 210.418 155.93 209.275C160.196 208.131 164.582 210.663 165.726 214.929C166.868 219.195 164.337 223.582 160.069 224.725C155.803 225.869 151.417 223.337 150.275 219.069Z" stroke="black"/>
<path fill-rule="evenodd" clip-rule="evenodd" d="M176.073 210.999C173.864 207.173 175.174 202.283 179.001 200.073C182.827 197.864 187.717 199.174 189.927 203.001C192.136 206.827 190.826 211.717 186.999 213.927C183.173 216.136 178.283 214.826 176.073 210.999Z" stroke="black"/>
<path fill-rule="evenodd" clip-rule="evenodd" d="M197.344 198.658C194.219 195.533 194.219 190.467 197.344 187.344C200.467 184.219 205.533 184.219 208.658 187.344C211.781 190.467 211.781 195.533 208.658 198.658C205.533 201.781 200.467 201.781 197.344 198.658Z" stroke="black"/>
<path fill-rule="evenodd" clip-rule="evenodd" d="M212.001 177.927C208.174 175.717 206.864 170.827 209.073 167.001C211.283 163.174 216.173 161.864 219.999 164.073C223.826 166.283 225.136 171.173 222.927 174.999C220.717 178.826 215.827 180.136 212.001 177.927Z" stroke="black"/>
<path fill-rule="evenodd" clip-rule="evenodd" d="M223.929 155.726C219.663 154.582 217.131 150.196 218.275 145.931C219.418 141.663 223.803 139.131 228.069 140.275C232.337 141.418 234.869 145.804 233.725 150.07C232.582 154.338 228.195 156.868 223.929 155.726Z" stroke="black"/>
<path fill-rule="evenodd" clip-rule="evenodd" d="M229 127C224.581 127 221 123.418 221 119C221 114.582 224.581 111 229 111C233.419 111 237 114.582 237 119C237 123.418 233.419 127 229 127Z" stroke="black"/>
<path fill-rule="evenodd" clip-rule="evenodd" d="M227.069 99.7253C222.803 100.869 218.418 98.3369 217.275 94.0691C216.131 89.8029 218.663 85.4184 222.929 84.2747C227.195 83.131 231.582 85.6632 232.725 89.9293C233.869 94.1955 231.337 98.5816 227.069 99.7253Z" stroke="black"/>
<path fill-rule="evenodd" clip-rule="evenodd" d="M221.999 74.9266C218.173 77.1358 213.283 75.8257 211.073 71.9992C208.864 68.1728 210.174 63.2825 214.001 61.0734C217.827 58.8642 222.717 60.1743 224.927 64.0008C227.136 67.8272 225.826 72.7175 221.999 74.9266Z" stroke="black"/>
<path fill-rule="evenodd" clip-rule="evenodd" d="M210.658 51.6563C207.533 54.7812 202.467 54.7812 199.344 51.6563C196.219 48.5315 196.219 43.4673 199.344 40.3425C202.467 37.2192 207.533 37.2192 210.658 40.3425C213.781 43.4673 213.781 48.5315 210.658 51.6563Z" stroke="black"/>
<path fill-rule="evenodd" clip-rule="evenodd" d="M188.927 34.9986C186.717 38.8252 181.827 40.1354 178.001 37.9277C174.174 35.7185 172.864 30.8265 175.073 26.9999C177.283 23.1749 182.173 21.8647 185.999 24.0723C189.826 26.2816 191.136 31.1736 188.927 34.9986Z" stroke="black"/>
<path fill-rule="evenodd" clip-rule="evenodd" d="M163.726 23.0699C162.582 27.3359 158.196 29.8681 153.93 28.726C149.663 27.5823 147.131 23.1962 148.275 18.9301C149.417 14.6641 153.803 12.1319 158.069 13.274C162.337 14.4177 164.868 18.8038 163.726 23.0699Z" stroke="black"/>
<path fill-rule="evenodd" clip-rule="evenodd" d="M127.5 57C93.5336 57 66 84.534 66 118.5C66 152.466 93.5336 180 127.5 180C161.465 180 189 152.466 189 118.5C189 84.534 161.465 57 127.5 57ZM127.5 60.0878C159.715 60.0878 185.925 86.291 185.925 118.5C185.925 150.707 159.715 176.912 127.5 176.912C95.285 176.912 69.0752 150.707 69.0752 118.5C69.0752 86.291 95.285 60.0878 127.5 60.0878Z" fill="black"/>
</svg>
