<svg width="56" height="56" viewBox="0 0 56 56" fill="none" xmlns="http://www.w3.org/2000/svg">
<rect width="54" height="54" fill="black" fill-opacity="0" transform="translate(1 1)"/>
<rect width="54" height="54" fill="black" fill-opacity="0" transform="translate(1 1)"/>
<path fill-rule="evenodd" clip-rule="evenodd" d="M18.3999 30.4004C20.0568 30.4004 21.3999 29.0572 21.3999 27.4004C21.3999 25.7435 20.0568 24.4004 18.3999 24.4004C16.743 24.4004 15.3999 25.7435 15.3999 27.4004C15.3999 29.0572 16.743 30.4004 18.3999 30.4004Z" stroke="black"/>
<path fill-rule="evenodd" clip-rule="evenodd" d="M33.3999 22.5996C35.0568 22.5996 36.3999 21.2565 36.3999 19.5996C36.3999 17.9428 35.0568 16.5996 33.3999 16.5996C31.743 16.5996 30.3999 17.9428 30.3999 19.5996C30.3999 21.2565 31.743 22.5996 33.3999 22.5996Z" stroke="black"/>
<path fill-rule="evenodd" clip-rule="evenodd" d="M37.6001 30.4004C39.257 30.4004 40.6001 29.0572 40.6001 27.4004C40.6001 25.7435 39.257 24.4004 37.6001 24.4004C35.9432 24.4004 34.6001 25.7435 34.6001 27.4004C34.6001 29.0572 35.9432 30.4004 37.6001 30.4004Z" stroke="black"/>
<path fill-rule="evenodd" clip-rule="evenodd" d="M29.1999 42.4004C30.8568 42.4004 32.1999 41.0572 32.1999 39.4004C32.1999 37.7435 30.8568 36.4004 29.1999 36.4004C27.5431 36.4004 26.2 37.7435 26.2 39.4004C26.2 41.0572 27.5431 42.4004 29.1999 42.4004Z" stroke="black"/>
<path fill-rule="evenodd" clip-rule="evenodd" d="M31 10C32.6569 10 34 8.65685 34 7C34 5.34315 32.6569 4 31 4C29.3431 4 28 5.34315 28 7C28 8.65685 29.3431 10 31 10Z" fill="black" stroke="black"/>
<path fill-rule="evenodd" clip-rule="evenodd" d="M49 22.5996C50.6569 22.5996 52 21.2565 52 19.5996C52 17.9428 50.6569 16.5996 49 16.5996C47.3431 16.5996 46 17.9428 46 19.5996C46 21.2565 47.3431 22.5996 49 22.5996Z" fill="black" stroke="black"/>
<path fill-rule="evenodd" clip-rule="evenodd" d="M6.3999 24.4004C8.05676 24.4004 9.3999 23.0572 9.3999 21.4004C9.3999 19.7435 8.05676 18.4004 6.3999 18.4004C4.74305 18.4004 3.3999 19.7435 3.3999 21.4004C3.3999 23.0572 4.74305 24.4004 6.3999 24.4004Z" fill="black" stroke="black"/>
<path fill-rule="evenodd" clip-rule="evenodd" d="M5.80005 34C7.4569 34 8.80005 32.6569 8.80005 31C8.80005 29.3431 7.4569 28 5.80005 28C4.14319 28 2.80005 29.3431 2.80005 31C2.80005 32.6569 4.14319 34 5.80005 34Z" fill="black" stroke="black"/>
<path fill-rule="evenodd" clip-rule="evenodd" d="M29.1999 53.7998C30.8568 53.7998 32.1999 52.4567 32.1999 50.7998C32.1999 49.143 30.8568 47.7998 29.1999 47.7998C27.5431 47.7998 26.2 49.143 26.2 50.7998C26.2 52.4567 27.5431 53.7998 29.1999 53.7998Z" fill="black" stroke="black"/>
<path fill-rule="evenodd" clip-rule="evenodd" d="M28 55C42.9117 55 55 42.9117 55 28C55 13.0883 42.9117 1 28 1C13.0883 1 1 13.0883 1 28C1 42.9117 13.0883 55 28 55Z" stroke="black"/>
<path fill-rule="evenodd" clip-rule="evenodd" d="M28 46C37.9411 46 46 37.9411 46 28C46 18.0589 37.9411 10 28 10C18.0589 10 10 18.0589 10 28C10 37.9411 18.0589 46 28 46Z" stroke="black"/>
</svg>
