<svg width="36" height="74" viewBox="0 0 36 74" fill="none" xmlns="http://www.w3.org/2000/svg">
<rect width="34.4854" height="74" fill="black" fill-opacity="0" transform="translate(1)"/>
<rect width="33.8926" height="72.6586" fill="black" fill-opacity="0" transform="translate(1.00001 0.015625)"/>
<rect width="32.0326" height="72.6586" fill="black" fill-opacity="0" transform="translate(2.86007 0.015625)"/>
<rect width="16.5622" height="12.7744" fill="black" fill-opacity="0" transform="translate(14.1895 0.015625)"/>
<mask id="mask0" mask-type="alpha" maskUnits="userSpaceOnUse" x="14" y="0" width="17" height="13">
<path fill-rule="evenodd" clip-rule="evenodd" d="M14.1895 0.015625L30.7517 0.015625V12.7901H14.1895V0.015625Z" fill="white"/>
</mask>
<g mask="url(#mask0)">
<path fill-rule="evenodd" clip-rule="evenodd" d="M25.4233 -1.49121C26.9239 -0.582992 31.8951 4.3105 30.511 7.25537C29.1269 10.2002 22.421 8.92117 18.988 8.95396C15.7008 9.04516 11.19 12.7398 11.19 12.7398L10.5973 12.7898C10.5973 12.7898 15.1699 8.86145 18.5435 8.57656C21.9883 8.45712 28.7382 9.94404 30.1734 7.06135C31.4369 4.40267 27.0238 -0.176733 25.2605 -1.24237C25.3881 -1.48563 25.4233 -1.49121 25.4233 -1.49121" fill="white"/>
</g>
<rect width="20.6582" height="12.9828" fill="black" fill-opacity="0" transform="translate(14.2344 59.6914)"/>
<mask id="mask1" mask-type="alpha" maskUnits="userSpaceOnUse" x="14" y="59" width="21" height="14">
<path fill-rule="evenodd" clip-rule="evenodd" d="M14.2344 59.6914H34.8926V72.6742H14.2344V59.6914Z" fill="white"/>
</mask>
<g mask="url(#mask1)">
<path fill-rule="evenodd" clip-rule="evenodd" d="M18.9124 59.6914C17.494 60.7226 12.954 66.0169 14.5821 68.8349C16.2102 71.6528 22.7841 69.8141 26.2076 69.5579C29.4908 69.3722 34.2978 72.6742 34.2978 72.6742H34.8926C34.8926 72.6742 30.0044 69.1445 26.6187 69.1445C23.176 69.3153 16.5759 71.3648 14.902 68.6132C13.4184 66.0702 17.4287 61.1358 19.0957 59.9256C18.9479 59.694 18.9124 59.6914 18.9124 59.6914" fill="white"/>
</g>
<path fill-rule="evenodd" clip-rule="evenodd" d="M8.19331 18.5966C7.47486 18.5966 2.43687 23.7088 2.88868 24.8258C3.09693 25.3407 4.14854 25.2212 4.66364 25.2387C6.6095 25.3046 11.3134 24.9353 15.3904 24.5657C17.5242 22.9903 21.0584 19.5961 21.0584 19.5961L21.5555 19.4468C21.5555 19.4468 21.1706 18.1717 20.9568 17.4633C20.7431 16.7548 20.3684 16.6087 20.1605 16.6208L8.19331 18.5966Z" stroke="white" stroke-linejoin="round"/>
<rect width="23.3935" height="23.2326" fill="black" fill-opacity="0" transform="translate(6.76696 30.9248)"/>
<path fill-rule="evenodd" clip-rule="evenodd" d="M13.5859 32.0189C11.2045 33.5349 7.89915 36.1435 7.22365 37.2902C6.78132 38.0412 6.73697 38.5848 6.77982 38.9126C6.83113 39.0811 6.80873 39.0076 6.83113 39.0811C6.9497 39.4704 8.2843 39.5725 10.1991 39.4884C12.61 39.3827 15.9846 39.1265 19.0377 38.8697C21.1165 37.3589 24.7087 33.7522 24.7087 33.7522H25.6856C25.6856 33.7522 25.2972 32.4768 25.0815 31.7683C24.8657 31.0597 24.4508 30.9122 24.2778 30.9256C24.2776 30.9256 13.5859 32.0189 13.5859 32.0189Z" stroke="white" stroke-linejoin="round"/>
<path fill-rule="evenodd" clip-rule="evenodd" d="M17.2188 46.7943C14.9379 48.3328 12.188 50.5572 11.5786 51.5917C11.1362 52.3427 11.092 52.8863 11.1347 53.2141C11.1548 53.2801 11.1571 53.2874 11.1572 53.2879C11.1574 53.2887 11.1591 53.2942 11.1691 53.327C11.4309 54.1869 13.6432 54.2535 16.5206 54.0801C18.7948 53.943 21.5069 53.7296 23.9636 53.5209C25.4272 51.7276 29.6588 48.597 29.6588 48.597L30.1605 48.4476C30.1605 48.4476 29.7721 47.1721 29.5563 46.4637C29.3406 45.755 29.0551 45.5876 28.7527 45.621L17.2188 46.7943Z" stroke="white" stroke-linejoin="round"/>
<rect width="30.699" height="53.9725" fill="black" fill-opacity="0" transform="translate(1.00001 8.67578)"/>
<path d="M8.58607 11.1231C0.854458 16.0082 1.0002 18.5839 1.0002 18.5839L2.85894 24.7443C2.8 22.8519 4.54833 21.4176 7.63557 19.0553C11.0171 16.468 12.4664 15.4738 16.127 12.7305L12.2364 8.67578C12.2364 8.67578 8.58887 11.1214 8.58607 11.1231" stroke="white" stroke-linejoin="round"/>
<path d="M12.4298 33.0638C15.9914 30.4872 22.3938 27.2329 22.8834 24.3389C22.9997 23.87 22.4559 22.2886 22.2973 21.7861C21.7414 19.9437 20.997 17.4766 20.997 17.4766C20.997 17.4766 21.9859 20.5655 14.0948 25.1455C6.2037 29.7256 5.29089 32.8037 5.29089 32.8037L5.33275 32.9425C5.33275 32.9425 7.03832 38.5952 7.14992 38.965C6.94889 36.9976 9.49741 35.3568 12.4298 33.0638" stroke="white" stroke-linejoin="round"/>
<path d="M19.5373 45.642C26.5175 41.6511 27.4771 38.9533 27.2166 38.0899C26.678 36.3049 25.3208 31.8066 25.3208 31.8066C25.3208 31.8066 25.1592 35.2575 17.2681 39.8376C9.37706 44.4175 9.61468 47.1338 9.61468 47.1338L11.4737 53.2951C11.1613 50.8266 17.3222 47.0751 19.5373 45.642" stroke="white" stroke-linejoin="round"/>
<path fill-rule="evenodd" clip-rule="evenodd" d="M20.5157 62.6483C23.608 61.1103 29.0375 57.4487 30.9859 54.8916C31.4103 54.3345 31.8166 53.3356 31.6676 52.8419C31.1414 51.0977 29.7718 46.5586 29.7718 46.5586C29.7718 46.5586 29.6102 50.0095 21.7192 54.5896C19.727 55.7458 18.2532 56.7831 17.1626 57.6881L20.5157 62.6483Z" stroke="white" stroke-linejoin="round"/>
</svg>
