<svg width="55" height="54" viewBox="0 0 55 54" fill="none" xmlns="http://www.w3.org/2000/svg">
<rect width="55" height="54" fill="black" fill-opacity="0"/>
<rect width="52.683" height="52.3379" fill="black" fill-opacity="0" transform="translate(0.918091 1.50195)"/>
<rect width="52.3379" height="52.683" fill="black" fill-opacity="0" transform="translate(0.918091 53.8398) rotate(-90)"/>
<rect width="52.3379" height="52.683" fill="black" fill-opacity="0" transform="translate(0.918091 53.8398) rotate(-90)"/>
<path fill-rule="evenodd" clip-rule="evenodd" d="M0.918091 23.3652C0.918091 26.6504 3.57935 29.3271 6.84497 29.3271C9.29407 29.3271 11.3969 27.8223 12.2983 25.6836L21.4973 28.9551C21.3951 29.5068 21.3328 30.0713 21.3328 30.6523C21.3328 32.9795 22.1844 35.1084 23.5964 36.7393L24.5431 37.6709C26.1592 39.0742 28.2552 39.9277 30.5522 39.9277C32.8547 39.9277 34.9644 39.0801 36.5819 37.6709L41.912 43.0332C40.9808 44.1748 40.4098 45.6279 40.4098 47.2148C40.4098 50.8662 43.3865 53.8398 47.0156 53.8398C50.6449 53.8398 53.6011 50.8662 53.6011 47.2148C53.6011 43.5635 50.6449 40.5898 47.0156 40.5898C45.4381 40.5898 43.9756 41.1465 42.838 42.0801L37.5081 36.7188C38.9141 35.0898 39.7717 32.9736 39.7717 30.6523C39.7717 27.3438 38.0284 24.4482 35.4294 22.8057L39.3807 13.1787C39.9192 13.3418 40.4989 13.4277 41.0889 13.4277C44.3544 13.4277 47.0156 10.75 47.0156 7.46484C47.0156 4.17969 44.3544 1.50195 41.0889 1.50195C37.8232 1.50195 35.162 4.17969 35.162 7.46484C35.162 9.68066 36.3768 11.6123 38.1666 12.6406L34.2771 22.1641C33.1361 21.6543 31.879 21.377 30.5522 21.377C29.8213 21.377 29.1149 21.4629 28.4325 21.626L22.2794 12.3506C22.916 11.5557 23.3083 10.5488 23.3083 9.45215C23.3083 6.89941 21.2367 4.81445 18.6986 4.81445C16.1604 4.81445 14.0889 6.89941 14.0889 9.45215C14.0889 12.0059 16.1604 14.0898 18.6986 14.0898C19.6666 14.0898 20.5688 13.7988 21.3121 13.2822L27.1155 22.04C24.6393 23.0459 22.6932 25.1152 21.8267 27.6709L12.6689 24.4209C12.7301 24.0771 12.7717 23.7256 12.7717 23.3652C12.7717 20.0801 10.1104 17.4023 6.84497 17.4023C3.57935 17.4023 0.918091 20.0801 0.918091 23.3652ZM2.23511 23.3643C2.23511 20.7949 4.29114 18.7266 6.84485 18.7266C9.39856 18.7266 11.4546 20.7949 11.4546 23.3643C11.4546 25.9336 9.39856 28.002 6.84485 28.002C4.29114 28.002 2.23511 25.9336 2.23511 23.3643ZM16.0645 41.915C14.238 41.915 12.7717 43.3906 12.7717 45.2275C12.7717 47.0645 14.238 48.54 16.0645 48.54C17.8907 48.54 19.3571 47.0645 19.3571 45.2275C19.3571 43.3906 17.8907 41.915 16.0645 41.915ZM15.4059 9.45215C15.4059 7.61523 16.8722 6.13965 18.6986 6.13965C20.5249 6.13965 21.9912 7.61523 21.9912 9.45215C21.9912 11.2891 20.5249 12.7646 18.6986 12.7646C16.8722 12.7646 15.4059 11.2891 15.4059 9.45215ZM30.5522 22.7021C26.1801 22.7021 22.6498 26.2539 22.6498 30.6523C22.6498 35.0508 26.1801 38.6025 30.5522 38.6025C34.9244 38.6025 38.4547 35.0508 38.4547 30.6523C38.4547 26.2539 34.9244 22.7021 30.5522 22.7021ZM36.4791 7.46484C36.4791 4.89551 38.5352 2.82715 41.0889 2.82715C43.6426 2.82715 45.6986 4.89551 45.6986 7.46484C45.6986 10.0342 43.6426 12.1025 41.0889 12.1025C38.5352 12.1025 36.4791 10.0342 36.4791 7.46484ZM47.0156 41.915C44.0983 41.915 41.7473 44.2793 41.7473 47.2148C41.7473 50.1494 44.0983 52.5146 47.0156 52.5146C49.933 52.5146 52.2633 50.1494 52.2633 47.2148C52.2633 44.2793 49.933 41.915 47.0156 41.915Z" fill="white"/>
</svg>
