<svg width="71" height="54" viewBox="0 0 71 54" fill="none" xmlns="http://www.w3.org/2000/svg">
<rect width="71" height="54" fill="black" fill-opacity="0"/>
<rect width="71" height="54" fill="black" fill-opacity="0"/>
<path fill-rule="evenodd" clip-rule="evenodd" d="M63.6167 26.5165H51.3474L45.5227 36.5833L51.8865 45.614C52.2747 45.4638 52.6956 45.3794 53.1357 45.3794C54.2913 45.3794 55.3149 45.9506 55.9412 46.8231L66.658 42.5849C67.0823 42.417 67.5632 42.6246 67.7314 43.0481C67.8987 43.4717 67.6917 43.9518 67.2673 44.1197L56.5522 48.357C56.5725 48.5097 56.5845 48.6641 56.5845 48.8219C56.5845 50.7203 55.0376 52.2644 53.1357 52.2644C51.2349 52.2644 49.688 50.7203 49.688 48.8219C49.688 47.9587 50.0093 47.1707 50.5366 46.5657L44.1145 37.4532H34.9988C34.6277 38.9543 33.2686 40.0705 31.6516 40.0705C31.2661 40.0705 30.896 40.0064 30.5493 39.8891L25.7417 47.7917C26.3621 48.4144 26.7466 49.2725 26.7466 50.2183C26.7466 52.1168 25.2 53.6608 23.2988 53.6608C21.3972 53.6608 19.8503 52.1168 19.8503 50.2183C19.8503 48.3207 21.3972 46.7767 23.2988 46.7767C23.6582 46.7767 24.0039 46.8323 24.3293 46.9344L29.1555 39.0007C28.5664 38.3822 28.2039 37.5477 28.2039 36.6289C28.2039 35.5793 28.6772 34.6393 29.4209 34.0073L25.0891 26.5174H9.47339C9.13281 26.5174 8.82764 26.309 8.70337 25.9926L4.48315 15.217C4.33594 15.2364 4.18652 15.2474 4.03418 15.2474C2.13257 15.2474 0.585693 13.7033 0.585693 11.8049C0.585693 9.90647 2.13257 8.36241 4.03418 8.36241C5.93604 8.36241 7.48291 9.90647 7.48291 11.8049C7.48291 12.9642 6.90479 13.9902 6.02222 14.6146L10.0371 24.867H25.0884L31.1758 14.3429C31.3237 14.0881 31.5967 13.9303 31.8916 13.9303H41.2341C41.6541 12.5018 42.9778 11.4548 44.5432 11.4548C44.9758 11.4548 45.3901 11.5357 45.7722 11.6817L52.4302 0.736595C52.6675 0.347626 53.1765 0.223595 53.5662 0.459845C53.9565 0.696938 54.0801 1.20403 53.8433 1.59384L47.1321 12.6267C47.6663 13.2334 47.9917 14.0282 47.9917 14.8973C47.9917 15.8439 47.6062 16.7029 46.9851 17.3256L51.3474 24.8662H63.6167C63.9878 23.366 65.3479 22.2497 66.9639 22.2497C68.865 22.2497 70.4116 23.7938 70.4116 25.6922C70.4116 27.5898 68.865 29.1338 66.9639 29.1338C65.3479 29.1338 63.9878 28.0167 63.6167 26.5165ZM4.03589 10.0119C3.04614 10.0119 2.24072 10.816 2.24072 11.8041C2.24072 12.7921 3.04614 13.5962 4.03589 13.5962C5.02588 13.5962 5.8313 12.7921 5.8313 11.8041C5.8313 10.816 5.02588 10.0119 4.03589 10.0119ZM66.9639 23.8992C67.9536 23.8992 68.7583 24.7033 68.7583 25.6913C68.7583 26.6794 67.9536 27.4835 66.9639 27.4835C65.9775 27.4835 65.1753 26.6844 65.1694 25.7015L65.1702 25.6913L65.1694 25.6812C65.1753 24.6974 65.9775 23.8992 66.9639 23.8992ZM46.3384 14.8964C46.3384 13.9084 45.5337 13.1043 44.5439 13.1043C43.5549 13.1043 42.7495 13.9084 42.7495 14.8964C42.7495 15.8844 43.5542 16.6885 44.5439 16.6885C45.5337 16.6885 46.3384 15.8844 46.3384 14.8964ZM26.5217 25.6913L32.3699 15.5798H41.1646C41.4834 17.1518 42.8772 18.3389 44.5439 18.3389C44.9023 18.3389 45.2471 18.2841 45.5718 18.1828L49.9163 25.6913L44.0681 35.802H34.9995C34.6284 34.3018 33.2693 33.1855 31.6523 33.1855C31.3953 33.1855 31.1453 33.2142 30.9043 33.2682L26.5217 25.6913ZM21.5054 50.2175C21.5054 51.2063 22.3108 52.0104 23.3005 52.0104C24.2905 52.0104 25.0952 51.2063 25.0959 50.2175C25.0959 49.2303 24.2905 48.4262 23.3005 48.4262C22.3108 48.4262 21.5054 49.2303 21.5054 50.2175ZM31.6523 38.4202C30.6626 38.4202 29.8572 37.6161 29.8572 36.628C29.8572 35.64 30.6626 34.8359 31.6523 34.8359C32.6423 34.8359 33.4478 35.64 33.4478 36.628C33.4478 37.6161 32.6423 38.4202 31.6523 38.4202ZM53.1375 50.6132C54.1272 50.6132 54.9329 49.8091 54.9329 48.8211C54.9329 47.833 54.1272 47.0298 53.1375 47.0298C52.1477 47.0298 51.343 47.833 51.343 48.8211C51.343 49.8091 52.1477 50.6132 53.1375 50.6132Z" fill="black"/>
</svg>
