<svg width="81" height="82" viewBox="0 0 81 82" fill="none" xmlns="http://www.w3.org/2000/svg">
<rect width="80" height="82" fill="black" fill-opacity="0" transform="translate(1)"/>
<rect width="79" height="81" fill="black" fill-opacity="0" transform="translate(0 80) rotate(-90)"/>
<rect width="79" height="80" fill="black" fill-opacity="0" transform="translate(0.637817 80) rotate(-90)"/>
<path fill-rule="evenodd" clip-rule="evenodd" d="M0.637817 34C0.637817 38.9587 4.67908 43 9.63782 43C13.3568 43 16.55 40.7286 17.9191 37.5L31.8878 42.4375C31.7325 43.271 31.6378 44.1222 31.6378 45C31.6378 48.5121 32.9312 51.7267 35.0753 54.1875L36.5128 55.5938C38.9669 57.7117 42.1498 59 45.6378 59C49.1342 59 52.3376 57.7207 54.7941 55.5938L62.8878 63.6875C61.4739 65.4106 60.6067 67.6047 60.6067 70C60.6067 75.511 65.1268 80 70.6378 80C76.1488 80 80.6378 75.511 80.6378 70C80.6378 64.489 76.1488 60 70.6378 60C68.2423 60 66.0214 60.8398 64.2941 62.25L56.2003 54.1562C58.3354 51.6978 59.6378 48.5038 59.6378 45C59.6378 40.0058 56.9905 35.6354 53.0441 33.1562L59.0441 18.625C59.8616 18.8704 60.7419 19 61.6378 19C66.5966 19 70.6378 14.9587 70.6378 10C70.6378 5.04129 66.5966 1.00001 61.6378 1.00001C56.6791 1.00001 52.6378 5.04129 52.6378 10C52.6378 13.3441 54.4825 16.261 57.2003 17.8125L51.2941 32.1875C49.5614 31.418 47.6526 31 45.6378 31C44.5278 31 43.4552 31.1297 42.4191 31.375L33.0753 17.375C34.042 16.1743 34.6378 14.6546 34.6378 13C34.6378 9.14584 31.4921 6.00001 27.6378 6.00001C23.7836 6.00001 20.6378 9.14584 20.6378 13C20.6378 16.8542 23.7836 20 27.6378 20C29.1078 20 30.4779 19.5613 31.6066 18.7812L40.4191 32C36.6588 33.5181 33.7037 36.6423 32.3878 40.5L18.4816 35.5938C18.5746 35.0751 18.6378 34.545 18.6378 34C18.6378 29.0413 14.5966 25 9.63782 25C4.67908 25 0.637817 29.0413 0.637817 34ZM2.63782 34C2.63782 30.1222 5.75989 27 9.63782 27C13.5156 27 16.6378 30.1222 16.6378 34C16.6378 37.8778 13.5156 41 9.63782 41C5.75989 41 2.63782 37.8778 2.63782 34ZM23.6378 62C20.8645 62 18.6378 64.2267 18.6378 67C18.6378 69.7733 20.8645 72 23.6378 72C26.4111 72 28.6378 69.7733 28.6378 67C28.6378 64.2267 26.4111 62 23.6378 62ZM22.6378 13C22.6378 10.2267 24.8645 8 27.6378 8C30.4111 8 32.6378 10.2267 32.6378 13C32.6378 15.7733 30.4111 18 27.6378 18C24.8645 18 22.6378 15.7733 22.6378 13ZM45.6378 33C38.9985 33 33.6378 38.3607 33.6378 45C33.6378 51.6393 38.9985 57 45.6378 57C52.2771 57 57.6378 51.6393 57.6378 45C57.6378 38.3607 52.2771 33 45.6378 33ZM54.6378 10C54.6378 6.12219 57.7599 3 61.6378 3C65.5156 3 68.6378 6.12219 68.6378 10C68.6378 13.8778 65.5156 17 61.6378 17C57.7599 17 54.6378 13.8778 54.6378 10ZM70.6378 62C66.2078 62 62.6378 65.5699 62.6378 70C62.6378 74.4301 66.2078 78 70.6378 78C75.0679 78 78.6066 74.4301 78.6066 70C78.6066 65.5699 75.0679 62 70.6378 62Z" fill="black"/>
</svg>
