<svg width="56" height="56" viewBox="0 0 56 56" fill="none" xmlns="http://www.w3.org/2000/svg">
<path fill-rule="evenodd" clip-rule="evenodd" d="M28 55C42.9117 55 55 42.9117 55 28C55 13.0883 42.9117 1 28 1C13.0883 1 1 13.0883 1 28C1 42.9117 13.0883 55 28 55Z" stroke="black"/>
<rect x="10.5" y="19.5" width="35" height="17" rx="0.5" stroke="black"/>
<rect x="14" y="20" width="1" height="16" fill="black"/>
<rect x="41" y="20" width="1" height="16" fill="black"/>
<path d="M26.13 27.645H25.005V28.245H26.13V29.595H25.005V30.195H26.13V33H26.79V30.195H29.295V29.595H26.79V28.245H28.08C29.19 28.245 29.88 27.87 30.285 27.45C30.75 26.985 30.99 26.295 30.99 25.605C30.99 24.855 30.705 24.225 30.3 23.805C29.625 23.1 28.74 22.995 28.065 22.995H26.13V27.645ZM26.79 23.595H28.005C28.545 23.595 29.175 23.655 29.715 24.15C30.135 24.54 30.3 25.035 30.3 25.62C30.3 26.115 30.18 26.64 29.745 27.06C29.385 27.405 28.815 27.645 28.11 27.645H26.79V23.595Z" fill="black"/>
</svg>
