<svg width="28" height="58" viewBox="0 0 28 58" fill="none" xmlns="http://www.w3.org/2000/svg">
<g opacity="0.5">
<rect width="27" height="58" fill="black" fill-opacity="0" transform="translate(1)"/>
<rect width="26.5359" height="56.9486" fill="black" fill-opacity="0" transform="translate(1 0.0126953)"/>
<rect width="25.0796" height="56.9486" fill="black" fill-opacity="0" transform="translate(2.4563 0.0126953)"/>
<rect width="12.9672" height="10.0124" fill="black" fill-opacity="0" transform="translate(11.3266 0.0126953)"/>
<mask id="mask0" mask-type="alpha" maskUnits="userSpaceOnUse" x="11" y="0" width="14" height="11">
<path fill-rule="evenodd" clip-rule="evenodd" d="M11.3266 0.0126953L24.2938 0.0126953V10.0251H11.3266V0.0126953Z" fill="white"/>
</mask>
<g mask="url(#mask0)">
<path fill-rule="evenodd" clip-rule="evenodd" d="M20.1219 -1.16797C21.2968 -0.456122 25.189 3.37932 24.1053 5.68746C23.0217 7.99559 17.7714 6.99308 15.0835 7.01879C12.5099 7.09027 8.97819 9.98607 8.97819 9.98607L8.5141 10.0253C8.5141 10.0253 12.0941 6.94628 14.7355 6.72299C17.4326 6.62937 22.7173 7.7948 23.841 5.53539C24.8302 3.45156 21.375 -0.137703 19.9945 -0.972928C20.0944 -1.1636 20.1219 -1.16797 20.1219 -1.16797Z" fill="white"/>
</g>
<rect width="16.1741" height="10.1757" fill="black" fill-opacity="0" transform="translate(11.3618 46.7852)"/>
<mask id="mask1" mask-type="alpha" maskUnits="userSpaceOnUse" x="11" y="46" width="17" height="11">
<path fill-rule="evenodd" clip-rule="evenodd" d="M11.3618 46.7852H27.5359V56.9609H11.3618V46.7852Z" fill="white"/>
</mask>
<g mask="url(#mask1)">
<path fill-rule="evenodd" clip-rule="evenodd" d="M15.0244 46.7852C13.9138 47.5934 10.3593 51.743 11.634 53.9516C12.9086 56.1603 18.0557 54.7192 20.736 54.5184C23.3066 54.3728 27.0701 56.9609 27.0701 56.9609H27.5359C27.5359 56.9609 23.7087 54.1943 21.0579 54.1943C18.3625 54.3282 13.195 55.9346 11.8845 53.7779C10.7229 51.7848 13.8627 47.9172 15.1678 46.9687C15.0521 46.7872 15.0244 46.7852 15.0244 46.7852Z" fill="white"/>
</g>
<path fill-rule="evenodd" clip-rule="evenodd" d="M6.6319 14.5765C6.0694 14.5765 2.12496 18.5833 2.4787 19.4588C2.64175 19.8624 3.4651 19.7687 3.86838 19.7824C5.39188 19.8341 9.07477 19.5447 12.2668 19.2549C13.9375 18.0202 16.7045 15.3599 16.7045 15.3599L17.0937 15.2429C17.0937 15.2429 16.7924 14.2435 16.625 13.6882C16.4576 13.1329 16.1642 13.0184 16.0015 13.0279L6.6319 14.5765Z" stroke="white"/>
<rect width="18.3157" height="18.2094" fill="black" fill-opacity="0" transform="translate(5.51514 24.2393)"/>
<path fill-rule="evenodd" clip-rule="evenodd" d="M10.8539 25.0968C8.98943 26.285 6.40157 28.3296 5.8727 29.2284C5.52638 29.817 5.49166 30.243 5.5252 30.4999C5.56538 30.632 5.54784 30.5744 5.56538 30.632C5.65821 30.9372 6.70312 31.0172 8.20233 30.9513C10.0899 30.8684 12.732 30.6676 15.1224 30.4663C16.7499 29.2822 19.5624 26.4553 19.5624 26.4553H20.3273C20.3273 26.4553 20.0232 25.4557 19.8543 24.9004C19.6854 24.345 19.3605 24.2294 19.2251 24.2399C19.2249 24.2399 10.8539 25.0968 10.8539 25.0968Z" stroke="white"/>
<path fill-rule="evenodd" clip-rule="evenodd" d="M13.6983 36.6781C11.9125 37.8839 9.75951 39.6274 9.28235 40.4382C8.93603 41.0268 8.90136 41.4529 8.93486 41.7098C8.95059 41.7615 8.95235 41.7672 8.95244 41.7676C8.95262 41.7682 8.95393 41.7725 8.96177 41.7983C9.16674 42.4722 10.8988 42.5244 13.1516 42.3885C14.9322 42.2811 17.0557 42.1139 18.9791 41.9502C20.125 40.5447 23.4381 38.091 23.4381 38.091L23.8308 37.9739C23.8308 37.9739 23.5268 36.9742 23.3578 36.4189C23.1889 35.8635 22.9654 35.7323 22.7286 35.7584L13.6983 36.6781Z" stroke="white"/>
<rect width="24.0355" height="42.3028" fill="black" fill-opacity="0" transform="translate(1 6.7998)"/>
<path d="M6.93942 8.718C0.886044 12.5468 1.00015 14.5656 1.00015 14.5656L2.45543 19.394C2.40928 17.9108 3.77812 16.7866 6.19524 14.9351C8.84277 12.9073 9.97748 12.128 12.8435 9.9778L9.79744 6.7998C9.79744 6.7998 6.94162 8.71661 6.93942 8.718" stroke="white"/>
<path d="M9.94879 25.9152C12.7373 23.8958 17.75 21.3451 18.1333 19.0768C18.2244 18.7093 17.7987 17.4699 17.6745 17.076C17.2392 15.6319 16.6564 13.6982 16.6564 13.6982C16.6564 13.6982 17.4307 16.1193 11.2524 19.709C5.07417 23.2989 4.3595 25.7114 4.3595 25.7114L4.39227 25.8202C4.39227 25.8202 5.72762 30.2507 5.81501 30.5405C5.65761 28.9985 7.65295 27.7125 9.94879 25.9152" stroke="white"/>
<path d="M15.5135 35.7737C20.9786 32.6456 21.73 30.5311 21.526 29.8544C21.1043 28.4553 20.0417 24.9297 20.0417 24.9297C20.0417 24.9297 19.9152 27.6344 13.7369 31.2242C7.5587 34.8139 7.74474 36.9429 7.74474 36.9429L9.20025 41.772C8.95565 39.8373 13.7793 36.8968 15.5135 35.7737" stroke="white"/>
<path fill-rule="evenodd" clip-rule="evenodd" d="M16.2796 49.1031C18.7007 47.8975 22.9517 45.0277 24.4771 43.0235C24.8094 42.5868 25.1275 41.8039 25.0109 41.4169C24.5989 40.0498 23.5265 36.4922 23.5265 36.4922C23.5265 36.4922 23.4001 39.1969 17.2218 42.7867C15.6621 43.693 14.5082 44.506 13.6543 45.2153L16.2796 49.1031Z" stroke="white"/>
</g>
</svg>
