<svg width="71" height="54" viewBox="0 0 71 54" fill="none" xmlns="http://www.w3.org/2000/svg">
<rect width="71" height="54" fill="black" fill-opacity="0"/>
<rect width="69.8259" height="53.3201" fill="black" fill-opacity="0" transform="translate(0.585693 0.339844)"/>
<path fill-rule="evenodd" clip-rule="evenodd" d="M63.6167 26.5163H51.3474L45.5227 36.5827L51.8865 45.613C52.2747 45.4636 52.6956 45.3786 53.1357 45.3786C54.2913 45.3786 55.3149 45.9499 55.9412 46.823L66.658 42.5847C67.0823 42.4167 67.5632 42.6238 67.7314 43.0476C67.772 43.1501 67.7905 43.2566 67.7893 43.3611C67.7881 43.4646 67.7671 43.5661 67.7285 43.6609C67.6746 43.7947 67.5859 43.9138 67.4692 44.0036C67.4092 44.0505 67.3416 44.0896 67.2673 44.1189L56.5522 48.3562C56.5615 48.4265 56.5691 48.4968 56.5745 48.5671C56.5808 48.6501 56.5845 48.7351 56.5845 48.821C56.5845 50.7195 55.0376 52.2644 53.1357 52.2644C51.2349 52.2644 49.688 50.7195 49.688 48.821C49.688 47.9587 50.0093 47.1706 50.5366 46.5652L44.1145 37.4529H34.9988C34.6277 38.9538 33.2686 40.0701 31.6516 40.0701C31.5823 40.0701 31.5134 40.0681 31.4453 40.0642C31.3616 40.0593 31.2788 40.0515 31.1968 40.0408L31.0564 40.0183C30.9624 40.0017 30.8699 39.9812 30.7786 39.9568L30.6807 39.9294L30.5493 39.8884L25.7417 47.7908C26.0383 48.0886 26.281 48.4402 26.4536 48.8298C26.5356 49.0154 26.6018 49.2087 26.6504 49.4089C26.7131 49.6687 26.7466 49.9392 26.7466 50.2175C26.7466 52.116 25.2 53.6599 23.2988 53.6599C21.3972 53.6599 19.8503 52.116 19.8503 50.2175C19.8503 48.3201 21.3972 46.7761 23.2988 46.7761C23.6582 46.7761 24.0039 46.8318 24.3293 46.9343L29.1555 38.9997C28.5664 38.3816 28.2039 37.5476 28.2039 36.6286C28.2039 35.8406 28.4707 35.114 28.9187 34.5329C29.0671 34.3406 29.2356 34.1638 29.4209 34.0066L25.0891 26.5173H9.47339C9.13281 26.5173 8.82764 26.3083 8.70337 25.9919L4.48315 15.2165C4.33594 15.2361 4.18652 15.2468 4.03418 15.2468C2.13257 15.2468 0.585693 13.7029 0.585693 11.8044C0.585693 9.90599 2.13257 8.36205 4.03418 8.36205C5.93604 8.36205 7.48291 9.90599 7.48291 11.8044C7.48291 12.9636 6.90479 13.99 6.02222 14.614L10.0371 24.8669H25.0884L31.1758 14.3425C31.1934 14.3122 31.2126 14.2839 31.2336 14.2566L31.2864 14.1941C31.3254 14.1521 31.3687 14.114 31.415 14.0808L31.457 14.0525L31.5261 14.0144C31.5569 13.9997 31.5884 13.9861 31.6206 13.9753L31.6521 13.9656C31.7288 13.9421 31.8093 13.9294 31.8916 13.9294H41.2341C41.6541 12.5017 42.9778 11.4538 44.5432 11.4538C44.9758 11.4538 45.3901 11.5349 45.7722 11.6814L52.4302 0.73607C52.6675 0.347398 53.1765 0.223375 53.5662 0.459703C53.7966 0.599351 53.9341 0.833726 53.9592 1.08177C53.9661 1.14916 53.9646 1.21752 53.9546 1.28587C53.939 1.39134 53.9023 1.49584 53.8433 1.59349L47.1321 12.6267C47.6663 13.2331 47.9917 14.0281 47.9917 14.8972C47.9917 15.2361 47.9424 15.5632 47.8503 15.8728C47.7761 16.1228 47.6741 16.3611 47.5479 16.5837C47.3938 16.8562 47.2041 17.1052 46.9851 17.3249L51.3474 24.866H63.6167C63.9878 23.366 65.3479 22.2488 66.9639 22.2488C68.8647 22.2488 70.4116 23.7937 70.4116 25.6921C70.4116 27.5896 68.8647 29.1335 66.9639 29.1335C65.3479 29.1335 63.9878 28.0163 63.6167 26.5163ZM4.03589 10.0115C3.04614 10.0115 2.24072 10.8152 2.24072 11.8035C2.24072 12.7917 3.04614 13.5954 4.03589 13.5954C5.02588 13.5954 5.8313 12.7917 5.8313 11.8035C5.8313 10.8152 5.02588 10.0115 4.03589 10.0115ZM66.9639 23.8992C67.9536 23.8992 68.7583 24.7029 68.7583 25.6911C68.7583 26.6794 67.9536 27.4831 66.9639 27.4831C65.9775 27.4831 65.1753 26.6843 65.1694 25.7019L65.1702 25.6911L65.1694 25.6814C65.1753 24.697 65.9775 23.8992 66.9639 23.8992ZM46.3384 14.8962C46.3384 13.9079 45.5337 13.1042 44.5439 13.1042C43.5549 13.1042 42.7495 13.9079 42.7495 14.8962C42.7495 15.8845 43.5542 16.6882 44.5439 16.6882C45.5337 16.6882 46.3384 15.8845 46.3384 14.8962ZM26.5217 25.6911L32.3699 15.5798H41.1646C41.4834 17.1521 42.8772 18.3386 44.5439 18.3386C44.9023 18.3386 45.2471 18.2839 45.5718 18.1824L49.9163 25.6911L44.0681 35.8015H34.9995C34.6284 34.3015 33.2693 33.1853 31.6523 33.1853C31.3953 33.1853 31.1453 33.2146 30.9043 33.2683L26.5217 25.6911ZM21.5054 50.2165C21.5054 51.2058 22.3108 52.0095 23.3005 52.0095C24.2905 52.0095 25.0952 51.2058 25.0959 50.2165C25.0959 49.7624 24.9255 49.3474 24.6453 49.031C24.5122 48.8806 24.3545 48.7527 24.1782 48.654C23.9187 48.5085 23.6191 48.4255 23.3005 48.4255C22.3108 48.4255 21.5054 49.2292 21.5054 50.2165ZM31.6523 38.4197C30.6626 38.4197 29.8572 37.616 29.8572 36.6277C29.8572 35.6394 30.6626 34.8357 31.6523 34.8357C32.6423 34.8357 33.4478 35.6394 33.4478 36.6277C33.4478 37.616 32.6423 38.4197 31.6523 38.4197ZM53.1375 50.612C54.1272 50.612 54.9329 49.8083 54.9329 48.8201C54.9329 47.8327 54.1272 47.029 53.1375 47.029C52.1477 47.029 51.343 47.8327 51.343 48.8201C51.343 49.8083 52.1477 50.612 53.1375 50.612Z" fill="white"/>
</svg>
