<svg width="56" height="56" viewBox="0 0 56 56" fill="none" xmlns="http://www.w3.org/2000/svg">
<path fill-rule="evenodd" clip-rule="evenodd" d="M28 55C42.9117 55 55 42.9117 55 28C55 13.0883 42.9117 1 28 1C13.0883 1 1 13.0883 1 28C1 42.9117 13.0883 55 28 55Z" stroke="black"/>
<path fill-rule="evenodd" clip-rule="evenodd" d="M20.0197 16.3336C19.8674 16.3383 19.7227 16.4011 19.6162 16.5102L14.9205 21.2058C14.9111 21.214 14.9018 21.2224 14.893 21.231C14.8883 21.2357 14.8836 21.2416 14.8793 21.2471L14.8747 21.254C14.766 21.3856 14.7199 21.558 14.7486 21.7263V40.4034C14.7486 40.7276 15.0114 40.9904 15.3355 40.9904H29.5394C29.839 41.5791 30.2309 42.1336 30.7225 42.6252C33.2404 45.1431 37.3413 45.1404 39.8593 42.6229C42.3772 40.1049 42.3773 36.0086 39.8593 33.4906V33.4883C39.7124 33.3414 39.5578 33.2054 39.4007 33.0756V16.9252C39.3996 16.6019 39.137 16.3405 38.8138 16.3405V16.3382H20.1137C20.0826 16.3347 20.0512 16.3325 20.0197 16.3336ZM20.2737 17.512H37.3963L33.8746 21.0338H16.752L20.2737 17.512ZM38.2268 18.3421V32.3052C37.1298 31.7466 35.905 31.5186 34.7051 31.6266V21.8638L38.2268 18.3421ZM15.9238 22.2073H33.5325V31.8463C32.5038 32.1356 31.5315 32.6801 30.7238 33.4879C29.0137 35.1981 28.4693 37.6372 29.0822 39.816H15.9238V22.2073ZM35.2935 32.7659C36.6451 32.7663 37.9961 33.2837 39.0308 34.3182C41.1001 36.3875 41.1001 39.7233 39.0308 41.7927C36.9614 43.862 33.6233 43.8647 31.554 41.795C29.4846 39.7256 29.4846 36.3852 31.554 34.3159C32.5886 33.2812 33.9419 32.7656 35.2935 32.7659ZM17.0957 32.7728V33.9467H24.1392V32.7728H17.0957ZM17.0957 35.1204V36.2943H21.7914V35.1204H17.0957Z" fill="black"/>
<path d="M34.42 38.6813H33.67V39.0813H34.42V39.9813H33.67V40.3813H34.42V42.2513H34.86V40.3813H36.53V39.9813H34.86V39.0813H35.72C36.46 39.0813 36.92 38.8313 37.19 38.5513C37.5 38.2413 37.66 37.7813 37.66 37.3213C37.66 36.8213 37.47 36.4013 37.2 36.1213C36.75 35.6513 36.16 35.5813 35.71 35.5813H34.42V38.6813ZM34.86 35.9813H35.67C36.03 35.9813 36.45 36.0213 36.81 36.3513C37.09 36.6113 37.2 36.9413 37.2 37.3313C37.2 37.6613 37.12 38.0113 36.83 38.2913C36.59 38.5213 36.21 38.6813 35.74 38.6813H34.86V35.9813Z" fill="white"/>
</svg>
