<svg width="56" height="56" viewBox="0 0 56 56" fill="none" xmlns="http://www.w3.org/2000/svg">
<path fill-rule="evenodd" clip-rule="evenodd" d="M16.8623 20.3104C15.8359 20.3104 15 21.1463 15 22.1727V35.8279C15 36.8543 15.8359 37.6893 16.8623 37.6893H39.8271C40.8535 37.6893 41.6895 36.8543 41.6895 35.8279V22.1727C41.6895 21.1463 40.8535 20.3104 39.8271 20.3104H16.8623ZM16.8623 20.9315H39.8281C40.5215 20.9315 41.0693 21.4793 41.0693 22.1727V23.4139H15.6211V22.1727C15.6211 21.4793 16.1689 20.9315 16.8623 20.9315ZM41.0693 24.035H15.6211V26.5174H41.0693V24.035ZM15.6211 27.1375H41.0693V35.827C41.0693 36.5203 40.5215 37.0682 39.8281 37.0682H16.8623C16.1689 37.0682 15.6211 36.5203 15.6211 35.827V27.1375ZM31.7588 33.035C31.7588 31.8387 32.7354 30.8621 33.9316 30.8621C34.5391 30.8621 35.0889 31.118 35.4834 31.5213C35.8779 31.1199 36.4277 30.8621 37.0342 30.8621C38.2305 30.8621 39.207 31.8387 39.207 33.035C39.207 34.2303 38.2305 35.2068 37.0342 35.2068C36.4277 35.2068 35.8779 34.952 35.4834 34.5477C35.0889 34.951 34.5391 35.1971 33.9316 35.1971C32.7354 35.1971 31.7588 34.2303 31.7588 33.035ZM33.9307 31.4734C34.791 31.4734 35.4824 32.1746 35.4824 33.035C35.4824 33.8953 34.791 34.5867 33.9307 34.5867C33.0703 34.5867 32.3691 33.8953 32.3691 33.035C32.3691 32.1746 33.0703 31.4734 33.9307 31.4734ZM38.5869 33.035C38.5869 32.1746 37.8955 31.4832 37.0352 31.4832C36.5557 31.4832 36.1357 31.6981 35.8516 32.0359C36.0098 32.3367 36.0938 32.6727 36.0938 33.035C36.0938 33.3973 36.0098 33.7332 35.8516 34.034C36.1357 34.3738 36.5566 34.5867 37.0352 34.5867C37.8955 34.5867 38.5869 33.8953 38.5869 33.035Z" fill="black"/>
<path d="M41.0693 23.4139V23.6639H41.3193V23.4139H41.0693ZM15.6211 23.4139H15.3711V23.6639H15.6211V23.4139ZM15.6211 24.035V23.785H15.3711V24.035H15.6211ZM41.0693 24.035H41.3193V23.785H41.0693V24.035ZM15.6211 26.5174H15.3711V26.7674H15.6211V26.5174ZM41.0693 26.5174V26.7674H41.3193V26.5174H41.0693ZM41.0693 27.1375H41.3193V26.8875H41.0693V27.1375ZM15.6211 27.1375V26.8875H15.3711V27.1375H15.6211ZM35.4834 31.5213L35.3047 31.6961L35.483 31.8784L35.6617 31.6966L35.4834 31.5213ZM35.4834 34.5477L35.6623 34.3731L35.4836 34.1899L35.3047 34.3728L35.4834 34.5477ZM35.8516 32.0359L35.6602 31.875L35.5521 32.0036L35.6303 32.1523L35.8516 32.0359ZM35.8516 34.034L35.6303 33.9176L35.5523 34.0659L35.6598 34.1944L35.8516 34.034ZM15.25 22.1727C15.25 21.2844 15.974 20.5604 16.8623 20.5604V20.0604C15.6979 20.0604 14.75 21.0082 14.75 22.1727H15.25ZM15.25 35.8279V22.1727H14.75V35.8279H15.25ZM16.8623 37.4393C15.9738 37.4393 15.25 36.7161 15.25 35.8279H14.75C14.75 36.9926 15.698 37.9393 16.8623 37.9393V37.4393ZM39.8271 37.4393H16.8623V37.9393H39.8271V37.4393ZM41.4395 35.8279C41.4395 36.7161 40.7156 37.4393 39.8271 37.4393V37.9393C40.9914 37.9393 41.9395 36.9926 41.9395 35.8279H41.4395ZM41.4395 22.1727V35.8279H41.9395V22.1727H41.4395ZM39.8271 20.5604C40.7154 20.5604 41.4395 21.2844 41.4395 22.1727H41.9395C41.9395 21.0082 40.9916 20.0604 39.8271 20.0604V20.5604ZM16.8623 20.5604H39.8271V20.0604H16.8623V20.5604ZM39.8281 20.6815H16.8623V21.1815H39.8281V20.6815ZM41.3193 22.1727C41.3193 21.3412 40.6596 20.6815 39.8281 20.6815V21.1815C40.3834 21.1815 40.8193 21.6174 40.8193 22.1727H41.3193ZM41.3193 23.4139V22.1727H40.8193V23.4139H41.3193ZM15.6211 23.6639H41.0693V23.1639H15.6211V23.6639ZM15.3711 22.1727V23.4139H15.8711V22.1727H15.3711ZM16.8623 20.6815C16.0309 20.6815 15.3711 21.3412 15.3711 22.1727H15.8711C15.8711 21.6174 16.307 21.1815 16.8623 21.1815V20.6815ZM15.6211 24.285H41.0693V23.785H15.6211V24.285ZM15.8711 26.5174V24.035H15.3711V26.5174H15.8711ZM41.0693 26.2674H15.6211V26.7674H41.0693V26.2674ZM40.8193 24.035V26.5174H41.3193V24.035H40.8193ZM41.0693 26.8875H15.6211V27.3875H41.0693V26.8875ZM41.3193 35.827V27.1375H40.8193V35.827H41.3193ZM39.8281 37.3182C40.6596 37.3182 41.3193 36.6584 41.3193 35.827H40.8193C40.8193 36.3823 40.3834 36.8182 39.8281 36.8182V37.3182ZM16.8623 37.3182H39.8281V36.8182H16.8623V37.3182ZM15.3711 35.827C15.3711 36.6584 16.0309 37.3182 16.8623 37.3182V36.8182C16.307 36.8182 15.8711 36.3823 15.8711 35.827H15.3711ZM15.3711 27.1375V35.827H15.8711V27.1375H15.3711ZM33.9316 30.6121C32.5973 30.6121 31.5088 31.7006 31.5088 33.035H32.0088C32.0088 31.9768 32.8734 31.1121 33.9316 31.1121V30.6121ZM35.6621 31.3465C35.2237 30.8983 34.6108 30.6121 33.9316 30.6121V31.1121C34.4674 31.1121 34.954 31.3376 35.3047 31.6961L35.6621 31.3465ZM37.0342 30.6121C36.3555 30.6121 35.7429 30.9007 35.3051 31.346L35.6617 31.6966C36.013 31.3392 36.5 31.1121 37.0342 31.1121V30.6121ZM39.457 33.035C39.457 31.7006 38.3685 30.6121 37.0342 30.6121V31.1121C38.0924 31.1121 38.957 31.9768 38.957 33.035H39.457ZM37.0342 35.4568C38.3685 35.4568 39.457 34.3684 39.457 33.035H38.957C38.957 34.0921 38.0925 34.9568 37.0342 34.9568V35.4568ZM35.3045 34.7223C35.7431 35.1717 36.3562 35.4568 37.0342 35.4568V34.9568C36.4992 34.9568 36.0128 34.7322 35.6623 34.3731L35.3045 34.7223ZM33.9316 35.4471C34.608 35.4471 35.2217 35.1727 35.6621 34.7225L35.3047 34.3728C34.956 34.7293 34.4701 34.9471 33.9316 34.9471V35.4471ZM31.5088 33.035C31.5088 34.3699 32.5988 35.4471 33.9316 35.4471V34.9471C32.8719 34.9471 32.0088 34.0907 32.0088 33.035H31.5088ZM35.7324 33.035C35.7324 32.0386 34.9311 31.2234 33.9307 31.2234V31.7234C34.6509 31.7234 35.2324 32.3106 35.2324 33.035H35.7324ZM33.9307 34.8367C34.9291 34.8367 35.7324 34.0334 35.7324 33.035H35.2324C35.2324 33.7573 34.6529 34.3367 33.9307 34.3367V34.8367ZM32.1191 33.035C32.1191 34.0354 32.9343 34.8367 33.9307 34.8367V34.3367C33.2063 34.3367 32.6191 33.7552 32.6191 33.035H32.1191ZM33.9307 31.2234C32.9322 31.2234 32.1191 32.0366 32.1191 33.035H32.6191C32.6191 32.3127 33.2084 31.7234 33.9307 31.7234V31.2234ZM37.0352 31.7332C37.7574 31.7332 38.3369 32.3127 38.3369 33.035H38.8369C38.8369 32.0366 38.0336 31.2332 37.0352 31.2332V31.7332ZM36.0429 32.1969C36.2821 31.9124 36.6333 31.7332 37.0352 31.7332V31.2332C36.478 31.2332 35.9894 31.4837 35.6602 31.875L36.0429 32.1969ZM36.3438 33.035C36.3438 32.633 36.2503 32.257 36.0728 31.9196L35.6303 32.1523C35.7692 32.4165 35.8438 32.7124 35.8438 33.035H36.3438ZM36.0728 34.1504C36.2503 33.813 36.3438 33.437 36.3438 33.035H35.8438C35.8438 33.3576 35.7692 33.6535 35.6303 33.9176L36.0728 34.1504ZM37.0352 34.3367C36.6336 34.3367 36.2819 34.159 36.0433 33.8736L35.6598 34.1944C35.9895 34.5887 36.4797 34.8367 37.0352 34.8367V34.3367ZM38.3369 33.035C38.3369 33.7573 37.7574 34.3367 37.0352 34.3367V34.8367C38.0336 34.8367 38.8369 34.0334 38.8369 33.035H38.3369Z" fill="black"/>
<path fill-rule="evenodd" clip-rule="evenodd" d="M28 55C42.9117 55 55 42.9117 55 28C55 13.0883 42.9117 1 28 1C13.0883 1 1 13.0883 1 28C1 42.9117 13.0883 55 28 55Z" stroke="black"/>
</svg>
