<svg width="21" height="12" viewBox="0 0 21 12" fill="none" xmlns="http://www.w3.org/2000/svg">
<path d="M19.4816 0.505469H16.1912C15.9175 0.505467 15.666 0.655914 15.5366 0.897029C15.5366 0.897029 14.2243 3.31396 13.8027 4.12803C12.6686 6.31797 11.9343 5.63047 11.9343 4.6141V1.10964C11.9343 0.499823 11.4399 0.00546918 10.8301 0.00546918H8.3561C7.67106 -0.0454641 7.00851 0.261976 6.6051 0.817969C6.6051 0.817969 7.86136 0.614849 7.86136 2.30755C7.86136 2.72729 7.88298 3.93478 7.90268 4.94755C7.91029 5.25324 7.72642 5.53123 7.44213 5.64385C7.15784 5.75647 6.83348 5.67982 6.62968 5.45186C5.61703 4.04345 4.77822 2.51787 4.13148 0.908269C4.01806 0.662393 3.77184 0.505075 3.50107 0.505469C2.78747 0.505469 1.35949 0.505469 0.51146 0.505469C0.344531 0.504333 0.187698 0.585281 0.0919255 0.722007C-0.00384719 0.858733 -0.026335 1.03379 0.0317699 1.19028C0.93956 3.68034 4.85003 11.5055 9.31344 11.5055H11.1921C11.602 11.5055 11.9343 11.1732 11.9343 10.7633V9.62889C11.9343 9.33805 12.1071 9.07501 12.374 8.95954C12.641 8.84407 12.951 8.89824 13.1629 9.09739L15.4116 11.2101C15.6135 11.3998 15.8802 11.5055 16.1573 11.5055H19.1101C20.5342 11.5055 20.5342 10.5172 19.7578 9.75253C19.2113 9.21436 17.2394 7.1359 17.2394 7.1359C16.8905 6.77444 16.8573 6.21258 17.1611 5.81247C17.7984 4.97371 18.841 3.60072 19.2831 3.01254C19.8874 2.2086 20.9811 0.505469 19.4816 0.505469Z" fill="white"/>
</svg>
