<svg width="375" height="38" viewBox="0 0 375 38" fill="none" xmlns="http://www.w3.org/2000/svg">
<rect width="2238.12" height="38" fill="black" fill-opacity="0" transform="translate(-932)"/>
<rect width="414.898" height="37.8488" fill="black" fill-opacity="0" transform="translate(-21.551 0.151367)"/>
<path fill-rule="evenodd" clip-rule="evenodd" d="M161.469 34.8006C160.826 37.1924 159.376 38.0003 157.295 38.0003C154.115 38.0003 152.939 35.8513 152.939 33.7798C152.939 31.4218 154.393 29.4697 157.279 29.4697C159.422 29.4697 161.118 30.4308 161.439 32.4108H159.818C159.636 31.374 158.809 30.7512 157.389 30.7512C155.431 30.7512 154.559 32.0287 154.559 33.736C154.559 35.4414 155.431 36.7208 157.389 36.7208C158.765 36.7208 159.512 36.1259 159.848 34.8006H161.469Z" fill="#231F20"/>
<path fill-rule="evenodd" clip-rule="evenodd" d="M165.347 37.9996H166.898V27.918H165.347V37.9996Z" fill="#231F20"/>
<path fill-rule="evenodd" clip-rule="evenodd" d="M173.102 29.4583H174.653V27.918H173.102V29.4583ZM173.102 37.9998H174.653V30.6641H173.102V37.9998Z" fill="#231F20"/>
<path fill-rule="evenodd" clip-rule="evenodd" d="M180.082 29.7535H181.554V30.9953H181.583C182.275 29.848 183.495 29.4697 184.598 29.4697C186.451 29.4697 187.837 30.3209 187.837 32.3832V38.0003H186.365V32.6957C186.365 31.4847 185.659 30.7918 184.085 30.7918C182.744 30.7918 181.554 31.6245 181.554 33.2467V38.0003H180.082V29.7535Z" fill="#231F20"/>
<path fill-rule="evenodd" clip-rule="evenodd" d="M191.714 29.4583H193.265V27.918H191.714V29.4583ZM191.714 37.9998H193.265V30.6641H191.714V37.9998Z" fill="#231F20"/>
<rect width="22.1098" height="7.80376" fill="black" fill-opacity="0" transform="translate(199.018 29.8691)"/>
<path fill-rule="evenodd" clip-rule="evenodd" d="M207.404 34.7465C206.773 36.934 205.342 37.6729 203.3 37.6729C200.173 37.6729 199.018 35.7074 199.018 33.8129C199.018 31.6564 200.443 29.8711 203.285 29.8711C205.391 29.8711 207.058 30.7501 207.374 32.5609H205.782C205.599 31.6127 204.788 31.0431 203.393 31.0431C201.468 31.0431 200.61 32.2114 200.61 33.7729C200.61 35.3325 201.468 36.5027 203.393 36.5027C204.745 36.5027 205.482 35.9585 205.809 34.7465H207.404Z" fill="#231F20"/>
<path fill-rule="evenodd" clip-rule="evenodd" d="M212.395 32.4079C212.593 30.5825 213.944 29.8691 216.302 29.8691C217.912 29.8691 219.924 30.2477 219.924 31.9456V35.8765C219.924 36.3096 220.134 36.5044 220.602 36.5044C220.769 36.5044 220.979 36.4734 221.128 36.4461V37.4234C220.769 37.478 220.317 37.5071 219.956 37.5071C219.204 37.5071 218.707 37.3087 218.601 36.4898C218 37.2414 216.528 37.6727 215.251 37.6727C212.636 37.6727 212.049 36.4188 212.049 35.4725C212.049 34.1349 212.907 33.4506 215.43 33.2031L217.146 33.0339C217.986 32.952 218.513 32.81 218.513 32.1549C218.513 31.154 217.46 30.9574 216.243 30.9574C214.951 30.9574 213.853 31.2777 213.806 32.4079H212.395ZM218.513 33.6055C218.287 33.8421 217.88 33.9403 217.038 34.0368L215.34 34.2315C214.169 34.3735 213.553 34.6628 213.553 35.4308C213.553 36.1114 214.289 36.5864 215.385 36.5864C217.087 36.5864 218.513 35.7511 218.513 34.5391V33.6055Z" fill="#231F20"/>
<path fill-rule="evenodd" clip-rule="evenodd" d="M225.061 37.9996H226.612V27.918H225.061V37.9996Z" fill="#231F20"/>
<path fill-rule="evenodd" clip-rule="evenodd" d="M-21.551 13.9592H113.388V12.4082H-21.551V13.9592Z" fill="#231F20"/>
<path fill-rule="evenodd" clip-rule="evenodd" d="M258.408 13.9592H393.347V12.4082H258.408V13.9592Z" fill="#231F20"/>
<rect width="151.78" height="20.6177" fill="black" fill-opacity="0" transform="translate(113.426 0.151367)"/>
<path fill-rule="evenodd" clip-rule="evenodd" d="M129.11 16.8226C127.957 18.1193 125.97 18.9837 124.249 18.9837C121.151 18.9837 117.863 16.6509 117.838 10.7195C117.818 4.6144 121.062 1.93619 123.944 1.93619C125.852 1.93619 127.229 2.7138 128.582 4.4967H128.958C129.033 3.51842 129.218 2.51313 129.563 1.56186C128.323 0.757244 125.954 0.151367 124.071 0.151367C118.42 0.151367 113.397 3.2039 113.426 11.1517C113.447 16.5911 117.148 20.7685 123.391 20.7685C125.598 20.7685 127.452 20.3074 128.875 19.5008C128.954 18.6962 129.166 17.8588 129.461 17.0542L129.11 16.8226Z" fill="#231F20"/>
<path fill-rule="evenodd" clip-rule="evenodd" d="M146.65 12.4181C146.662 15.6443 146.616 17.8595 146.463 20.3929C147.053 20.3351 147.782 20.2502 148.668 20.2502C149.557 20.2502 150.286 20.3351 150.877 20.3929C150.706 17.8595 150.644 15.6443 150.632 12.4181L150.619 8.50117C150.605 5.2769 150.654 3.05986 150.806 0.526367C150.212 0.584253 149.488 0.669153 148.597 0.669153C147.712 0.669153 146.984 0.584253 146.394 0.526367C146.563 3.03091 146.623 5.24796 146.637 8.44328C145.611 8.47223 144.484 8.50117 142.574 8.50117C140.663 8.50117 139.37 8.47223 138.454 8.44328C138.443 5.24796 138.489 3.03091 138.641 0.526367C138.052 0.584253 137.323 0.669153 136.436 0.669153C135.548 0.669153 134.819 0.584253 134.229 0.526367C134.399 3.05986 134.461 5.2769 134.472 8.50117L134.486 12.4181C134.499 15.6443 134.451 17.8595 134.299 20.3929C134.892 20.3351 135.619 20.2502 136.504 20.2502C137.392 20.2502 138.121 20.3351 138.711 20.3929C138.541 17.8595 138.481 15.6443 138.47 12.4181L138.462 10.7761C139.835 10.7201 141.209 10.6623 142.554 10.6623C143.925 10.6623 145.27 10.7472 146.644 10.7761L146.65 12.4181Z" fill="#231F20"/>
<path fill-rule="evenodd" clip-rule="evenodd" d="M175.273 12.4181C175.285 15.6443 175.24 17.8595 175.086 20.3929C175.68 20.3351 176.404 20.2502 177.293 20.2502C178.18 20.2502 178.908 20.3351 179.5 20.3929C179.33 17.8595 179.267 15.6443 179.255 12.4181L179.242 8.50117C179.228 5.2769 179.276 3.05986 179.429 0.526367C178.837 0.584253 178.11 0.669153 177.22 0.669153C176.335 0.669153 175.606 0.584253 175.017 0.526367C175.186 3.05986 175.246 5.2769 175.259 8.50117L175.273 12.4181Z" fill="#231F20"/>
<path fill-rule="evenodd" clip-rule="evenodd" d="M194.011 4.41278C194.356 3.14507 194.543 2.45429 194.861 1.56091C193.835 0.698405 192.378 0.152344 190.443 0.152344C187.241 0.152344 184.398 2.34045 184.412 6.31338C184.435 12.8487 192.449 11.6987 192.463 16.0441C192.471 17.6572 191.426 18.9847 189.327 18.9847C187.147 18.9847 185.906 17.5433 185.601 15.8723H185.09C184.905 17.169 184.668 18.2052 184.325 19.5307C185.108 20.1636 186.725 20.7695 188.662 20.7695C192.941 20.7695 195.782 18.1203 195.769 14.2592C195.743 7.72387 187.569 8.78898 187.554 4.52662C187.548 3.14507 188.7 1.93717 190.343 1.93717C191.985 1.93717 193.037 2.77073 193.608 4.41278H194.011Z" fill="#231F20"/>
<path fill-rule="evenodd" clip-rule="evenodd" d="M203.946 12.4181C203.957 15.6443 203.909 17.8595 203.757 20.3929C204.352 20.3351 205.077 20.2502 205.964 20.2502C206.852 20.2502 207.581 20.3351 208.173 20.3929C208.001 17.8595 207.939 15.6443 207.926 12.4181L207.901 5.22095C207.899 4.1269 207.895 3.08687 207.945 2.68553C209.025 2.68553 211.286 2.85918 212.739 3.05986C212.656 2.62764 212.6 2.22629 212.6 1.79408C212.596 1.35993 212.65 0.958585 212.729 0.526367C210.441 0.613197 209.231 0.669153 205.892 0.669153C202.556 0.669153 201.345 0.613197 198.899 0.526367C198.978 0.958585 199.032 1.35993 199.036 1.79408C199.036 2.22629 198.986 2.62764 198.905 3.05986C200.519 2.85918 202.779 2.68553 203.828 2.68553C203.913 3.08687 203.915 4.1269 203.919 5.22095L203.946 12.4181Z" fill="#231F20"/>
<path fill-rule="evenodd" clip-rule="evenodd" d="M217.459 12.4181C217.47 15.6443 217.426 17.8595 217.27 20.3929C217.865 20.3351 218.59 20.2502 219.479 20.2502C220.365 20.2502 221.094 20.3351 221.686 20.3929C221.516 17.8595 221.452 15.6443 221.441 12.4181L221.427 8.50117C221.416 5.2769 221.46 3.05986 221.612 0.526367C221.023 0.584253 220.298 0.669153 219.405 0.669153C218.521 0.669153 217.796 0.584253 217.2 0.526367C217.37 3.05986 217.432 5.2769 217.447 8.50117L217.459 12.4181Z" fill="#231F20"/>
<path fill-rule="evenodd" clip-rule="evenodd" d="M228.105 6.25613C228.126 12.1297 227.747 19.5603 227.616 20.3939C228.02 20.3071 228.45 20.2492 228.853 20.2492C229.258 20.2492 229.69 20.3071 230.119 20.3939C230.035 19.3288 229.946 17.7157 229.931 13.1079C229.923 10.9488 229.913 8.56001 229.961 6.39892C234.121 11.0646 238.067 15.7283 241.771 20.3939C242.093 20.3071 242.442 20.2492 242.822 20.2492C243.198 20.2492 243.546 20.3071 243.922 20.3939C243.895 12.7336 243.882 8.9054 244.283 0.525391C243.88 0.61222 243.477 0.668177 243.072 0.668177C242.669 0.668177 242.265 0.61222 241.862 0.525391C242.055 1.82204 242.082 9.65406 242.099 14.2329C238.128 9.65406 234.262 5.10227 230.37 0.525391C229.967 0.61222 229.564 0.668177 229.16 0.668177C228.757 0.668177 228.354 0.61222 227.947 0.525391C227.98 1.90694 228.092 3.66283 228.105 6.25613Z" fill="#231F20"/>
<path fill-rule="evenodd" clip-rule="evenodd" d="M166.163 20.3939C166.967 20.336 167.804 20.2511 168.611 20.2511C169.417 20.2511 170.225 20.336 171.03 20.3939C169.057 17.1388 167 13.8585 165.265 10.6073C167.927 9.88368 169.427 8.09692 169.417 5.3068C169.411 3.6088 168.733 2.34109 167.653 1.50367C166.711 0.785879 165.712 0.525391 162.996 0.525391C161.165 0.525391 160.009 0.670106 159.041 0.670106C158.151 0.670106 157.426 0.583277 156.832 0.525391C157.006 3.06081 157.067 5.27593 157.079 8.50212L157.091 12.4191C157.102 15.6434 157.058 17.8604 156.906 20.3939C157.495 20.336 158.224 20.2511 159.111 20.2511C159.999 20.2511 160.728 20.336 161.318 20.3939C161.148 17.8604 161.086 15.6434 161.075 12.4191L161.069 11.2382H161.312L166.163 20.3939ZM165.304 5.94216C165.313 8.64545 164.026 10.0579 161.657 10.0579C161.47 10.0579 161.283 10.027 161.063 10.0019C161.057 7.37774 161.073 4.78829 161.119 2.16797C164.053 2.16797 165.288 2.54423 165.304 5.94216Z" fill="#231F20"/>
<path fill-rule="evenodd" clip-rule="evenodd" d="M257.652 0.380859C257.301 0.438746 256.979 0.523646 256.631 0.523646C256.278 0.523646 255.956 0.438746 255.605 0.380859C253.317 6.94517 249.318 17.1968 248.009 20.3941C248.522 20.3343 248.926 20.2494 249.354 20.2494C249.788 20.2494 250.189 20.3343 250.621 20.3941C251.124 18.4047 251.918 15.9909 252.637 14.0362C253.579 14.0073 257.33 14.0073 258.491 14.0362C259.167 15.9909 259.977 18.4337 260.551 20.3941C261.303 20.3343 262.085 20.2494 262.835 20.2494C263.591 20.2494 264.346 20.3343 265.206 20.3941C263.144 15.7014 259.965 6.94517 257.652 0.380859ZM253.45 11.8477C253.45 11.8477 255.05 7.36539 255.626 5.93945C256.378 7.87864 257.725 11.8419 257.725 11.8419L253.45 11.8477Z" fill="#231F20"/>
</svg>
