<svg width="1280" height="49" viewBox="0 0 1280 49" fill="none" xmlns="http://www.w3.org/2000/svg">
<rect width="2886" height="49" fill="black" fill-opacity="0" transform="translate(-807)"/>
<rect width="535" height="48.805" fill="black" fill-opacity="0" transform="translate(367 0.195312)"/>
<path fill-rule="evenodd" clip-rule="evenodd" d="M603 44.874C602.171 47.9582 600.301 49 597.617 49C593.517 49 592 46.2288 592 43.5577C592 40.5171 593.875 38 597.597 38C600.36 38 602.547 39.2393 602.961 41.7924H600.87C600.636 40.4556 599.569 39.6524 597.738 39.6524C595.214 39.6524 594.089 41.2997 594.089 43.5013C594.089 45.7003 595.214 47.3501 597.738 47.3501C599.513 47.3501 600.476 46.5829 600.909 44.874H603Z" fill="#231F20"/>
<path fill-rule="evenodd" clip-rule="evenodd" d="M608 49H610V36H608V49Z" fill="#231F20"/>
<path fill-rule="evenodd" clip-rule="evenodd" d="M618 37.9862H620V36H618V37.9862ZM618 49.0003H620V39.541H618V49.0003Z" fill="#231F20"/>
<path fill-rule="evenodd" clip-rule="evenodd" d="M627 38.3659H628.898V39.9672H628.936C629.828 38.4878 631.401 38 632.824 38C635.213 38 637 39.0976 637 41.7568V49H635.102V42.1598C635.102 40.5982 634.192 39.7047 632.162 39.7047C630.432 39.7047 628.898 40.7785 628.898 42.8703V49H627V38.3659Z" fill="#231F20"/>
<path fill-rule="evenodd" clip-rule="evenodd" d="M642 37.9862H644V36H642V37.9862ZM642 49.0003H644V39.541H642V49.0003Z" fill="#231F20"/>
<rect width="28.51" height="10.0627" fill="black" fill-opacity="0" transform="translate(651.418 38.5156)"/>
<path fill-rule="evenodd" clip-rule="evenodd" d="M662.231 44.8053C661.418 47.626 659.573 48.5787 656.94 48.5787C652.907 48.5787 651.418 46.0443 651.418 43.6014C651.418 40.8206 653.256 38.5186 656.919 38.5186C659.636 38.5186 661.785 39.652 662.193 41.9869H660.14C659.904 40.7643 658.859 40.0298 657.059 40.0298C654.578 40.0298 653.471 41.5364 653.471 43.5498C653.471 45.5609 654.578 47.0698 657.059 47.0698C658.803 47.0698 659.752 46.3682 660.175 44.8053H662.231Z" fill="#231F20"/>
<path fill-rule="evenodd" clip-rule="evenodd" d="M668.667 41.7892C668.922 39.4355 670.664 38.5156 673.705 38.5156C675.781 38.5156 678.376 39.0037 678.376 41.1932V46.262C678.376 46.8205 678.647 47.0716 679.249 47.0716C679.465 47.0716 679.736 47.0317 679.928 46.9965V48.2566C679.465 48.327 678.882 48.3646 678.417 48.3646C677.447 48.3646 676.806 48.1088 676.67 47.0528C675.895 48.022 673.996 48.5781 672.35 48.5781C668.978 48.5781 668.221 46.9613 668.221 45.741C668.221 44.0162 669.328 43.1339 672.581 42.8147L674.794 42.5965C675.877 42.4909 676.556 42.3078 676.556 41.463C676.556 40.1724 675.199 39.9189 673.629 39.9189C671.963 39.9189 670.548 40.3319 670.487 41.7892H668.667ZM676.556 43.333C676.265 43.6381 675.74 43.7648 674.654 43.8892L672.464 44.1403C670.955 44.3233 670.161 44.6964 670.161 45.6867C670.161 46.5644 671.11 47.1768 672.523 47.1768C674.718 47.1768 676.556 46.0997 676.556 44.5368V43.333Z" fill="#231F20"/>
<path fill-rule="evenodd" clip-rule="evenodd" d="M685 49H687V36H685V49Z" fill="#231F20"/>
<path fill-rule="evenodd" clip-rule="evenodd" d="M367 18H541V16H367V18Z" fill="#231F20"/>
<path fill-rule="evenodd" clip-rule="evenodd" d="M728 18H902V16H728V18Z" fill="#231F20"/>
<rect width="195.717" height="26.586" fill="black" fill-opacity="0" transform="translate(541.049 0.195312)"/>
<path fill-rule="evenodd" clip-rule="evenodd" d="M561.273 21.6925C559.787 23.3645 557.224 24.4791 555.005 24.4791C551.011 24.4791 546.77 21.471 546.738 13.8226C546.713 5.95028 550.896 2.4968 554.612 2.4968C557.073 2.4968 558.847 3.4995 560.592 5.7985H561.077C561.174 4.53704 561.412 3.24074 561.857 2.01411C560.259 0.976574 557.204 0.195312 554.776 0.195312C547.489 0.195312 541.012 4.13148 541.049 14.3799C541.076 21.3939 545.848 26.7806 553.899 26.7806C556.745 26.7806 559.136 26.186 560.97 25.1459C561.072 24.1084 561.345 23.0286 561.725 21.991L561.273 21.6925Z" fill="#231F20"/>
<path fill-rule="evenodd" clip-rule="evenodd" d="M583.891 16.0128C583.906 20.1729 583.846 23.0293 583.65 26.2961C584.411 26.2215 585.35 26.112 586.493 26.112C587.639 26.112 588.579 26.2215 589.342 26.2961C589.121 23.0293 589.041 20.1729 589.026 16.0128L589.009 10.962C588.991 6.8044 589.053 3.94558 589.25 0.678711C588.484 0.753354 587.55 0.86283 586.401 0.86283C585.261 0.86283 584.321 0.753354 583.561 0.678711C583.779 3.90826 583.856 6.76708 583.874 10.8874C582.551 10.9247 581.097 10.962 578.634 10.962C576.171 10.962 574.504 10.9247 573.323 10.8874C573.308 6.76708 573.368 3.90826 573.564 0.678711C572.803 0.753354 571.864 0.86283 570.721 0.86283C569.575 0.86283 568.635 0.753354 567.875 0.678711C568.093 3.94558 568.173 6.8044 568.188 10.962L568.205 16.0128C568.223 20.1729 568.161 23.0293 567.964 26.2961C568.73 26.2215 569.667 26.112 570.808 26.112C571.953 26.112 572.893 26.2215 573.653 26.2961C573.435 23.0293 573.358 20.1729 573.343 16.0128L573.333 13.8955C575.102 13.8233 576.875 13.7487 578.609 13.7487C580.377 13.7487 582.112 13.8582 583.884 13.8955L583.891 16.0128Z" fill="#231F20"/>
<path fill-rule="evenodd" clip-rule="evenodd" d="M620.799 16.0128C620.814 20.1729 620.757 23.0293 620.558 26.2961C621.324 26.2215 622.258 26.112 623.404 26.112C624.547 26.112 625.487 26.2215 626.25 26.2961C626.031 23.0293 625.949 20.1729 625.934 16.0128L625.917 10.962C625.899 6.8044 625.962 3.94558 626.158 0.678711C625.395 0.753354 624.458 0.86283 623.31 0.86283C622.169 0.86283 621.229 0.753354 620.469 0.678711C620.687 3.94558 620.765 6.8044 620.782 10.962L620.799 16.0128Z" fill="#231F20"/>
<path fill-rule="evenodd" clip-rule="evenodd" d="M644.961 5.69C645.406 4.05532 645.647 3.16459 646.057 2.0126C644.735 0.90042 642.856 0.196289 640.36 0.196289C636.232 0.196289 632.566 3.01779 632.583 8.14078C632.613 16.568 642.948 15.0851 642.965 20.6882C642.975 22.7683 641.628 24.4801 638.921 24.4801C636.11 24.4801 634.51 22.6215 634.117 20.4668H633.458C633.22 22.1388 632.914 23.4749 632.472 25.1842C633.481 26.0003 635.566 26.7816 638.064 26.7816C643.582 26.7816 647.245 23.3654 647.228 18.3868C647.195 9.95957 636.655 11.333 636.635 5.8368C636.627 4.05533 638.114 2.49778 640.231 2.49778C642.349 2.49778 643.706 3.57263 644.442 5.69H644.961Z" fill="#231F20"/>
<path fill-rule="evenodd" clip-rule="evenodd" d="M657.772 16.0128C657.787 20.1729 657.725 23.0293 657.528 26.2961C658.296 26.2215 659.231 26.112 660.374 26.112C661.52 26.112 662.46 26.2215 663.223 26.2961C663.001 23.0293 662.922 20.1729 662.904 16.0128L662.872 6.73225C662.87 5.3215 662.865 3.98041 662.929 3.46289C664.321 3.46289 667.237 3.68682 669.111 3.94558C669.004 3.38825 668.932 2.87072 668.932 2.31339C668.927 1.75357 668.996 1.23604 669.098 0.678711C666.148 0.790675 664.587 0.86283 660.282 0.86283C655.98 0.86283 654.419 0.790675 651.265 0.678711C651.367 1.23604 651.437 1.75357 651.441 2.31339C651.441 2.87072 651.377 3.38825 651.272 3.94558C653.353 3.68682 656.268 3.46289 657.62 3.46289C657.73 3.98041 657.732 5.3215 657.737 6.73225L657.772 16.0128Z" fill="#231F20"/>
<path fill-rule="evenodd" clip-rule="evenodd" d="M675.197 16.0128C675.212 20.1729 675.155 23.0293 674.953 26.2961C675.721 26.2215 676.656 26.112 677.802 26.112C678.945 26.112 679.884 26.2215 680.647 26.2961C680.429 23.0293 680.347 20.1729 680.332 16.0128L680.314 10.962C680.299 6.8044 680.357 3.94558 680.553 0.678711C679.792 0.753354 678.858 0.86283 677.707 0.86283C676.566 0.86283 675.632 0.753354 674.864 0.678711C675.082 3.94558 675.162 6.8044 675.182 10.962L675.197 16.0128Z" fill="#231F20"/>
<path fill-rule="evenodd" clip-rule="evenodd" d="M688.925 8.06738C688.952 15.6411 688.463 25.2228 688.294 26.2977C688.816 26.1857 689.37 26.111 689.889 26.111C690.411 26.111 690.968 26.1857 691.522 26.2977C691.413 24.9242 691.299 22.8442 691.279 16.9026C691.269 14.1184 691.256 11.0382 691.319 8.2515C696.682 14.2677 701.77 20.2814 706.547 26.2977C706.962 26.1857 707.412 26.111 707.902 26.111C708.386 26.111 708.836 26.1857 709.321 26.2977C709.286 16.4199 709.269 11.4835 709.786 0.677734C709.266 0.789699 708.747 0.861853 708.225 0.861853C707.705 0.861853 707.183 0.789699 706.664 0.677734C706.912 2.34973 706.947 12.4489 706.97 18.3532C701.849 12.4489 696.864 6.5795 691.845 0.677734C691.326 0.789699 690.807 0.861853 690.285 0.861853C689.765 0.861853 689.246 0.789699 688.721 0.677734C688.763 2.45921 688.908 4.72338 688.925 8.06738Z" fill="#231F20"/>
<path fill-rule="evenodd" clip-rule="evenodd" d="M609.053 26.2967C610.089 26.222 611.168 26.1126 612.209 26.1126C613.248 26.1126 614.29 26.222 615.329 26.2967C612.783 22.0993 610.131 17.8695 607.895 13.6771C611.327 12.744 613.261 10.44 613.248 6.84226C613.241 4.65273 612.366 3.01806 610.974 1.93822C609.759 1.01265 608.471 0.676758 604.969 0.676758C602.608 0.676758 601.117 0.863365 599.869 0.863365C598.721 0.863365 597.786 0.751401 597.021 0.676758C597.244 3.94612 597.324 6.80245 597.339 10.9625L597.354 16.0134C597.369 20.171 597.311 23.0298 597.115 26.2967C597.876 26.222 598.815 26.1126 599.958 26.1126C601.104 26.1126 602.044 26.222 602.804 26.2967C602.586 23.0298 602.506 20.171 602.491 16.0134L602.484 14.4907H602.797L609.053 26.2967ZM607.944 7.66066C607.957 11.1465 606.296 12.9678 603.242 12.9678C603.001 12.9678 602.76 12.928 602.476 12.8956C602.469 9.5118 602.489 6.17278 602.548 2.79395C606.331 2.79395 607.924 3.27912 607.944 7.66066Z" fill="#231F20"/>
<path fill-rule="evenodd" clip-rule="evenodd" d="M727.025 0.491211C726.573 0.565854 726.158 0.67533 725.708 0.67533C725.253 0.67533 724.838 0.565854 724.385 0.491211C721.435 8.95571 716.278 22.175 714.59 26.2977C715.251 26.2206 715.773 26.1111 716.325 26.1111C716.884 26.1111 717.401 26.2206 717.958 26.2977C718.607 23.7325 719.631 20.6199 720.558 18.0995C721.773 18.0621 726.61 18.0621 728.106 18.0995C728.979 20.6199 730.022 23.7698 730.763 26.2977C731.732 26.2206 732.742 26.1111 733.708 26.1111C734.683 26.1111 735.657 26.2206 736.766 26.2977C734.106 20.2467 730.008 8.95571 727.025 0.491211ZM721.607 15.2777C721.607 15.2777 723.67 9.49788 724.413 7.65918C725.382 10.1597 727.119 15.2703 727.119 15.2703L721.607 15.2777Z" fill="#231F20"/>
<rect x="-807" y="16" width="1175" height="2" fill="black"/>
<rect x="902" y="16" width="1175" height="2" fill="black"/>
</svg>
