<svg width="2886" height="49" viewBox="0 0 2886 49" fill="none" xmlns="http://www.w3.org/2000/svg">
<path fill-rule="evenodd" clip-rule="evenodd" d="M1410 44.874C1409.17 47.9582 1407.3 49 1404.62 49C1400.52 49 1399 46.2288 1399 43.5577C1399 40.5171 1400.87 38 1404.6 38C1407.36 38 1409.55 39.2393 1409.96 41.7924H1407.87C1407.64 40.4556 1406.57 39.6524 1404.74 39.6524C1402.21 39.6524 1401.09 41.2997 1401.09 43.5013C1401.09 45.7003 1402.21 47.3501 1404.74 47.3501C1406.51 47.3501 1407.48 46.5829 1407.91 44.874H1410Z" fill="#231F20"/>
<path fill-rule="evenodd" clip-rule="evenodd" d="M1415 49H1417V36H1415V49Z" fill="#231F20"/>
<path fill-rule="evenodd" clip-rule="evenodd" d="M1425 37.9862H1427V36H1425V37.9862ZM1425 49H1427V39.5407H1425V49Z" fill="#231F20"/>
<path fill-rule="evenodd" clip-rule="evenodd" d="M1434 38.3659H1435.9V39.9672H1435.94C1436.83 38.4878 1438.4 38 1439.82 38C1442.21 38 1444 39.0976 1444 41.7568V49H1442.1V42.1598C1442.1 40.5982 1441.19 39.7047 1439.16 39.7047C1437.43 39.7047 1435.9 40.7785 1435.9 42.8703V49H1434V38.3659Z" fill="#231F20"/>
<path fill-rule="evenodd" clip-rule="evenodd" d="M1449 37.9862H1451V36H1449V37.9862ZM1449 49H1451V39.5407H1449V49Z" fill="#231F20"/>
<path fill-rule="evenodd" clip-rule="evenodd" d="M1469.23 44.8046C1468.42 47.6253 1466.57 48.5781 1463.94 48.5781C1459.91 48.5781 1458.42 46.0437 1458.42 43.6008C1458.42 40.82 1460.26 38.5179 1463.92 38.5179C1466.64 38.5179 1468.79 39.6513 1469.19 41.9863H1467.14C1466.9 40.7637 1465.86 40.0292 1464.06 40.0292C1461.58 40.0292 1460.47 41.5357 1460.47 43.5492C1460.47 45.5602 1461.58 47.0692 1464.06 47.0692C1465.8 47.0692 1466.75 46.3675 1467.18 44.8046H1469.23Z" fill="#231F20"/>
<path fill-rule="evenodd" clip-rule="evenodd" d="M1475.67 41.7889C1475.92 39.4352 1477.66 38.5153 1480.7 38.5153C1482.78 38.5153 1485.38 39.0034 1485.38 41.1929V46.2617C1485.38 46.8202 1485.65 47.0713 1486.25 47.0713C1486.46 47.0713 1486.74 47.0314 1486.93 46.9962V48.2563C1486.46 48.3267 1485.88 48.3643 1485.42 48.3643C1484.45 48.3643 1483.81 48.1085 1483.67 47.0525C1482.89 48.0217 1481 48.5778 1479.35 48.5778C1475.98 48.5778 1475.22 46.961 1475.22 45.7407C1475.22 44.0159 1476.33 43.1336 1479.58 42.8144L1481.79 42.5962C1482.88 42.4906 1483.56 42.3075 1483.56 41.4627C1483.56 40.1721 1482.2 39.9186 1480.63 39.9186C1478.96 39.9186 1477.55 40.3316 1477.49 41.7889H1475.67ZM1483.56 43.333C1483.26 43.6381 1482.74 43.7648 1481.65 43.8892L1479.46 44.1403C1477.96 44.3233 1477.16 44.6964 1477.16 45.6867C1477.16 46.5644 1478.11 47.1769 1479.52 47.1769C1481.72 47.1769 1483.56 46.0997 1483.56 44.5369V43.333Z" fill="#231F20"/>
<path fill-rule="evenodd" clip-rule="evenodd" d="M1492 49H1494V36H1492V49Z" fill="#231F20"/>
<path fill-rule="evenodd" clip-rule="evenodd" d="M1174 18H1348V16H1174V18Z" fill="#231F20"/>
<path fill-rule="evenodd" clip-rule="evenodd" d="M1535 18H1709V16H1535V18Z" fill="#231F20"/>
<path fill-rule="evenodd" clip-rule="evenodd" d="M1368.27 21.6924C1366.79 23.3644 1364.22 24.479 1362 24.479C1358.01 24.479 1353.77 21.4709 1353.74 13.8225C1353.71 5.95018 1357.9 2.49671 1361.61 2.49671C1364.07 2.49671 1365.85 3.49941 1367.59 5.79841H1368.08C1368.17 4.53695 1368.41 3.24065 1368.86 2.01402C1367.26 0.976483 1364.2 0.195221 1361.78 0.195221C1354.49 0.195221 1348.01 4.13139 1348.05 14.3799C1348.08 21.3938 1352.85 26.7805 1360.9 26.7805C1363.74 26.7805 1366.14 26.1859 1367.97 25.1458C1368.07 24.1083 1368.35 23.0285 1368.73 21.9909L1368.27 21.6924Z" fill="#231F20"/>
<path fill-rule="evenodd" clip-rule="evenodd" d="M1390.89 16.0128C1390.91 20.1729 1390.85 23.0292 1390.65 26.2961C1391.41 26.2215 1392.35 26.112 1393.49 26.112C1394.64 26.112 1395.58 26.2215 1396.34 26.2961C1396.12 23.0292 1396.04 20.1729 1396.03 16.0128L1396.01 10.962C1395.99 6.80436 1396.05 3.94553 1396.25 0.678665C1395.48 0.753308 1394.55 0.862784 1393.4 0.862784C1392.26 0.862784 1391.32 0.753308 1390.56 0.678665C1390.78 3.90821 1390.86 6.76703 1390.87 10.8873C1389.55 10.9246 1388.1 10.962 1385.63 10.962C1383.17 10.962 1381.5 10.9246 1380.32 10.8873C1380.31 6.76703 1380.37 3.90821 1380.56 0.678665C1379.8 0.753308 1378.86 0.862784 1377.72 0.862784C1376.58 0.862784 1375.64 0.753308 1374.88 0.678665C1375.09 3.94553 1375.17 6.80436 1375.19 10.962L1375.21 16.0128C1375.22 20.1729 1375.16 23.0292 1374.96 26.2961C1375.73 26.2215 1376.67 26.112 1377.81 26.112C1378.95 26.112 1379.89 26.2215 1380.65 26.2961C1380.43 23.0292 1380.36 20.1729 1380.34 16.0128L1380.33 13.8954C1382.1 13.8233 1383.87 13.7486 1385.61 13.7486C1387.38 13.7486 1389.11 13.8581 1390.88 13.8954L1390.89 16.0128Z" fill="#231F20"/>
<path fill-rule="evenodd" clip-rule="evenodd" d="M1427.8 16.0128C1427.81 20.1729 1427.76 23.0292 1427.56 26.2961C1428.32 26.2215 1429.26 26.112 1430.4 26.112C1431.55 26.112 1432.49 26.2215 1433.25 26.2961C1433.03 23.0292 1432.95 20.1729 1432.93 16.0128L1432.92 10.962C1432.9 6.80436 1432.96 3.94553 1433.16 0.678665C1432.39 0.753308 1431.46 0.862784 1430.31 0.862784C1429.17 0.862784 1428.23 0.753308 1427.47 0.678665C1427.69 3.94553 1427.76 6.80436 1427.78 10.962L1427.8 16.0128Z" fill="#231F20"/>
<path fill-rule="evenodd" clip-rule="evenodd" d="M1451.96 5.68968C1452.41 4.055 1452.65 3.16427 1453.06 2.01228C1451.73 0.9001 1449.86 0.195969 1447.36 0.195969C1443.23 0.195969 1439.57 3.01747 1439.58 8.14046C1439.61 16.5676 1449.95 15.0847 1449.97 20.6879C1449.98 22.768 1448.63 24.4798 1445.92 24.4798C1443.11 24.4798 1441.51 22.6212 1441.12 20.4665H1440.46C1440.22 22.1385 1439.91 23.4746 1439.47 25.1839C1440.48 26 1442.57 26.7813 1445.06 26.7813C1450.58 26.7813 1454.25 23.3651 1454.23 18.3864C1454.2 9.95925 1443.65 11.3327 1443.63 5.83648C1443.63 4.055 1445.11 2.49746 1447.23 2.49746C1449.35 2.49746 1450.71 3.57231 1451.44 5.68968H1451.96Z" fill="#231F20"/>
<path fill-rule="evenodd" clip-rule="evenodd" d="M1464.77 16.0128C1464.79 20.1729 1464.72 23.0292 1464.53 26.2961C1465.3 26.2215 1466.23 26.112 1467.37 26.112C1468.52 26.112 1469.46 26.2215 1470.22 26.2961C1470 23.0292 1469.92 20.1729 1469.9 16.0128L1469.87 6.7322C1469.87 5.32145 1469.86 3.98037 1469.93 3.46284C1471.32 3.46284 1474.24 3.68677 1476.11 3.94553C1476 3.3882 1475.93 2.87068 1475.93 2.31334C1475.93 1.75352 1476 1.236 1476.1 0.678665C1473.15 0.790629 1471.59 0.862784 1467.28 0.862784C1462.98 0.862784 1461.42 0.790629 1458.27 0.678665C1458.37 1.236 1458.44 1.75352 1458.44 2.31334C1458.44 2.87068 1458.38 3.3882 1458.27 3.94553C1460.35 3.68677 1463.27 3.46284 1464.62 3.46284C1464.73 3.98037 1464.73 5.32145 1464.74 6.7322L1464.77 16.0128Z" fill="#231F20"/>
<path fill-rule="evenodd" clip-rule="evenodd" d="M1482.2 16.0128C1482.21 20.1729 1482.15 23.0292 1481.95 26.2961C1482.72 26.2215 1483.66 26.112 1484.8 26.112C1485.94 26.112 1486.88 26.2215 1487.65 26.2961C1487.43 23.0292 1487.35 20.1729 1487.33 16.0128L1487.31 10.962C1487.3 6.80436 1487.36 3.94553 1487.55 0.678665C1486.79 0.753308 1485.86 0.862784 1484.71 0.862784C1483.57 0.862784 1482.63 0.753308 1481.86 0.678665C1482.08 3.94553 1482.16 6.80436 1482.18 10.962L1482.2 16.0128Z" fill="#231F20"/>
<path fill-rule="evenodd" clip-rule="evenodd" d="M1495.93 8.0673C1495.95 15.6411 1495.46 25.2227 1495.29 26.2976C1495.82 26.1856 1496.37 26.111 1496.89 26.111C1497.41 26.111 1497.97 26.1856 1498.52 26.2976C1498.41 24.9241 1498.3 22.8441 1498.28 16.9025C1498.27 14.1183 1498.26 11.0381 1498.32 8.25142C1503.68 14.2676 1508.77 20.2814 1513.55 26.2976C1513.96 26.1856 1514.41 26.111 1514.9 26.111C1515.39 26.111 1515.84 26.1856 1516.32 26.2976C1516.29 16.4198 1516.27 11.4835 1516.79 0.677658C1516.27 0.789622 1515.75 0.861777 1515.22 0.861777C1514.71 0.861777 1514.18 0.789622 1513.66 0.677658C1513.91 2.34966 1513.95 12.4488 1513.97 18.3531C1508.85 12.4488 1503.86 6.57942 1498.85 0.677658C1498.33 0.789622 1497.81 0.861777 1497.28 0.861777C1496.77 0.861777 1496.25 0.789622 1495.72 0.677658C1495.76 2.45913 1495.91 4.7233 1495.93 8.0673Z" fill="#231F20"/>
<path fill-rule="evenodd" clip-rule="evenodd" d="M1416.05 26.2968C1417.09 26.2222 1418.17 26.1127 1419.21 26.1127C1420.25 26.1127 1421.29 26.2222 1422.33 26.2968C1419.78 22.0994 1417.13 17.8696 1414.89 13.6772C1418.33 12.7442 1420.26 10.4402 1420.25 6.84241C1420.24 4.65289 1419.37 3.01821 1417.97 1.93837C1416.76 1.0128 1415.47 0.67691 1411.97 0.67691C1409.61 0.67691 1408.12 0.863518 1406.87 0.863518C1405.72 0.863518 1404.79 0.751553 1404.02 0.67691C1404.24 3.94627 1404.32 6.8026 1404.34 10.9627L1404.35 16.0135C1404.37 20.1711 1404.31 23.03 1404.11 26.2968C1404.88 26.2222 1405.82 26.1127 1406.96 26.1127C1408.1 26.1127 1409.04 26.2222 1409.8 26.2968C1409.59 23.03 1409.51 20.1711 1409.49 16.0135L1409.48 14.4908H1409.8L1416.05 26.2968ZM1414.94 7.661C1414.96 11.1468 1413.3 12.9681 1410.24 12.9681C1410 12.9681 1409.76 12.9283 1409.48 12.8959C1409.47 9.51214 1409.49 6.17311 1409.55 2.79428C1413.33 2.79428 1414.92 3.27946 1414.94 7.661Z" fill="#231F20"/>
<path fill-rule="evenodd" clip-rule="evenodd" d="M1534.03 0.491302C1533.57 0.565945 1533.16 0.675422 1532.71 0.675422C1532.25 0.675422 1531.84 0.565945 1531.39 0.491302C1528.44 8.9558 1523.28 22.1751 1521.59 26.2978C1522.25 26.2207 1522.77 26.1112 1523.33 26.1112C1523.88 26.1112 1524.4 26.2207 1524.96 26.2978C1525.61 23.7326 1526.63 20.62 1527.56 18.0996C1528.77 18.0622 1533.61 18.0622 1535.11 18.0996C1535.98 20.62 1537.02 23.7699 1537.76 26.2978C1538.73 26.2207 1539.74 26.1112 1540.71 26.1112C1541.68 26.1112 1542.66 26.2207 1543.77 26.2978C1541.11 20.2468 1537.01 8.9558 1534.03 0.491302ZM1528.61 15.278C1528.61 15.278 1530.67 9.4982 1531.41 7.6595C1532.38 10.16 1534.12 15.2706 1534.12 15.2706L1528.61 15.278Z" fill="#231F20"/>
<rect y="16" width="1175" height="2" fill="black"/>
<rect x="1709" y="16" width="1175" height="2" fill="black"/>
</svg>
