<svg width="11" height="18" viewBox="0 0 11 18" fill="none" xmlns="http://www.w3.org/2000/svg">
<rect width="11" height="18" fill="white" fill-opacity="0"/>
<path d="M9.6 9C9 9 7.8 10.2 5.4 10.2C3 10.2 1.8 9 1.2 9C0.5376 9 0 9.5376 0 10.2C0 10.8 0.3408 11.0886 0.6 11.2404C1.311 11.6562 3.6 12.6 3.6 12.6L1.05 15.8628C1.05 15.8628 0.6 16.4238 0.6 16.8C0.6 17.4624 1.1376 18 1.8 18C2.4126 18 2.6904 17.6064 2.6904 17.6064C2.6904 17.6064 5.3958 14.3958 5.4 14.4C5.4042 14.3958 8.1096 17.6064 8.1096 17.6064C8.1096 17.6064 8.3874 18 9 18C9.6624 18 10.2 17.4624 10.2 16.8C10.2 16.4238 9.75 15.8628 9.75 15.8628L7.2 12.6C7.2 12.6 9.489 11.6562 10.2 11.2404C10.4592 11.0886 10.8 10.8 10.8 10.2C10.8 9.5376 10.2624 9 9.6 9Z" fill="white"/>
<path fill-rule="evenodd" clip-rule="evenodd" d="M1.2002 4.2002C1.2002 1.88086 3.08057 0 5.40015 0C7.71924 0 9.6001 1.88086 9.6001 4.2002C9.6001 6.51953 7.71924 8.40039 5.40015 8.40039C3.08057 8.40039 1.2002 6.51953 1.2002 4.2002ZM3.30029 4.19922C3.30029 5.36035 4.24048 6.2998 5.40039 6.2998C6.55957 6.2998 7.50024 5.36035 7.50024 4.19922C7.50024 3.04004 6.55957 2.09961 5.40039 2.09961C4.24048 2.09961 3.30029 3.04004 3.30029 4.19922Z" fill="white"/>
</svg>
