<svg width="66" height="55" viewBox="0 0 66 55" fill="none" xmlns="http://www.w3.org/2000/svg">
<g opacity="0.5">
<path d="M61.6 32.7026C60.7889 32.7026 58.8207 33.3537 58.4481 33.4793L46.8365 37.1568C46.4259 35.4229 45.1132 33.871 43.4786 33.477L25.2069 27.896C24.5747 27.6381 23.9081 27.5051 23.2591 27.5014C23.2181 27.4991 23.1763 27.4984 23.1359 27.4999L23.1469 28.2431L23.0501 27.4999C23.0091 27.4991 22.9673 27.4984 22.9585 27.4999C22.2772 27.5051 21.6113 27.6381 21.0159 27.8819L7.10747 32.7026H0.733333C0.3278 32.7026 0 33.0356 0 33.4458C0 33.8561 0.3278 34.1891 0.733333 34.1891H7.2292C7.30987 34.1891 7.39053 34.1757 7.46607 34.1489L21.5255 29.2755C21.9868 29.0874 22.4723 28.9908 23.0289 28.9864H23.0802C23.0824 28.9864 23.2144 28.9864 23.2173 28.9864C23.7131 28.9901 24.1985 29.0867 24.7214 29.297L43.0973 34.9115C44.6629 35.2891 45.8216 37.2676 45.4373 38.9057C45.0773 40.4412 43.0357 40.8664 41.8477 40.8775L25.7649 38.6552C25.3616 38.5995 24.9942 38.8841 24.9392 39.2907C24.8849 39.6972 25.1658 40.0718 25.5669 40.1276L41.7003 42.3573C41.7333 42.3625 41.767 42.3647 41.8 42.3647C43.7991 42.3647 46.3247 41.5487 46.8637 39.2506C46.9106 39.0484 46.9377 38.8418 46.9546 38.6352C47.0206 38.6337 47.0859 38.6352 47.1519 38.6151L58.8991 34.8944C59.7652 34.6016 61.1769 34.1891 61.6 34.1891C63.2177 34.1891 64.5333 35.5224 64.5333 37.162C64.5333 38.3118 63.2309 39.5925 62.0004 40.216L48.2834 47.2932C48.2167 47.3207 48.1426 47.343 48.0722 47.3616C48.0194 47.3757 48.0099 47.3757 47.9622 47.4017C47.9468 47.4077 47.905 47.4262 47.8896 47.4337C47.7517 47.5013 34.0545 54.1808 27.6672 52.7791L10.4192 49.0703C10.3327 49.0517 10.2432 49.0487 10.1552 49.0629L0.621867 50.5493C0.221467 50.6118 -0.0528 50.9908 0.0088 51.3966C0.0711333 51.8025 0.445867 52.0804 0.845533 52.018L10.2461 50.5523L27.3592 54.2329C28.0551 54.3852 28.8215 54.4543 29.6362 54.4543C36.8595 54.4543 47.9483 49.0569 48.5041 48.7834C48.6317 48.747 48.763 48.7031 48.8803 48.6518H48.8796C48.8994 48.6437 48.9192 48.634 48.9383 48.6243L62.6611 41.5442C64.3229 40.7006 66 39.0202 66 37.162C66 34.7027 64.0266 32.7026 61.6 32.7026Z" fill="black"/>
<path fill-rule="evenodd" clip-rule="evenodd" d="M38.1329 10.2996C38.1329 15.3015 35.3411 16.3513 32.9995 16.3513C30.658 16.3513 27.8662 15.3015 27.8662 10.2996C27.8662 5.97827 32.2457 0.503662 32.4312 0.272217C32.7106 -0.0725098 33.2877 -0.0725098 33.5671 0.272217C33.7534 0.503662 38.1329 5.97827 38.1329 10.2996ZM36.6663 10.2986C36.6663 7.36011 34.1545 3.55835 32.9995 1.96655C31.8453 3.5603 29.3329 7.36499 29.3329 10.2986C29.3329 14.3914 31.4258 14.865 32.9995 14.865C34.5732 14.865 36.6663 14.3914 36.6663 10.2986Z" fill="black"/>
<path fill-rule="evenodd" clip-rule="evenodd" d="M51.3331 23.6775C51.3331 28.6794 48.5413 29.7292 46.1997 29.7292C43.8582 29.7292 41.0664 28.6794 41.0664 23.6775C41.0664 19.3562 45.4459 13.8816 45.6313 13.6501C45.9108 13.3054 46.4879 13.3054 46.7673 13.6501C46.9536 13.8816 51.3331 19.3562 51.3331 23.6775ZM49.8665 23.6765C49.8665 20.738 47.3547 16.9363 46.1997 15.3445C45.0455 16.9382 42.5331 20.7429 42.5331 23.6765C42.5331 27.7693 44.626 28.2429 46.1997 28.2429C47.7734 28.2429 49.8665 27.7693 49.8665 23.6765Z" fill="black"/>
</g>
</svg>
