<?xml version="1.0" encoding="UTF-8"?>
<svg width="38px" height="40px" viewBox="0 0 38 26" version="1.1" xmlns="http://www.w3.org/2000/svg" xmlns:xlink="http://www.w3.org/1999/xlink">
    <!-- Generator: Sketch 49.2 (51160) - http://www.bohemiancoding.com/sketch -->
    <title>treat@2x</title>
    <desc>Created with Sketch.</desc>
    <defs></defs>
    <g id="Page-1" stroke="none" stroke-width="1" fill="none" fill-rule="evenodd">
        <g id="Christina_product_1280" transform="translate(-818.000000, -946.000000)" stroke="#262626">
            <g id="1-screen" transform="translate(-237.000000, 247.000000)">
                <g id="icons" transform="translate(30.000000, 601.000000)">
                    <g id="treat" transform="translate(1018.000000, 92.000000)">
                        <g id="noun_563891_cc" transform="translate(7.428571, 7.431193)">
                            <path d="M24.6262231,9.30963303 C26.7021526,7.99885321 29.0324853,7.19380734 31.4645793,6.95642202 C31.1291405,10.5457177 30.0811287,13.823494 27.6692031,16.4080973 M12.6387476,9.30963303 C10.562818,7.99885321 8.23248532,7.19380734 5.80039139,6.95642202 C6.13583011,10.5457177 7.18384193,13.823494 9.59576759,16.4080973 M0,20.0951835 C2.68649706,17.8348624 6.01409002,16.565367 9.52485323,16.4518349 C12.109589,18.8979358 15.2540117,20.5286697 18.6630137,21.1995413 C11.8246575,25.565367 4.53855186,23.8623853 0,20.0951835 Z M18.6223092,21.1169725 C14.5722114,17.9690367 12.1197652,13.7477064 12.5675147,9.55733945 C12.9440313,6.37844037 14.9792564,3.17889908 18.6223092,0.0412844037 C22.3162427,3.23050459 24.3616438,6.47133028 24.697456,9.70183486 C25.0943249,14.3256881 22.1534247,18.2270642 18.6223092,21.1169725 Z M18.6223092,21.1995413 C22.1127202,20.5080275 25.2469667,18.8256881 27.7502935,16.4518349 C31.2712329,16.5756881 34.5988258,17.8348624 37.2853229,20.0951835 C31.3526419,24.8944954 23.9444227,24.7293578 18.6223092,21.1995413 Z" id="Shape" fill-rule="nonzero"></path>
                        </g>
                    </g>
                </g>
            </g>
        </g>
    </g>
</svg>