<svg width="35" height="50" viewBox="0 0 35 50" fill="none" xmlns="http://www.w3.org/2000/svg">
<g opacity="0.8">
<path fill-rule="evenodd" clip-rule="evenodd" d="M31.7132 32.436C31.3876 32.436 31.1176 32.1742 31.106 31.8414C31.1033 31.7554 30.7666 23.2441 27.0359 20.8043C24.3006 19.015 22.0882 18.2252 21.0127 17.914C20.6898 17.8204 20.5026 17.4795 20.5948 17.1527C20.6871 16.8247 21.0276 16.6381 21.3457 16.729C22.7394 17.1322 24.972 17.9871 27.6951 19.7688C31.9587 22.558 32.3082 31.4231 32.3209 31.7989C32.3326 32.1387 32.0701 32.4236 31.7344 32.4355C31.7275 32.436 31.7201 32.436 31.7132 32.436Z" fill="black"/>
<path fill-rule="evenodd" clip-rule="evenodd" d="M19.0087 49.7461H19.0002C17.2163 49.744 12.6318 48.9784 8.39206 41.98C6.61395 39.0445 5.82804 35.7967 5.8291 32.052H6.96713C6.96607 35.5628 7.77107 38.5993 9.42827 41.3348C13.4586 47.9881 17.7715 48.5128 19.0045 48.5139C20.2374 48.5128 24.5504 47.9881 28.5807 41.3348C30.2575 38.5665 31.1076 35.3655 31.106 31.8203H32.3215C32.323 35.5961 31.413 39.0144 29.6169 41.98C25.3771 48.9784 20.7927 49.744 19.0087 49.7461Z" fill="black"/>
<mask id="mask0" mask-type="alpha" maskUnits="userSpaceOnUse" x="0" y="4" width="20" height="33">
<path fill-rule="evenodd" clip-rule="evenodd" d="M0 4.32617H19.4836V36.0542H0V4.32617Z" fill="white"/>
</mask>
<g mask="url(#mask0)">
<path fill-rule="evenodd" clip-rule="evenodd" d="M5.83043 36.0542C5.75778 36.0542 5.68407 36.0413 5.61248 36.0134C5.37331 35.9198 -0.251613 33.6118 0.00876586 23.3021C0.146114 17.9085 2.31134 12.6575 5.80021 9.25532C7.97657 7.13435 13.7913 5.64887 16.9154 4.85048C17.6737 4.65693 18.4575 4.45639 18.6123 4.38435C18.913 4.24188 19.2779 4.36984 19.4221 4.67252C19.5663 4.97575 19.4502 5.33704 19.1532 5.48758C18.9157 5.60801 18.3864 5.74564 17.2123 6.04564C14.4123 6.7607 8.58642 8.24887 6.64286 10.144C3.37831 13.3263 1.35308 18.2569 1.22422 23.3338C0.985054 32.7822 5.99748 34.8435 6.04839 34.8628C6.3618 34.9849 6.5177 35.3413 6.39786 35.6591C6.30505 35.9042 6.07437 36.0542 5.83043 36.0542Z" fill="black"/>
</g>
<path fill-rule="evenodd" clip-rule="evenodd" d="M6.39242 32.966C6.35742 32.966 6.32136 32.9634 6.2853 32.9564C5.95492 32.8967 5.73484 32.5768 5.7937 32.2418C7.52939 22.3634 20.5738 16.7752 21.1285 16.5424C25.0119 14.8687 27.3224 12.3435 27.8039 9.24238C28.2902 6.11066 26.7937 3.25636 25.9235 2.49131C24.4864 1.22841 20.2763 0.712815 17.0043 1.94185C13.8755 3.11658 13.368 6.34454 13.3484 6.48163C13.2986 6.81712 12.9894 7.04991 12.6595 7.00152C12.3276 6.9526 12.0979 6.64131 12.1451 6.30529C12.1685 6.1397 12.7624 2.22034 16.5822 0.786471C20.403 -0.649013 24.9917 0.0423851 26.7189 1.56013C27.9641 2.65421 29.5507 5.91282 29.0045 9.43378C28.6211 11.9042 27.0249 15.3402 21.5989 17.6779C21.4642 17.7349 8.60855 23.2456 6.99007 32.458C6.93757 32.7564 6.68143 32.966 6.39242 32.966Z" fill="black"/>
<path fill-rule="evenodd" clip-rule="evenodd" d="M31.7788 32.7676C31.6648 32.7676 31.5492 32.7353 31.4469 32.6671C31.1658 32.4805 31.0868 32.0988 31.2708 31.8144C33.8582 27.8015 34.1323 23.3348 32.0848 18.5375C30.5273 14.8896 28.1325 12.3461 27.6499 11.988C27.4325 11.8939 27.2803 11.6757 27.2803 11.4208C27.2803 11.0805 27.5523 10.8047 27.888 10.8047C28.6209 10.8047 30.976 13.7095 32.3871 16.3552C34.5157 20.3445 36.2265 26.3816 32.2874 32.488C32.1713 32.6692 31.9766 32.7676 31.7788 32.7676Z" fill="black"/>
<path fill-rule="evenodd" clip-rule="evenodd" d="M13.4404 27.8945C11.9194 27.8945 10.6823 29.1488 10.6823 30.6908C10.6823 32.2322 11.9194 33.4865 13.4404 33.4865C14.9613 33.4865 16.1985 32.2322 16.1985 30.6908C16.1985 29.1488 14.9613 27.8945 13.4404 27.8945ZM13.4404 34.7186C11.2491 34.7186 9.4668 32.9121 9.4668 30.6906C9.4668 28.4691 11.2491 26.6621 13.4404 26.6621C15.6316 26.6621 17.4139 28.4691 17.4139 30.6906C17.4139 32.9121 15.6316 34.7186 13.4404 34.7186Z" fill="black"/>
<path fill-rule="evenodd" clip-rule="evenodd" d="M13.3997 32.2842C13.3446 32.2842 13.2889 32.2826 13.2327 32.2778C12.127 32.1955 11.4588 31.324 11.3862 31.2246C11.1862 30.9514 11.243 30.5654 11.5119 30.3627C11.7802 30.1606 12.1588 30.2165 12.3603 30.4869C12.372 30.5031 12.7692 31.0127 13.3303 31.0498C13.72 31.0762 14.1406 30.8649 14.5775 30.4219C14.8146 30.181 15.1996 30.181 15.4366 30.4219C15.6742 30.6627 15.6742 31.0525 15.4366 31.2934C14.7875 31.9509 14.1029 32.2842 13.3997 32.2842Z" fill="black"/>
<path fill-rule="evenodd" clip-rule="evenodd" d="M19.3216 43.1924C19.2665 43.1924 19.2108 43.1908 19.1546 43.186C18.0489 43.1037 17.3807 42.2322 17.308 42.1328C17.1081 41.8596 17.1649 41.4736 17.4337 41.2709C17.7021 41.0688 18.0807 41.1247 18.2822 41.3951C18.2939 41.4113 18.6911 41.9209 19.2521 41.958C19.6419 41.9844 20.0624 41.7731 20.4994 41.3301C20.7365 41.0892 21.1215 41.0892 21.3585 41.3301C21.5961 41.5709 21.5961 41.9607 21.3585 42.2016C20.7094 42.8591 20.0248 43.1924 19.3216 43.1924Z" fill="black"/>
<path fill-rule="evenodd" clip-rule="evenodd" d="M24.7958 27.8945C23.2749 27.8945 22.0377 29.1488 22.0377 30.6908C22.0377 32.2322 23.2749 33.4865 24.7958 33.4865C26.3167 33.4865 27.5534 32.2322 27.5534 30.6908C27.5534 29.1488 26.3167 27.8945 24.7958 27.8945ZM24.7958 34.7186C22.6046 34.7186 20.8223 32.9121 20.8223 30.6906C20.8223 28.4691 22.6046 26.6621 24.7958 26.6621C26.9865 26.6621 28.7689 28.4691 28.7689 30.6906C28.7689 32.9121 26.9865 34.7186 24.7958 34.7186Z" fill="black"/>
<path fill-rule="evenodd" clip-rule="evenodd" d="M24.7552 32.2842C24.6995 32.2842 24.6438 32.2826 24.5876 32.2778C23.4825 32.195 22.8143 31.324 22.7416 31.2246C22.5417 30.9514 22.5985 30.5654 22.8673 30.3627C23.1367 30.1606 23.5143 30.2165 23.7153 30.4869C23.7285 30.5047 24.1257 31.0127 24.6852 31.0498C25.0782 31.0713 25.496 30.8638 25.9325 30.4219C26.17 30.181 26.5545 30.181 26.7921 30.4219C27.0297 30.6627 27.0297 31.0525 26.7921 31.2934C26.143 31.9514 25.4584 32.2842 24.7552 32.2842Z" fill="black"/>
</g>
</svg>
