<svg width="23" height="40" viewBox="0 0 23 40" fill="none" xmlns="http://www.w3.org/2000/svg">
<path fill-rule="evenodd" clip-rule="evenodd" d="M0.941345 38.7512H17.5256V16.8415C17.5256 13.9825 15.1783 10.5293 12.2639 10.5293H6.20218C3.28817 10.5293 0.941345 13.9825 0.941345 16.8415V38.7512ZM18.4669 39.6957H0V16.8413C0 13.485 2.70948 9.58398 6.2022 9.58398H12.2639C15.7571 9.58398 18.4669 13.485 18.4669 16.8413V39.6957Z" fill="black"/>
<path fill-rule="evenodd" clip-rule="evenodd" d="M12.8742 10.234H11.9328V4.9651H6.24604V10.234H5.30469V4.01953H12.8742V10.234Z" fill="black"/>
<mask id="mask0" mask-type="alpha" maskUnits="userSpaceOnUse" x="0" y="0" width="23" height="40">
<path fill-rule="evenodd" clip-rule="evenodd" d="M0 39.6957H22.8694V0H0V39.6957Z" fill="white"/>
</mask>
<g mask="url(#mask0)">
<path fill-rule="evenodd" clip-rule="evenodd" d="M0.576172 22.4944H17.8968V21.5488H0.576172V22.4944Z" fill="black"/>
<path fill-rule="evenodd" clip-rule="evenodd" d="M2.83494 30.4337C2.57495 30.4337 2.36426 30.2217 2.36426 29.9611V23.9124C2.36426 23.6514 2.57495 23.4395 2.83494 23.4395C3.09492 23.4395 3.30561 23.6514 3.30561 23.9124V29.9611C3.30561 30.2217 3.09492 30.4337 2.83494 30.4337Z" fill="black"/>
<path fill-rule="evenodd" clip-rule="evenodd" d="M8.38867 4.44158H9.33003V0.47168H8.38867V4.44158Z" fill="black"/>
<path fill-rule="evenodd" clip-rule="evenodd" d="M5.4707 0.944742H20.3439V0H5.4707V0.944742Z" fill="black"/>
<path fill-rule="evenodd" clip-rule="evenodd" d="M20.1779 3.73926C19.6912 4.44895 18.8517 5.7706 18.4718 6.94462C18.3087 7.44812 18.3695 7.90173 18.6517 8.29225C18.9811 8.74751 19.6058 9.06544 20.1709 9.06544C20.7151 9.06544 21.2815 8.78586 21.6133 8.35287C21.9181 7.95658 22.0043 7.46008 21.8622 6.91905C21.571 5.80854 20.6884 4.45926 20.1779 3.73926ZM20.1709 10.0103C19.2965 10.0103 18.4016 9.5538 17.8902 8.8474C17.4339 8.21648 17.3226 7.4371 17.5769 6.65235C18.1753 4.80163 19.7302 2.73813 19.7959 2.65112L20.1635 2.16699L20.5402 2.64411C20.6116 2.73483 22.3054 4.89771 22.7728 6.67833C22.9884 7.50225 22.8414 8.30184 22.3592 8.93029C21.847 9.59627 21.0088 10.0103 20.1709 10.0103Z" fill="black"/>
</g>
</svg>
