<svg width="40" height="40" viewBox="0 0 40 40" fill="none" xmlns="http://www.w3.org/2000/svg">
<path fill-rule="evenodd" clip-rule="evenodd" d="M23.5 0.488281C21.0206 0.488281 19 2.45996 19 4.87891C19 6.69238 20.1357 8.25 21.75 8.91797L19.2812 15.7324C18.8645 15.6562 18.4388 15.6104 18 15.6104C16.2439 15.6104 14.6366 16.2412 13.4062 17.2871L6.6875 11.1592C6.88708 10.7305 7 10.2568 7 9.75684C7 7.87695 5.42712 6.3418 3.5 6.3418C1.57288 6.3418 0 7.87695 0 9.75684C0 11.6367 1.57288 13.1709 3.5 13.1709C4.54517 13.1709 5.48267 12.7109 6.125 11.9971L12.7031 17.9883C11.6442 19.1855 11 20.7383 11 22.4395C11 24.1445 11.6396 25.708 12.7031 26.9062L8.65625 30.8545C7.79468 30.1641 6.69763 29.7412 5.5 29.7412C2.74451 29.7412 0.5 31.9463 0.5 34.6348C0.5 37.3232 2.74451 39.5127 5.5 39.5127C8.25549 39.5127 10.5 37.3232 10.5 34.6348C10.5 33.4658 10.0801 32.3828 9.375 31.54L13.4219 27.5918C14.6511 28.6338 16.248 29.2686 18 29.2686C20.4971 29.2686 22.6823 27.9775 23.9219 26.0527L31.1875 28.9795C31.0648 29.3779 31 29.8076 31 30.2441C31 32.6631 33.0206 34.6348 35.5 34.6348C37.9794 34.6348 40 32.6631 40 30.2441C40 27.8252 37.9794 25.8545 35.5 25.8545C33.828 25.8545 32.3695 26.7539 31.5938 28.0801L24.4062 25.1982C24.791 24.3535 25 23.4219 25 22.4395C25 21.8984 24.9352 21.375 24.8125 20.8691L31.8125 16.3115C32.4128 16.7832 33.1727 17.0732 34 17.0732C35.9271 17.0732 37.5 15.5391 37.5 13.6592C37.5 11.7793 35.9271 10.2441 34 10.2441C32.0729 10.2441 30.5 11.7793 30.5 13.6592C30.5 14.376 30.7194 15.0439 31.1094 15.5947L24.5 19.8936C23.741 18.0596 22.1788 16.6182 20.25 15.9766L22.7031 9.19238C22.9624 9.23828 23.2275 9.26855 23.5 9.26855C25.9794 9.26855 28 7.29785 28 4.87891C28 2.45996 25.9794 0.488281 23.5 0.488281ZM23.5 1.46387C25.439 1.46387 27 2.9873 27 4.87891C27 6.77051 25.439 8.29297 23.5 8.29297C21.561 8.29297 20 6.77051 20 4.87891C20 2.9873 21.561 1.46387 23.5 1.46387ZM6 9.75684C6 8.40332 4.8866 7.31738 3.5 7.31738C2.1134 7.31738 1 8.40332 1 9.75684C1 11.1094 2.1134 12.1953 3.5 12.1953C4.8866 12.1953 6 11.1094 6 9.75684ZM34 11.2197C35.3866 11.2197 36.5 12.3057 36.5 13.6592C36.5 15.0117 35.3866 16.0977 34 16.0977C32.6134 16.0977 31.5 15.0117 31.5 13.6592C31.5 12.3057 32.6134 11.2197 34 11.2197ZM24 22.4395C24 19.2012 21.3196 16.5859 18 16.5859C14.6804 16.5859 12 19.2012 12 22.4395C12 25.6787 14.6804 28.293 18 28.293C21.3196 28.293 24 25.6787 24 22.4395ZM35.5 26.8301C37.4388 26.8301 39 28.3535 39 30.2451C39 32.1367 37.4388 33.6592 35.5 33.6592C33.561 33.6592 32 32.1367 32 30.2451C32 28.3535 33.561 26.8301 35.5 26.8301ZM9.5 34.6348C9.5 32.4736 7.71509 30.7324 5.5 30.7324C3.28491 30.7324 1.5 32.4736 1.5 34.6348C1.5 36.7959 3.28491 38.5225 5.5 38.5225C7.71509 38.5225 9.5 36.7959 9.5 34.6348Z" fill="#262626"/>
</svg>
