<svg width="54" height="45" viewBox="0 0 54 45" fill="none" xmlns="http://www.w3.org/2000/svg">
<path fill-rule="evenodd" clip-rule="evenodd" d="M42.1626 23.9968C46.06 24.6052 49.6421 26.4431 52.4812 29.322C53.0409 29.8904 53.0409 30.8083 52.4812 31.3865C44.4726 39.282 33.3908 38.0232 27.051 32.3357C18.6862 39.4675 7.69601 37.6824 1.62094 31.3865C1.06125 30.8083 1.06125 29.8904 1.62094 29.322C4.46005 26.4431 8.04208 24.6052 11.9395 24.0066C9.61935 20.7869 8.36765 16.9167 8.36765 12.8494C8.36765 12.0447 9.00876 11.3943 9.80246 11.3943C12.9876 11.3943 16.0811 12.2205 18.839 13.7791C19.8871 10.8787 22.1054 7.72046 26.1657 4.45874C26.6847 4.03589 27.4276 4.03589 27.9465 4.45874C31.671 7.4519 34.1133 10.5789 35.2734 13.7791C38.0412 12.2205 41.1246 11.3943 44.3199 11.3943C45.1137 11.3943 45.7547 12.0447 45.7547 12.8494C45.7547 17.0095 44.4115 20.8689 42.1626 23.9968ZM42.8037 14.3669C40.3716 14.6042 38.0412 15.4089 35.9653 16.7205C36.4334 20.9519 34.7646 24.698 31.6914 28.1765C37.6953 26.3083 42.1931 20.9001 42.8037 14.3669ZM11.2983 14.3669C13.7304 14.6042 16.0608 15.3992 18.1367 16.7097C17.5362 21.241 19.5511 24.8738 22.4716 28.2078C15.9997 26.1326 12.0615 20.8074 11.2983 14.3669ZM14.2904 26.7009C10.7795 26.8142 7.452 28.0837 4.76547 30.3445C9.30405 34.1111 16.5902 35.8142 23.4284 31.449C20.0195 30.7781 16.8751 29.1472 14.2904 26.7009ZM27.051 28.5486C23.0008 25.4001 20.5484 21.1785 20.9962 16.988C21.3727 13.8093 23.4079 10.6101 27.051 7.47241C30.7448 10.6619 32.7903 13.9021 33.1261 17.1326C33.5229 21.7566 30.582 25.658 27.051 28.5486ZM39.7917 26.7009C37.2883 29.075 34.154 30.7576 30.6637 31.449C35.9858 34.9783 43.394 35.1433 49.3268 30.3445C46.6402 28.0837 43.3126 26.825 39.7917 26.7009Z" fill="black"/>
<path d="M52.4812 29.322L53.1937 28.6204L53.1932 28.6199L52.4812 29.322ZM42.1626 23.9968L41.3506 23.4131L40.401 24.7339L42.0083 24.9849L42.1626 23.9968ZM52.4812 31.3865L53.1832 32.0986L53.1915 32.0904L53.1996 32.082L52.4812 31.3865ZM27.051 32.3357L27.7188 31.5913L27.0677 31.0073L26.4022 31.5747L27.051 32.3357ZM1.62094 31.3865L2.34056 30.6921L2.33941 30.6909L1.62094 31.3865ZM1.62094 29.322L0.90893 28.6199L0.908423 28.6204L1.62094 29.322ZM11.9395 24.0066L12.0914 24.995L13.7057 24.747L12.7508 23.422L11.9395 24.0066ZM18.839 13.7791L18.3469 14.6496L19.3772 15.2319L19.7794 14.1189L18.839 13.7791ZM26.1657 4.45874L26.792 5.23836L26.7974 5.23396L26.1657 4.45874ZM27.9465 4.45874L27.3148 5.23397L27.3201 5.23822L27.9465 4.45874ZM35.2734 13.7791L34.3333 14.1199L34.7356 15.2296L35.7641 14.6504L35.2734 13.7791ZM35.9653 16.7205L35.4312 15.875L34.9026 16.209L34.9714 16.8304L35.9653 16.7205ZM42.8037 14.3669L43.7993 14.46L43.912 13.2541L42.7066 13.3717L42.8037 14.3669ZM31.6914 28.1765L30.942 27.5144L28.575 30.1935L31.9885 29.1314L31.6914 28.1765ZM18.1367 16.7097L19.128 16.8411L19.2122 16.2061L18.6705 15.8641L18.1367 16.7097ZM11.2983 14.3669L11.3954 13.3717L10.1591 13.251L10.3053 14.4846L11.2983 14.3669ZM22.4716 28.2078L22.1663 29.16L25.5996 30.2609L23.2239 27.5488L22.4716 28.2078ZM4.76547 30.3445L4.1216 29.5793L3.20603 30.3498L4.12684 31.114L4.76547 30.3445ZM14.2904 26.7009L14.9778 25.9746L14.6749 25.688L14.2581 25.7014L14.2904 26.7009ZM23.4284 31.449L23.9665 32.2919L26.0693 30.9495L23.6215 30.4678L23.4284 31.449ZM20.9962 16.988L20.0031 16.8704L20.0018 16.8818L20.9962 16.988ZM27.051 28.5486L26.4373 29.3381L27.0671 29.8277L27.6844 29.3224L27.051 28.5486ZM27.051 7.47241L27.7045 6.71552L27.0518 6.15193L26.3984 6.71471L27.051 7.47241ZM33.1261 17.1326L34.1224 17.0471L34.1216 17.0381L34.1207 17.0292L33.1261 17.1326ZM30.6637 31.449L30.4694 30.468L28.0867 30.94L30.111 32.2824L30.6637 31.449ZM39.7917 26.7009L39.8269 25.7015L39.4079 25.6868L39.1036 25.9753L39.7917 26.7009ZM49.3268 30.3445L49.9556 31.122L50.898 30.3597L49.9706 29.5793L49.3268 30.3445ZM53.1932 28.6199C50.2058 25.5906 46.4291 23.6507 42.3168 23.0088L42.0083 24.9849C45.691 25.5597 49.0783 27.2957 51.7692 30.0242L53.1932 28.6199ZM53.1996 32.082C54.1315 31.1195 54.1399 29.5813 53.1937 28.6204L51.7687 30.0237C51.9418 30.1995 51.9502 30.4972 51.7627 30.6909L53.1996 32.082ZM26.3832 33.0801C33.0721 39.0807 44.7573 40.4056 53.1832 32.0986L51.7791 30.6744C44.1879 38.1584 33.7096 36.9657 27.7188 31.5913L26.3832 33.0801ZM0.901327 32.0808C7.3094 38.7219 18.8968 40.6021 27.6998 33.0967L26.4022 31.5747C18.4757 38.3329 8.08263 36.6429 2.34056 30.6921L0.901327 32.0808ZM0.908423 28.6204C-0.0378094 29.5813 -0.0293643 31.1195 0.902474 32.082L2.33941 30.6909C2.15186 30.4972 2.16031 30.1995 2.33346 30.0237L0.908423 28.6204ZM11.7877 23.0182C7.67362 23.6501 3.89626 25.5906 0.90893 28.6199L2.33295 30.0242C5.02384 27.2956 8.41054 25.5604 12.0914 24.995L11.7877 23.0182ZM7.36765 12.8494C7.36765 17.1243 8.68405 21.1994 11.1282 24.5912L12.7508 23.422C10.5547 20.3743 9.36765 16.7092 9.36765 12.8494H7.36765ZM9.80246 10.3943C8.4432 10.3943 7.36765 11.5058 7.36765 12.8494H9.36765C9.36765 12.5836 9.57432 12.3943 9.80246 12.3943V10.3943ZM19.331 12.9085C16.4249 11.2661 13.1622 10.3943 9.80246 10.3943V12.3943C12.8131 12.3943 15.7373 13.1748 18.3469 14.6496L19.331 12.9085ZM25.5395 3.67914C21.3733 7.02592 19.0234 10.3262 17.8985 13.4392L19.7794 14.1189C20.7507 11.4311 22.8376 8.415 26.792 5.23835L25.5395 3.67914ZM28.5782 3.68353C27.6915 2.96096 26.4208 2.96096 25.534 3.68353L26.7974 5.23396C26.9486 5.11082 27.1637 5.11082 27.3148 5.23396L28.5782 3.68353ZM36.2135 13.4382C34.9716 10.0124 32.3882 6.74539 28.5729 3.67926L27.3201 5.23822C30.9538 8.15842 33.2549 11.1453 34.3333 14.1199L36.2135 13.4382ZM44.3199 10.3943C40.9495 10.3943 37.6975 11.2664 34.7827 12.9077L35.7641 14.6504C38.385 13.1746 41.2997 12.3943 44.3199 12.3943V10.3943ZM46.7547 12.8494C46.7547 11.5058 45.6794 10.3943 44.3199 10.3943V12.3943C44.5481 12.3943 44.7547 12.5835 44.7547 12.8494H46.7547ZM42.9745 24.5806C45.3407 21.2895 46.7547 17.2274 46.7547 12.8494H44.7547C44.7547 16.7916 43.4823 20.4483 41.3506 23.4131L42.9745 24.5806ZM36.4994 17.5659C38.445 16.3367 40.6259 15.5842 42.9008 15.3622L42.7066 13.3717C40.1172 13.6243 37.6375 14.4811 35.4312 15.875L36.4994 17.5659ZM32.4408 28.8386C35.6324 25.2261 37.4682 21.2106 36.9592 16.6105L34.9714 16.8304C35.3987 20.6932 33.8968 24.1699 30.942 27.5144L32.4408 28.8386ZM41.808 14.2739C41.2351 20.4035 37.0143 25.473 31.3943 27.2217L31.9885 29.1314C38.3763 27.1437 43.151 21.3968 43.7993 14.46L41.808 14.2739ZM18.6705 15.8641C16.4621 14.47 13.9822 13.6241 11.3954 13.3717L11.2012 15.3622C13.4787 15.5844 15.6594 16.3284 17.6029 17.5553L18.6705 15.8641ZM23.2239 27.5488C20.3821 24.3048 18.583 20.9539 19.128 16.8411L17.1454 16.5783C16.4894 21.528 18.7202 25.4428 21.7194 28.8667L23.2239 27.5488ZM10.3053 14.4846C11.1104 21.2794 15.2895 26.955 22.1663 29.16L22.777 27.2555C16.7099 25.3101 13.0126 20.3354 12.2914 14.2493L10.3053 14.4846ZM5.40934 31.1096C7.92325 28.9941 11.0351 27.8065 14.3226 27.7004L14.2581 25.7014C10.524 25.8219 6.98074 27.1733 4.1216 29.5793L5.40934 31.1096ZM22.8904 30.6061C16.4799 34.6982 9.66767 33.1133 5.4041 29.575L4.12684 31.114C8.94042 35.1088 16.7005 36.9302 23.9665 32.2919L22.8904 30.6061ZM13.603 27.4272C16.3221 30.0007 19.6369 31.722 23.2353 32.4302L23.6215 30.4678C20.4021 29.8342 17.4281 28.2937 14.9778 25.9746L13.603 27.4272ZM20.0018 16.8818C19.5035 21.5452 22.2344 26.0709 26.4373 29.3381L27.6647 27.7591C23.7673 24.7294 21.5933 20.8117 21.9905 17.0943L20.0018 16.8818ZM26.3984 6.71471C22.6585 9.93581 20.4208 13.3439 20.0031 16.8704L21.9892 17.1056C22.3245 14.2748 24.1574 11.2844 27.7036 8.23012L26.3984 6.71471ZM34.1207 17.0292C33.7478 13.442 31.4947 9.98811 27.7045 6.71552L26.3975 8.2293C29.995 11.3356 31.8327 14.3622 32.1314 17.236L34.1207 17.0292ZM27.6844 29.3224C31.2974 26.3646 34.5623 22.1732 34.1224 17.0471L32.1297 17.2181C32.4835 21.34 29.8666 24.9513 26.4175 27.7748L27.6844 29.3224ZM30.858 32.4299C34.5415 31.7002 37.8451 29.9251 40.4798 27.4265L39.1036 25.9753C36.7315 28.2248 33.7665 29.8149 30.4694 30.468L30.858 32.4299ZM48.6979 29.567C43.1189 34.0796 36.1903 33.914 31.2163 30.6156L30.111 32.2824C35.7813 36.0426 43.6691 36.207 49.9556 31.122L48.6979 29.567ZM39.7565 27.7003C43.0586 27.8166 46.1709 28.9957 48.6829 31.1096L49.9706 29.5793C47.1096 27.1718 43.5666 25.8333 39.8269 25.7015L39.7565 27.7003Z" fill="#E3E6FE"/>
</svg>
