<svg width="49" height="70" viewBox="0 0 49 70" fill="none" xmlns="http://www.w3.org/2000/svg">
<g opacity="0.5">
<path fill-rule="evenodd" clip-rule="evenodd" d="M44.3665 45.2312C43.9039 45.2312 43.5205 44.8637 43.5039 44.3967C43.5001 44.2759 43.0218 32.3304 37.7219 28.9061C33.836 26.3949 30.693 25.2865 29.1652 24.8496C28.7064 24.7183 28.4404 24.2399 28.5715 23.7811C28.7026 23.3208 29.1863 23.059 29.6383 23.1865C31.6181 23.7524 34.7898 24.9522 38.6583 27.4528C44.7153 31.3675 45.2118 43.8096 45.2299 44.3371C45.2464 44.8139 44.8735 45.2139 44.3966 45.2305C44.3869 45.2312 44.3763 45.2312 44.3665 45.2312Z" fill="black"/>
<path fill-rule="evenodd" clip-rule="evenodd" d="M26.5607 70.0001H26.5488C24.047 69.997 17.6175 68.9162 11.6715 59.0358C9.17785 54.8915 8.07566 50.3062 8.07715 45.0195H9.67317C9.67168 49.976 10.8006 54.263 13.1248 58.125C18.777 67.518 24.8256 68.2589 26.5548 68.2604C28.2839 68.2589 34.3326 67.518 39.9848 58.125C42.3364 54.2167 43.5286 49.6974 43.5264 44.6924H45.231C45.2332 50.0231 43.957 54.849 41.438 59.0358C35.492 68.9162 29.0626 69.997 26.5607 70.0001Z" fill="black"/>
<mask id="mask0" mask-type="alpha" maskUnits="userSpaceOnUse" x="0" y="6" width="28" height="45">
<path fill-rule="evenodd" clip-rule="evenodd" d="M0 6.31445H27.2689V50.8021H0V6.31445Z" fill="white"/>
</mask>
<g mask="url(#mask0)">
<path fill-rule="evenodd" clip-rule="evenodd" d="M8.16018 50.8021C8.0585 50.8021 7.95533 50.784 7.85514 50.7448C7.5204 50.6136 -0.352153 47.3774 0.0122686 32.9216C0.204499 25.359 3.23492 17.9962 8.11788 13.2259C11.1639 10.252 19.3021 8.16908 23.6745 7.04961C24.7358 6.77823 25.8328 6.49705 26.0495 6.39603C26.4703 6.19626 26.981 6.37568 27.1829 6.80009C27.3847 7.22526 27.2222 7.73185 26.8066 7.94292C26.4741 8.11178 25.7333 8.30477 24.0901 8.72541C20.1713 9.72803 12.0174 11.8147 9.29724 14.472C4.72823 18.934 1.89376 25.8475 1.7134 32.9661C1.37867 46.2142 8.39398 49.1044 8.46523 49.1316C8.90387 49.3027 9.12208 49.8025 8.95434 50.248C8.82445 50.5918 8.50159 50.8021 8.16018 50.8021Z" fill="black"/>
</g>
<path fill-rule="evenodd" clip-rule="evenodd" d="M8.93344 46.3077C8.88416 46.3077 8.8334 46.3039 8.78263 46.2941C8.31752 46.2103 8.00769 45.7609 8.09056 45.2904C10.5341 31.414 28.8983 23.5642 29.6792 23.2372C35.1464 20.8862 38.3992 17.339 39.0771 12.9829C39.7617 8.5837 37.6549 4.57424 36.4297 3.49957C34.4065 1.72555 28.4795 1.0013 23.8731 2.72773C19.4683 4.37789 18.7539 8.91223 18.7262 9.10481C18.6561 9.57606 18.2208 9.90307 17.7564 9.8351C17.2891 9.76638 16.9658 9.32911 17.0323 8.85709C17.0651 8.62449 17.9013 3.11893 23.2788 1.10476C28.6579 -0.911674 35.118 0.0595388 37.5496 2.19152C39.3026 3.7284 41.5363 8.30578 40.7673 13.2517C40.2276 16.722 37.9804 21.5486 30.3414 24.8323C30.1518 24.9123 12.0534 32.6533 9.77483 45.594C9.70092 46.0132 9.34032 46.3077 8.93344 46.3077Z" fill="black"/>
<path fill-rule="evenodd" clip-rule="evenodd" d="M44.4743 45.7695C44.3161 45.7695 44.1556 45.7244 44.0136 45.629C43.6234 45.3682 43.5138 44.8348 43.7692 44.4374C47.3603 38.8295 47.7409 32.5875 44.899 25.8834C42.7373 20.7857 39.4133 17.2312 38.7435 16.7308C38.4417 16.5993 38.2305 16.2943 38.2305 15.9382C38.2305 15.4626 38.6081 15.0771 39.074 15.0771C40.0912 15.0771 43.3599 19.1365 45.3186 22.8338C48.273 28.4086 50.6475 36.8452 45.1802 45.3788C45.019 45.632 44.7489 45.7695 44.4743 45.7695Z" fill="black"/>
<path fill-rule="evenodd" clip-rule="evenodd" d="M18.853 45.5381C18.7693 45.5381 18.6848 45.5357 18.5995 45.5286C16.9212 45.4078 15.907 44.1281 15.7967 43.982C15.4933 43.581 15.5794 43.0142 15.9875 42.7165C16.3948 42.4197 16.9695 42.5018 17.2754 42.8989C17.2931 42.9226 17.896 43.671 18.7476 43.7255C19.3392 43.7642 19.9775 43.4539 20.6408 42.8034C21.0006 42.4497 21.585 42.4497 21.9448 42.8034C22.3054 43.157 22.3054 43.7294 21.9448 44.0831C20.9595 45.0486 19.9204 45.5381 18.853 45.5381Z" fill="black"/>
<path fill-rule="evenodd" clip-rule="evenodd" d="M26.5475 59.6152C26.4359 59.6152 26.3232 59.6121 26.2095 59.6026C23.9718 59.4416 22.6195 57.7352 22.4725 57.5405C22.0678 57.0058 22.1827 56.25 22.7268 55.8532C23.2699 55.4574 24.0362 55.5668 24.444 56.0963C24.4676 56.1279 25.2715 57.1258 26.407 57.1984C27.1958 57.25 28.0469 56.8363 28.9312 55.9689C29.411 55.4974 30.1901 55.4974 30.6699 55.9689C31.1507 56.4405 31.1507 57.2037 30.6699 57.6752C29.3562 58.9626 27.9707 59.6152 26.5475 59.6152Z" fill="black"/>
<path fill-rule="evenodd" clip-rule="evenodd" d="M35.0073 45.5381C34.9228 45.5381 34.8383 45.5357 34.753 45.5286C33.0755 45.407 32.0613 44.1281 31.951 43.982C31.6476 43.581 31.7337 43.0142 32.1418 42.7165C32.5507 42.4197 33.1238 42.5018 33.4289 42.8989C33.449 42.9249 34.0519 43.671 34.9011 43.7255C35.4975 43.757 36.1318 43.4523 36.7943 42.8034C37.1549 42.4497 37.7385 42.4497 38.0991 42.8034C38.4597 43.157 38.4597 43.7294 38.0991 44.0831C37.1138 45.0494 36.0747 45.5381 35.0073 45.5381Z" fill="black"/>
</g>
</svg>
