<svg width="75" height="75" viewBox="0 0 75 75" fill="none" xmlns="http://www.w3.org/2000/svg">
<path fill-rule="evenodd" clip-rule="evenodd" d="M17.6516 36.375C17.9951 36.7764 26.1924 46.1748 36.6111 46.1748C47.0122 46.1748 55.2095 36.7764 55.553 36.375C56.0364 35.8135 56.0364 34.9814 55.553 34.4209C55.2095 34.0195 47.0122 24.6211 36.6111 24.6211C26.1924 24.6211 17.9951 34.0195 17.6516 34.4209C17.1682 34.9824 17.1682 35.8145 17.6516 36.375ZM36.6111 43.1748C29.4246 43.1748 23.1528 37.6807 20.8567 35.3965C23.1477 33.1113 29.4033 27.6211 36.6111 27.6211C43.7837 27.6211 50.0525 33.1162 52.3479 35.3994C50.0576 37.6846 43.8049 43.1748 36.6111 43.1748Z" fill="black"/>
<path d="M17.6516 36.375L18.4114 35.7248L18.4089 35.7219L17.6516 36.375ZM55.553 36.375L54.7951 35.7226L54.7932 35.7248L55.553 36.375ZM55.553 34.4209L54.7932 35.0711L54.7957 35.074L55.553 34.4209ZM17.6516 34.4209L18.4095 35.0733L18.4114 35.0711L17.6516 34.4209ZM20.8567 35.3965L20.1505 34.6885L19.4397 35.3974L20.1514 36.1054L20.8567 35.3965ZM52.3479 35.3994L53.0542 36.1073L53.7648 35.3983L53.0531 34.6904L52.3479 35.3994ZM36.6111 45.1748C31.6952 45.1748 27.2444 42.9517 23.9304 40.6089C20.6274 38.2738 18.5527 35.8899 18.4114 35.7248L16.8919 37.0252C17.094 37.2614 19.2898 39.7775 22.7759 42.242C26.2511 44.6987 31.1083 47.1748 36.6111 47.1748V45.1748ZM54.7932 35.7248C54.6518 35.89 52.5771 38.2739 49.2761 40.609C45.9641 42.952 41.5178 45.1748 36.6111 45.1748V47.1748C42.1055 47.1748 46.9584 44.6984 50.4311 42.2418C53.915 39.7773 56.1106 37.2614 56.3127 37.0252L54.7932 35.7248ZM54.7957 35.074C54.9552 35.2589 54.9559 35.5358 54.7951 35.7226L56.3108 37.0274C57.1168 36.0912 57.1176 34.704 56.3103 33.7678L54.7957 35.074ZM36.6111 25.6211C41.5178 25.6211 45.9641 27.8439 49.2761 30.1869C52.5771 32.522 54.6518 34.9059 54.7932 35.0711L56.3127 33.7707C56.1106 33.5345 53.915 31.0186 50.4311 28.5541C46.9584 26.0975 42.1055 23.6211 36.6111 23.6211V25.6211ZM18.4114 35.0711C18.5527 34.906 20.6274 32.5221 23.9304 30.187C27.2444 27.8442 31.6952 25.6211 36.6111 25.6211V23.6211C31.1083 23.6211 26.2511 26.0972 22.7759 28.5539C19.2898 31.0184 17.094 33.5345 16.8919 33.7707L18.4114 35.0711ZM18.4089 35.7219C18.2494 35.537 18.2486 35.2601 18.4095 35.0733L16.8938 33.7685C16.0878 34.7047 16.087 36.0919 16.8943 37.0281L18.4089 35.7219ZM20.1514 36.1054C21.3328 37.2806 23.5382 39.284 26.3839 40.9987C29.2229 42.7095 32.7686 44.1748 36.6111 44.1748V42.1748C33.267 42.1748 30.0836 40.8931 27.4161 39.2857C24.7552 37.6823 22.6767 35.7965 21.5619 34.6875L20.1514 36.1054ZM36.6111 26.6211C32.7585 26.6211 29.2117 28.085 26.3739 29.7954C23.5298 31.5095 21.3295 33.5125 20.1505 34.6885L21.5629 36.1045C22.6749 34.9953 24.7479 33.1106 27.4063 31.5083C30.071 29.9023 33.2559 28.6211 36.6111 28.6211V26.6211ZM53.0531 34.6904C51.8723 33.5159 49.6679 31.5126 46.8249 29.7978C43.9887 28.087 40.447 26.6211 36.6111 26.6211V28.6211C39.9478 28.6211 43.1268 29.9028 45.7919 31.5103C48.4504 33.1139 50.5281 34.9997 51.6427 36.1084L53.0531 34.6904ZM36.6111 44.1748C40.457 44.1748 43.9999 42.7106 46.8349 41.0003C49.6763 39.2862 51.8757 37.2832 53.0542 36.1073L51.6416 34.6915C50.5298 35.8008 48.4578 37.6855 45.8018 39.2878C43.1394 40.8939 39.959 42.1748 36.6111 42.1748V44.1748Z" fill="white"/>
<path fill-rule="evenodd" clip-rule="evenodd" d="M31.0137 35.3975C31.0137 38.4795 33.5208 40.9863 36.6021 40.9863C39.6833 40.9863 42.1904 38.4795 42.1904 35.3975C42.1904 32.3154 39.6833 29.8096 36.6021 29.8096C33.5208 29.8096 31.0137 32.3154 31.0137 35.3975ZM34.0137 35.3984C34.0137 33.9717 35.1746 32.8096 36.6021 32.8096C38.0295 32.8096 39.1904 33.9717 39.1904 35.3984C39.1904 36.8252 38.0295 37.9863 36.6021 37.9863C35.1746 37.9863 34.0137 36.8252 34.0137 35.3984Z" fill="black"/>
<path d="M36.6021 39.9863C34.0731 39.9863 32.0137 37.9272 32.0137 35.3975H30.0137C30.0137 39.0317 32.9684 41.9863 36.6021 41.9863V39.9863ZM41.1904 35.3975C41.1904 37.9272 39.131 39.9863 36.6021 39.9863V41.9863C40.2357 41.9863 43.1904 39.0317 43.1904 35.3975H41.1904ZM36.6021 30.8096C39.1313 30.8096 41.1904 32.8679 41.1904 35.3975H43.1904C43.1904 31.7629 40.2354 28.8096 36.6021 28.8096V30.8096ZM32.0137 35.3975C32.0137 32.8679 34.0728 30.8096 36.6021 30.8096V28.8096C32.9687 28.8096 30.0137 31.7629 30.0137 35.3975H32.0137ZM36.6021 31.8096C34.6218 31.8096 33.0137 33.4198 33.0137 35.3984H35.0137C35.0137 34.5235 35.7273 33.8096 36.6021 33.8096V31.8096ZM40.1904 35.3984C40.1904 33.4198 38.5823 31.8096 36.6021 31.8096V33.8096C37.4768 33.8096 38.1904 34.5235 38.1904 35.3984H40.1904ZM36.6021 38.9863C38.5818 38.9863 40.1904 37.3775 40.1904 35.3984H38.1904C38.1904 36.2728 37.4773 36.9863 36.6021 36.9863V38.9863ZM33.0137 35.3984C33.0137 37.3775 34.6223 38.9863 36.6021 38.9863V36.9863C35.7268 36.9863 35.0137 36.2728 35.0137 35.3984H33.0137Z" fill="white"/>
</svg>
