<?xml version="1.0" encoding="UTF-8"?>
<svg width="49px" height="40px" viewBox="0 0 49 25" version="1.1" xmlns="http://www.w3.org/2000/svg" xmlns:xlink="http://www.w3.org/1999/xlink">
    <!-- Generator: Sketch 49.2 (51160) - http://www.bohemiancoding.com/sketch -->
    <title>review</title>
    <desc>Created with Sketch.</desc>
    <defs></defs>
    <g id="Page-1" stroke="none" stroke-width="1" fill="none" fill-rule="evenodd">
        <g id="Christina_product_1280" transform="translate(-1019.000000, -950.000000)" stroke="#262626">
            <g id="1-screen" transform="translate(-237.000000, 247.000000)">
                <g id="icons" transform="translate(30.000000, 601.000000)">
                    <g id="review" transform="translate(1214.000000, 80.000000)">
                        <g id="noun_1624001_cc">
                            <g id="Group" fill-rule="nonzero">
                                <g transform="translate(12.000000, 22.500000)" id="Shape">
                                    <path d="M0.959345925,12.1442024 C4.40704946,15.5732102 13.8241742,23.8235045 24.6148815,23.8235045 C35.4165862,23.8235045 44.8051176,15.5798087 48.2440231,12.1486013 C44.7974193,8.7195935 35.3846935,0.469299188 24.6148815,0.469299188 C13.7922815,0.469299413 4.39935139,8.712995 0.959345925,12.1442024 Z"></path>
                                    <path d="M24.6016845,8.25989983 C22.4582795,8.25989983 20.7151824,10.004097 20.7151824,12.146402 C20.7151824,14.2887069 22.4582798,16.0329041 24.6016845,16.0329041 C26.7450892,16.0329041 28.4881866,14.2887069 28.4881866,12.146402 C28.4881866,10.004097 26.7450895,8.25989983 24.6016845,8.25989983 Z"></path>
                                </g>
                            </g>
                        </g>
                    </g>
                </g>
            </g>
        </g>
    </g>
</svg>