<svg width="57" height="57" viewBox="0 0 57 57" fill="none" xmlns="http://www.w3.org/2000/svg">
<g opacity="0.5">
<path fill-rule="evenodd" clip-rule="evenodd" d="M41.3725 7.53223C42.9538 10.8507 43.8442 14.5645 43.8442 18.4893C43.8442 32.561 32.4881 43.9705 18.465 43.9705C14.5577 43.9705 10.8609 43.078 7.55762 41.4915C11.6409 50.0562 20.3439 55.9872 30.4366 55.9872C44.4595 55.9872 55.816 44.5775 55.816 30.5054C55.816 20.3725 49.9076 11.6352 41.3725 7.53223ZM43.2745 9.6543C46.3729 11.5774 49.0142 14.1745 51.0014 17.2711C53.5337 21.2167 54.8721 25.793 54.8721 30.5057C54.8721 37.0597 52.3311 43.2207 47.7175 47.854C43.1029 52.4881 36.9659 55.0401 30.4366 55.0401C25.7425 55.0401 21.1844 53.6966 17.2546 51.1552C14.1708 49.1605 11.585 46.5097 9.67035 43.4004C12.483 44.4089 15.4305 44.9182 18.465 44.9182C32.9794 44.9182 44.7881 33.0625 44.7881 18.4896C44.7881 15.4411 44.2798 12.4803 43.2745 9.6543Z" fill="black"/>
<path d="M41.3725 7.53223L41.535 7.19425L40.5765 6.73348L41.034 7.69355L41.3725 7.53223ZM7.55762 41.4915L7.71997 41.1535L6.76157 40.6932L7.21912 41.6529L7.55762 41.4915ZM51.0014 17.2711L50.6858 17.4736L50.6858 17.4736L51.0014 17.2711ZM47.7175 47.854L47.9833 48.1186L47.9833 48.1186L47.7175 47.854ZM17.2546 51.1552L17.0509 51.4701L17.0509 51.4701L17.2546 51.1552ZM9.67035 43.4004L9.79692 43.0474L8.79033 42.6865L9.35104 43.5971L9.67035 43.4004ZM41.034 7.69355C42.5919 10.963 43.4692 14.6219 43.4692 18.4893H44.2192C44.2192 14.5072 43.3157 10.7384 41.711 7.37091L41.034 7.69355ZM43.4692 18.4893C43.4692 32.3554 32.2795 43.5955 18.465 43.5955V44.3455C32.6967 44.3455 44.2192 32.7666 44.2192 18.4893H43.4692ZM18.465 43.5955C14.6154 43.5955 10.974 42.7163 7.71997 41.1535L7.39527 41.8295C10.7478 43.4397 14.5 44.3455 18.465 44.3455V43.5955ZM7.21912 41.6529C11.3617 50.342 20.1928 56.3622 30.4366 56.3622V55.6122C20.495 55.6122 11.92 49.7703 7.89612 41.3301L7.21912 41.6529ZM30.4366 56.3622C44.6681 56.3622 56.191 44.7831 56.191 30.5054H55.441C55.441 44.3719 44.2509 55.6122 30.4366 55.6122V56.3622ZM56.191 30.5054C56.191 20.223 50.195 11.3573 41.535 7.19425L41.21 7.8702C49.6202 11.9131 55.441 20.5221 55.441 30.5054H56.191ZM43.0768 9.97291C46.1277 11.8666 48.7287 14.424 50.6858 17.4736L51.317 17.0685C49.2996 13.925 46.6181 11.2883 43.4723 9.33568L43.0768 9.97291ZM50.6858 17.4736C53.1791 21.3585 54.4971 25.8644 54.4971 30.5057H55.2471C55.2471 25.7215 53.8883 21.075 51.317 17.0685L50.6858 17.4736ZM54.4971 30.5057C54.4971 36.9607 51.9952 43.0266 47.4518 47.5894L47.9833 48.1186C52.667 43.4148 55.2471 37.1586 55.2471 30.5057H54.4971ZM47.4518 47.5894C42.9074 52.1529 36.8659 54.6651 30.4366 54.6651V55.4151C37.0658 55.4151 43.2984 52.8232 47.9833 48.1186L47.4518 47.5894ZM30.4366 54.6651C25.8146 54.6651 21.3272 53.3424 17.4582 50.8403L17.0509 51.4701C21.0416 54.0509 25.6705 55.4151 30.4366 55.4151V54.6651ZM17.4582 50.8404C14.4215 48.876 11.8751 46.2657 9.98966 43.2038L9.35104 43.5971C11.2949 46.7537 13.9202 49.4449 17.0509 51.4701L17.4582 50.8404ZM9.54378 43.7534C12.3976 44.7767 15.3879 45.2932 18.465 45.2932V44.5432C15.473 44.5432 12.5684 44.0411 9.79692 43.0474L9.54378 43.7534ZM18.465 45.2932C33.1879 45.2932 45.1631 33.2682 45.1631 18.4896H44.4131C44.4131 32.8568 32.7709 44.5432 18.465 44.5432V45.2932ZM45.1631 18.4896C45.1631 15.3989 44.6477 12.3955 43.6278 9.52861L42.9212 9.77998C43.912 12.565 44.4131 15.4834 44.4131 18.4896H45.1631Z" fill="black"/>
<path fill-rule="evenodd" clip-rule="evenodd" d="M25.8622 5.05273L24.5492 8.25622C23.6208 10.4955 21.8867 12.3273 19.661 13.4254L17.0254 14.7111L19.6503 16.0075C21.8542 17.0896 23.5886 18.9376 24.5333 21.2198L25.8622 24.4341L27.1754 21.2142C28.0982 18.9698 29.822 17.127 32.0425 16.0291L34.6461 14.7325L32.0317 13.4468C29.8435 12.3646 28.1197 10.5166 27.1859 8.25622L25.8622 5.05273ZM25.8659 7.53418L26.3144 8.61924C27.3373 11.0961 29.2197 13.1126 31.6165 14.2977L32.5118 14.7379L31.6254 15.1794C29.2056 16.3759 27.3151 18.3908 26.3016 20.8558L25.8564 21.9481L25.4048 20.8566C24.3737 18.3652 22.4772 16.341 20.0669 15.1578L19.1739 14.7168L20.0775 14.2759C22.5082 13.0763 24.4057 11.0679 25.4222 8.61695L25.8659 7.53418Z" fill="black"/>
<path d="M25.8622 5.05273L26.2088 4.90952L25.8608 4.06736L25.5152 4.91052L25.8622 5.05273ZM24.5492 8.25622L24.8956 8.39985L24.8962 8.39844L24.5492 8.25622ZM19.661 13.4254L19.8255 13.7624L19.827 13.7617L19.661 13.4254ZM17.0254 14.7111L16.861 14.3741L16.1743 14.7091L16.8593 15.0474L17.0254 14.7111ZM19.6503 16.0075L19.4842 16.3437L19.485 16.3441L19.6503 16.0075ZM24.5333 21.2198L24.8799 21.0766L24.8798 21.0764L24.5333 21.2198ZM25.8622 24.4341L25.5156 24.5774L25.8646 25.4213L26.2094 24.5757L25.8622 24.4341ZM27.1754 21.2142L26.8285 21.0716L26.8281 21.0726L27.1754 21.2142ZM32.0425 16.0291L32.2087 16.3652L32.2096 16.3648L32.0425 16.0291ZM34.6461 14.7325L34.8132 15.0682L35.4915 14.7304L34.8116 14.396L34.6461 14.7325ZM32.0317 13.4468L31.8655 13.7829L31.8662 13.7833L32.0317 13.4468ZM27.1859 8.25622L27.5325 8.11305L27.5325 8.11301L27.1859 8.25622ZM26.3144 8.61924L26.661 8.4761L26.6609 8.47599L26.3144 8.61924ZM31.6165 14.2977L31.4503 14.6339L31.451 14.6342L31.6165 14.2977ZM32.5118 14.7379L32.679 15.0736L33.3573 14.7358L32.6773 14.4014L32.5118 14.7379ZM31.6254 15.1794L31.7916 15.5155L31.7926 15.5151L31.6254 15.1794ZM26.3016 20.8558L25.9547 20.7132L25.9543 20.7143L26.3016 20.8558ZM25.8564 21.9481L25.5099 22.0915L25.859 22.9353L26.2037 22.0897L25.8564 21.9481ZM25.4048 20.8566L25.7513 20.7133L25.7513 20.7132L25.4048 20.8566ZM20.0669 15.1578L19.9009 15.494L19.9017 15.4944L20.0669 15.1578ZM19.1739 14.7168L19.0095 14.3797L18.3229 14.7147L19.0078 15.053L19.1739 14.7168ZM20.0775 14.2759L20.2419 14.613L20.2434 14.6122L20.0775 14.2759ZM25.4222 8.61695L25.7686 8.76061L25.7692 8.75915L25.4222 8.61695ZM25.5152 4.91052L24.2022 8.11401L24.8962 8.39844L26.2092 5.19495L25.5152 4.91052ZM24.2028 8.1126C23.3102 10.2655 21.6416 12.03 19.4951 13.0891L19.827 13.7617C22.1318 12.6245 23.9314 10.7254 24.8956 8.39985L24.2028 8.1126ZM19.4966 13.0884L16.861 14.3741L17.1898 15.0482L19.8255 13.7624L19.4966 13.0884ZM16.8593 15.0474L19.4842 16.3437L19.8163 15.6713L17.1914 14.3749L16.8593 15.0474ZM19.485 16.3441C21.6069 17.3859 23.2769 19.1652 24.1868 21.3633L24.8798 21.0764C23.9003 18.7101 22.1016 16.7933 19.8156 15.6709L19.485 16.3441ZM24.1868 21.3631L25.5156 24.5774L26.2087 24.2908L24.8799 21.0766L24.1868 21.3631ZM26.2094 24.5757L27.5226 21.3558L26.8281 21.0726L25.515 24.2925L26.2094 24.5757ZM27.5222 21.3568C28.4098 19.198 30.0687 17.4233 32.2087 16.3652L31.8762 15.6929C29.5752 16.8307 27.7865 18.7417 26.8285 21.0716L27.5222 21.3568ZM32.2096 16.3648L34.8132 15.0682L34.4789 14.3968L31.8753 15.6934L32.2096 16.3648ZM34.8116 14.396L32.1972 13.1103L31.8662 13.7833L34.4806 15.069L34.8116 14.396ZM32.1979 13.1106C30.0916 12.069 28.4317 10.2897 27.5325 8.11305L26.8393 8.3994C27.8077 10.7435 29.5954 12.6603 31.8655 13.7829L32.1979 13.1106ZM27.5325 8.11301L26.2088 4.90952L25.5156 5.19594L26.8393 8.39944L27.5325 8.11301ZM25.5193 7.67742L25.9678 8.76248L26.6609 8.47599L26.2125 7.39094L25.5193 7.67742ZM25.9678 8.76238C27.0253 11.3231 28.9716 13.4083 31.4503 14.6339L31.7827 13.9616C29.4677 12.8169 27.6492 10.8691 26.661 8.4761L25.9678 8.76238ZM31.451 14.6342L32.3463 15.0745L32.6773 14.4014L31.782 13.9612L31.451 14.6342ZM32.3446 14.4023L31.4582 14.8437L31.7926 15.5151L32.679 15.0736L32.3446 14.4023ZM31.4592 14.8432C28.9589 16.0795 27.0035 18.1626 25.9547 20.7132L26.6484 20.9984C27.6268 18.619 29.4523 16.6722 31.7916 15.5155L31.4592 14.8432ZM25.9543 20.7143L25.5091 21.8066L26.2037 22.0897L26.6488 20.9973L25.9543 20.7143ZM26.2029 21.8048L25.7513 20.7133L25.0583 21L25.5099 22.0915L26.2029 21.8048ZM25.7513 20.7132C24.6854 18.1379 22.7247 16.0448 20.2322 14.8212L19.9017 15.4944C22.2297 16.6373 24.0619 18.5926 25.0583 21L25.7513 20.7132ZM20.233 14.8216L19.3399 14.3805L19.0078 15.053L19.9009 15.494L20.233 14.8216ZM19.3383 15.0538L20.2419 14.613L19.913 13.9389L19.0095 14.3797L19.3383 15.0538ZM20.2434 14.6122C22.7537 13.3734 24.7164 11.2975 25.7686 8.76061L25.0758 8.47329C24.095 10.8382 22.2628 12.7793 19.9115 13.9397L20.2434 14.6122ZM25.7692 8.75915L26.2129 7.67638L25.5189 7.39198L25.0752 8.47475L25.7692 8.75915Z" fill="black"/>
<path fill-rule="evenodd" clip-rule="evenodd" d="M7.00738 1.2041L6.13544 3.33748C5.5292 4.8258 4.38144 6.04203 2.91195 6.77467L1.17676 7.62727L2.91195 8.47988C4.36283 9.20774 5.51101 10.429 6.12614 11.9357L7.00738 14.0602L7.88883 11.9357C8.50396 10.4431 9.65172 9.23078 11.1301 8.50291L12.874 7.64574L11.1301 6.78837C9.67012 6.07461 8.51781 4.84427 7.88883 3.33333L7.00738 1.2041ZM7.01274 3.68652L7.01791 3.69877C7.73684 5.42577 9.05043 6.82547 10.7151 7.63947L10.7283 7.64569L10.7147 7.65254C9.03038 8.48169 7.7172 9.87434 7.01771 11.5719L7.00737 11.5959L6.99951 11.5771C6.3025 9.86998 5.0009 8.46903 3.32692 7.62888L3.32361 7.62722L3.33188 7.62328C5.01289 6.785 6.31904 5.39028 7.0084 3.69732L7.01274 3.68652Z" fill="black"/>
<path d="M7.00738 1.2041L7.35386 1.06067L7.00516 0.218338L6.66025 1.06223L7.00738 1.2041ZM6.13544 3.33748L5.78832 3.1956L5.78815 3.19602L6.13544 3.33748ZM2.91195 6.77467L3.07732 7.11124L3.07927 7.11027L2.91195 6.77467ZM1.17676 7.62727L1.01138 7.29071L0.326418 7.62727L1.01138 7.96384L1.17676 7.62727ZM2.91195 8.47988L3.0801 8.14468L3.07732 8.14331L2.91195 8.47988ZM6.12614 11.9357L5.77895 12.0775L5.77976 12.0794L6.12614 11.9357ZM7.00738 14.0602L6.661 14.2039L7.00734 15.0388L7.35375 14.2039L7.00738 14.0602ZM7.88883 11.9357L8.2352 12.0795L8.23554 12.0786L7.88883 11.9357ZM11.1301 8.50291L10.9647 8.16637L10.9645 8.16648L11.1301 8.50291ZM12.874 7.64574L13.0394 7.98229L13.724 7.64578L13.0394 7.30922L12.874 7.64574ZM11.1301 6.78837L11.2956 6.45184L11.2948 6.45147L11.1301 6.78837ZM7.88883 3.33333L7.54234 3.47676L7.54262 3.47745L7.88883 3.33333ZM7.01791 3.69877L7.36412 3.55465L7.36339 3.55293L7.01791 3.69877ZM10.7151 7.63947L10.5504 7.97639L10.5555 7.97878L10.7151 7.63947ZM10.7283 7.64569L10.8966 7.98085L11.586 7.63482L10.888 7.30638L10.7283 7.64569ZM10.7147 7.65254L10.8803 7.989L10.8829 7.9877L10.7147 7.65254ZM7.01771 11.5719L7.36232 11.7198L7.36442 11.7147L7.01771 11.5719ZM7.00737 11.5959L6.66113 11.74L7.00189 12.5591L7.35194 11.7439L7.00737 11.5959ZM6.99951 11.5771L6.65233 11.7188L6.65328 11.7211L6.99951 11.5771ZM3.32692 7.62888L3.49513 7.29373L3.49513 7.29372L3.32692 7.62888ZM3.32361 7.62722L3.16222 7.28873L2.47039 7.61859L3.1554 7.96238L3.32361 7.62722ZM3.33188 7.62328L3.4933 7.96182L3.49923 7.95887L3.33188 7.62328ZM7.0084 3.69732L7.35572 3.83874L7.3563 3.83728L7.0084 3.69732ZM6.66025 1.06223L5.78832 3.1956L6.48257 3.47935L7.3545 1.34598L6.66025 1.06223ZM5.78815 3.19602C5.21762 4.59666 4.1357 5.74552 2.74463 6.43907L3.07927 7.11027C4.62718 6.33853 5.84078 5.05494 6.48274 3.47894L5.78815 3.19602ZM2.74657 6.4381L1.01138 7.29071L1.34213 7.96384L3.07732 7.11123L2.74657 6.4381ZM1.01138 7.96384L2.74657 8.81644L3.07732 8.14331L1.34213 7.29071L1.01138 7.96384ZM2.74379 8.81506C4.11543 9.50317 5.19891 10.6566 5.77895 12.0775L6.47332 11.794C5.82311 10.2013 4.61023 8.91231 3.0801 8.14469L2.74379 8.81506ZM5.77976 12.0794L6.661 14.2039L7.35376 13.9165L6.47252 11.7921L5.77976 12.0794ZM7.35375 14.2039L8.2352 12.0795L7.54246 11.792L6.66101 13.9165L7.35375 14.2039ZM8.23554 12.0786C8.81488 10.6728 9.89687 9.52807 11.2957 8.83935L10.9645 8.16648C9.40657 8.93349 8.19303 10.2133 7.54211 11.7929L8.23554 12.0786ZM11.2955 8.83946L13.0394 7.98229L12.7086 7.3092L10.9647 8.16637L11.2955 8.83946ZM13.0394 7.30922L11.2956 6.45184L10.9647 7.12489L12.7085 7.98227L13.0394 7.30922ZM11.2948 6.45147C9.91771 5.77824 8.82938 4.61695 8.23503 3.18921L7.54262 3.47745C8.20624 5.07159 9.42253 6.37098 10.9654 7.12526L11.2948 6.45147ZM8.23531 3.18989L7.35386 1.06067L6.66089 1.34754L7.54234 3.47676L8.23531 3.18989ZM6.66726 3.83236L6.67243 3.84461L7.36339 3.55293L7.35822 3.54068L6.66726 3.83236ZM6.67171 3.84289C7.42534 5.65324 8.80299 7.1219 10.5504 7.97635L10.8798 7.30259C9.29787 6.52903 8.04834 5.19829 7.36411 3.55465L6.67171 3.84289ZM10.5555 7.97878L10.5687 7.98501L10.888 7.30638L10.8748 7.30015L10.5555 7.97878ZM10.5601 7.31054L10.5465 7.31739L10.8829 7.9877L10.8966 7.98085L10.5601 7.31054ZM10.5491 7.3161C8.78479 8.18461 7.40609 9.64505 6.67099 11.429L7.36442 11.7147C8.02831 10.1036 9.27596 8.77877 10.8803 7.98899L10.5491 7.3161ZM6.67313 11.4239L6.66279 11.448L7.35194 11.7439L7.36228 11.7198L6.67313 11.4239ZM7.3536 11.4519L7.34575 11.433L6.65328 11.7211L6.66113 11.74L7.3536 11.4519ZM7.34669 11.4353C6.61489 9.64302 5.24902 8.17398 3.49513 7.29373L3.15871 7.96404C4.75278 8.76408 5.99011 10.0969 6.65234 11.7188L7.34669 11.4353ZM3.49513 7.29372L3.49182 7.29206L3.1554 7.96238L3.15871 7.96404L3.49513 7.29372ZM3.485 7.96571L3.49327 7.96177L3.17049 7.28479L3.16222 7.28873L3.485 7.96571ZM3.49923 7.95887C5.25936 7.08113 6.63093 5.61868 7.35571 3.83874L6.66109 3.55589C6.00715 5.16187 4.76643 6.48886 3.16453 7.28769L3.49923 7.95887ZM7.3563 3.83728L7.36064 3.82649L6.66484 3.54655L6.6605 3.55735L7.3563 3.83728Z" fill="black"/>
<path fill-rule="evenodd" clip-rule="evenodd" d="M12.8761 28.999C11.0992 28.999 9.64746 30.4512 9.64746 32.2349C9.64746 34.019 11.0992 35.471 12.8761 35.471C14.6535 35.471 16.1 34.019 16.1 32.2349C16.1 30.4512 14.6535 28.999 12.8761 28.999ZM12.8761 29.9463C14.1335 29.9463 15.1561 30.973 15.1561 32.2349C15.1561 33.4968 14.1335 34.5235 12.8761 34.5235C11.6163 34.5235 10.5911 33.4968 10.5911 32.2349C10.5911 30.973 11.6163 29.9463 12.8761 29.9463Z" fill="black"/>
<path d="M12.8761 28.624C10.8915 28.624 9.27246 30.2447 9.27246 32.2349H10.0225C10.0225 30.6578 11.3069 29.374 12.8761 29.374V28.624ZM9.27246 32.2349C9.27246 34.2255 10.8915 35.846 12.8761 35.846V35.096C11.3069 35.096 10.0225 33.8124 10.0225 32.2349H9.27246ZM12.8761 35.846C14.8619 35.846 16.475 34.2247 16.475 32.2349H15.725C15.725 33.8132 14.4451 35.096 12.8761 35.096V35.846ZM16.475 32.2349C16.475 30.2455 14.8619 28.624 12.8761 28.624V29.374C14.4451 29.374 15.725 30.657 15.725 32.2349H16.475ZM12.8761 30.3213C13.925 30.3213 14.7811 31.1788 14.7811 32.2349H15.5311C15.5311 30.7673 14.3419 29.5713 12.8761 29.5713V30.3213ZM14.7811 32.2349C14.7811 33.291 13.925 34.1485 12.8761 34.1485V34.8985C14.3419 34.8985 15.5311 33.7026 15.5311 32.2349H14.7811ZM12.8761 34.1485C11.8239 34.1485 10.9661 33.2902 10.9661 32.2349H10.2161C10.2161 33.7033 11.4086 34.8985 12.8761 34.8985V34.1485ZM10.9661 32.2349C10.9661 31.1796 11.8239 30.3213 12.8761 30.3213V29.5713C11.4086 29.5713 10.2161 30.7665 10.2161 32.2349H10.9661Z" fill="black"/>
</g>
</svg>
