<svg width="22" height="23" viewBox="0 0 22 23" fill="none" xmlns="http://www.w3.org/2000/svg">
<rect width="21.8204" height="23.0003" fill="black" fill-opacity="0"/>
<path fill-rule="evenodd" clip-rule="evenodd" d="M11.3295 0.0165499C16.4745 0.040964 18.7846 1.71772 19.3578 2.24311C21.2536 3.8896 22.3068 7.54096 21.5988 13.3085C20.976 18.4052 17.4189 19.3095 16.2265 19.6123C16.11 19.6415 16.016 19.665 15.9496 19.6865C15.6286 19.791 12.7868 20.5019 9.09539 20.1914C8.68792 20.664 8.14568 21.2851 7.75554 21.706C7.40349 22.0849 7.11834 22.4501 6.83049 22.6953C6.53411 22.9482 6.23479 23.0732 5.85637 22.956C5.23821 22.7656 5.27288 21.8271 5.27288 21.8271L5.2763 19.5107C-0.127758 17.9921 -0.0484118 12.3974 0.013844 9.40815C0.0724378 6.41889 0.652516 4.00971 2.29973 2.36323C5.25896 -0.349661 11.3295 0.0165499 11.3295 0.0165499ZM15.6144 17.999C16.6283 17.7626 19.4599 17.1064 19.9828 12.8935C20.5803 8.07514 19.7619 4.78608 18.1596 3.40913C17.6762 2.97065 15.5905 1.66303 11.2363 1.64155C11.2363 1.64155 6.08074 1.30366 3.57732 3.56831C2.18572 4.94135 1.71599 6.9853 1.66423 9.48042L1.65862 9.73432C1.60027 12.2861 1.49724 16.7841 5.91155 18.0087L5.90203 19.9218L5.8908 21.8574C5.8908 22.0751 5.92522 22.2236 6.04973 22.2548C6.13933 22.2792 6.2741 22.2304 6.38811 22.1162C7.11663 21.3818 9.45427 18.5654 9.45427 18.5654C10.9076 18.6611 12.2228 18.579 13.2426 18.455C14.423 18.3105 15.2077 18.1103 15.3522 18.0644C15.4142 18.0449 15.5033 18.0244 15.6144 17.999Z" fill="black"/>
<path d="M13.5642 9.43622C13.508 8.3122 12.9182 7.72472 11.7949 7.66699" stroke="black" stroke-linecap="round" stroke-linejoin="round"/>
<path d="M14.7423 10.0257C14.7655 8.88838 14.4633 7.93941 13.8322 7.17506C13.2012 6.41072 12.3277 5.98608 11.2051 5.89746" stroke="black" stroke-linecap="round" stroke-linejoin="round"/>
<path d="M16.5129 10.0254C16.4987 8.20054 15.9289 6.76796 14.8071 5.71741C13.6853 4.67026 12.2857 4.13816 10.6155 4.12793" stroke="black" stroke-linecap="round" stroke-linejoin="round"/>
<path d="M11.4576 13.2834C11.4576 13.2834 11.8555 13.3186 12.0662 13.0405L12.4808 12.4914C12.6815 12.2168 13.1664 12.0443 13.6412 12.3224C13.9054 12.4808 14.3803 12.7871 14.6745 13.0159C14.9889 13.2587 15.6343 13.8255 15.6343 13.8255C15.9419 14.0965 16.0121 14.4978 15.8048 14.9202C15.8048 14.9237 15.8015 14.9272 15.8015 14.9272C15.5874 15.325 15.2999 15.7017 14.9354 16.0501C14.932 16.0537 14.932 16.0537 14.9287 16.0572C14.6311 16.3177 14.3368 16.469 14.0492 16.5042C14.0158 16.5113 13.9723 16.5148 13.9221 16.5113C13.795 16.5113 13.6713 16.4937 13.5476 16.4514L13.5376 16.4373C13.0928 16.3071 12.3538 15.9762 11.1198 15.2617C10.3172 14.797 9.65178 14.3218 9.08999 13.8501C8.79237 13.6037 8.48806 13.3221 8.17706 12.9983C8.16703 12.9877 8.157 12.9771 8.14697 12.9666C8.13693 12.956 8.1269 12.9455 8.11687 12.9349C8.10684 12.9243 8.09681 12.9138 8.08677 12.9032C8.07674 12.8927 8.06671 12.8821 8.05668 12.8715C7.74903 12.5442 7.4815 12.2239 7.24742 11.9106C6.79932 11.3192 6.34788 10.6152 5.90646 9.77391C5.22762 8.47502 4.91328 7.69709 4.78955 7.22892L4.77618 7.21836C4.73605 7.08812 4.71599 6.95788 4.71933 6.82412C4.71599 6.77132 4.71933 6.72556 4.72602 6.69036C4.75946 6.38763 4.90325 6.07787 5.15071 5.76459C5.15405 5.76107 5.15405 5.76107 5.1574 5.75755C5.48846 5.37386 5.84293 5.07114 6.22415 4.84586C6.22749 4.84586 6.23083 4.84234 6.23083 4.84234C6.63212 4.62409 7.01334 4.69802 7.27083 5.02186C7.27417 5.02538 7.80922 5.70123 8.03996 6.03211C8.25732 6.34539 8.5516 6.84172 8.69873 7.1198C8.96291 7.61965 8.79905 8.13005 8.53822 8.34125L8.01655 8.77774C7.75237 9.00302 7.78581 9.41839 7.78581 9.41839C7.78581 9.41839 8.56163 12.5055 11.4576 13.2834Z" fill="black"/>
</svg>
