<svg width="53" height="53" viewBox="0 0 53 53" fill="none" xmlns="http://www.w3.org/2000/svg">
<rect width="51" height="51" fill="black" fill-opacity="0" transform="translate(1 1)"/>
<rect width="34" height="34" fill="black" fill-opacity="0" transform="translate(10 9)"/>
<path d="M26.0811 16.3516C22.7761 16.3516 20.1082 18.9044 20.1082 22.0668C20.1082 22.4859 20.4665 22.8288 20.9046 22.8288C21.3426 22.8288 21.7009 22.4859 21.7009 22.0668C21.7009 19.7807 23.6521 17.8756 26.0811 17.8756C28.5101 17.8756 30.4613 19.7426 30.4613 22.0668C30.4613 24.391 28.5101 26.258 26.0811 26.258C25.6431 26.258 25.2847 26.6009 25.2847 27.02V31.2112C25.2847 31.6303 25.6431 31.9732 26.0811 31.9732C26.5191 31.9732 26.8775 31.6303 26.8775 31.2112V27.7058C29.7844 27.3248 32.0541 24.9625 32.0541 22.0668C32.0541 18.9044 29.3862 16.3516 26.0811 16.3516Z" fill="black"/>
<path d="M26.5405 33.8105C26.0351 33.8105 25.6216 34.2044 25.6216 34.6857V35.6921C25.6216 36.1735 26.0351 36.5673 26.5405 36.5673C27.0459 36.5673 27.4594 36.1735 27.4594 35.6921V34.6857C27.4594 34.2044 27.0459 33.8105 26.5405 33.8105Z" fill="black"/>
<path fill-rule="evenodd" clip-rule="evenodd" d="M26.5 52C40.5833 52 52 40.5833 52 26.5C52 12.4167 40.5833 1 26.5 1C12.4167 1 1 12.4167 1 26.5C1 40.5833 12.4167 52 26.5 52Z" stroke="black"/>
</svg>
