<svg width="17" height="21" viewBox="0 0 17 21" fill="none" xmlns="http://www.w3.org/2000/svg">
<g opacity="0.4">
<rect width="16.8146" height="20.6555" fill="black" fill-opacity="0" transform="translate(0.0853271 0.169922)"/>
<rect width="16.8146" height="20.6555" fill="black" fill-opacity="0" transform="translate(0.0853271 0.169922)"/>
<path fill-rule="evenodd" clip-rule="evenodd" d="M1.26576 4.21484C2.78212 1.70703 5.53126 0.169922 8.50001 0.169922C11.2714 0.169922 13.8644 1.51367 15.4303 3.75977C16.9962 6.00684 17.3338 8.86816 16.3322 11.4072L16.2933 11.5146V11.543L16.2617 11.6201L16.2156 11.7295C14.4816 15.8887 9.12172 20.4873 8.89589 20.6807C8.85621 20.7148 8.81105 20.7422 8.76234 20.7617L8.69679 20.7881C8.57643 20.8379 8.44069 20.8379 8.32032 20.7881L8.25721 20.7617C8.21071 20.7441 8.16725 20.7188 8.12843 20.6875L8.09388 20.6572C7.61207 20.2363 3.04323 16.2471 1.10988 12.3926C-0.309802 9.83105 -0.250598 6.72363 1.26576 4.21484ZM15.3632 11.2646L15.436 11.0762C16.6891 7.91309 15.5647 4.31836 12.7201 2.39258C9.87538 0.467773 6.0569 0.716797 3.49623 2.99512C0.935437 5.27246 0.304456 8.98145 1.97206 11.9541C3.64283 15.2734 7.48732 18.8311 8.52186 19.748C9.60255 18.7764 13.8648 14.8271 15.3219 11.3643L15.3632 11.2646Z" fill="black"/>
<path fill-rule="evenodd" clip-rule="evenodd" d="M4.70422 8.43555C4.70471 6.37598 6.40405 4.70605 8.50012 4.70605C10.5963 4.70898 12.2946 6.37891 12.2959 8.43848C12.2946 10.498 10.5945 12.167 8.49841 12.166C6.40234 12.165 4.70374 10.4951 4.70422 8.43555ZM5.67566 8.44141C5.67615 9.97363 6.94055 11.2158 8.50012 11.2158C10.0598 11.2129 11.3231 9.9707 11.3245 8.43848C11.3231 6.90527 10.058 5.66406 8.49841 5.66504C6.93884 5.66602 5.67517 6.90918 5.67566 8.44141Z" fill="black"/>
</g>
</svg>
