<svg width="19" height="20" viewBox="0 0 19 20" fill="none" xmlns="http://www.w3.org/2000/svg">
<rect width="18" height="20" fill="black" fill-opacity="0" transform="translate(0.0136719)"/>
<rect width="17.5125" height="19.167" fill="black" fill-opacity="0" transform="translate(0.177246 0.478516)"/>
<path fill-rule="evenodd" clip-rule="evenodd" d="M8.93335 11.8613C12.7739 11.8613 16.1536 15.499 16.1536 19.6455H17.6897C17.6897 14.9512 14.2332 10.9229 9.97046 10.375C12.1978 9.90527 13.8491 7.87109 13.8491 5.48535C13.8491 2.70801 11.6218 0.478516 8.93335 0.478516C6.24512 0.478516 4.01758 2.70801 4.05615 5.48535C4.05615 7.87109 5.70752 9.90527 7.93506 10.375C3.63354 10.9229 0.177246 14.9512 0.177246 19.6455H1.71338C1.71338 15.499 5.09302 11.8613 8.93335 11.8613ZM12.3132 5.48535C12.3132 7.38574 10.8 8.92773 8.93359 8.92773C7.06714 8.92773 5.55396 7.38574 5.55396 5.48535C5.55396 3.58398 7.06714 2.04297 8.93359 2.04297C10.8 2.04297 12.3132 3.58398 12.3132 5.48535Z" fill="white"/>
</svg>
