<svg width="25" height="25" viewBox="0 0 25 25" fill="none" xmlns="http://www.w3.org/2000/svg">
<path fill-rule="evenodd" clip-rule="evenodd" d="M12.5 25C19.4036 25 25 19.4036 25 12.5C25 5.59644 19.4036 0 12.5 0C5.59644 0 0 5.59644 0 12.5C0 19.4036 5.59644 25 12.5 25Z" fill="#FF8A9F"/>
<path d="M14.301 13.9408V6.4608H11.479V13.9408H14.301ZM12.907 18.1228C13.349 18.1228 13.791 17.9528 14.148 17.5958C14.454 17.2898 14.658 16.9158 14.658 16.3548C14.658 15.7938 14.454 15.4198 14.165 15.1308C13.791 14.7568 13.332 14.5868 12.907 14.5868C12.533 14.5868 12.074 14.7058 11.666 15.1138C11.445 15.3348 11.139 15.7428 11.139 16.3548C11.139 16.9668 11.445 17.3748 11.666 17.5958C12.074 18.0038 12.533 18.1228 12.907 18.1228Z" fill="white"/>
</svg>
