<svg width="24" height="23" viewBox="0 0 24 23" fill="none" xmlns="http://www.w3.org/2000/svg">
<rect width="22.4707" height="22.752" fill="black" fill-opacity="0" transform="translate(0.563232)"/>
<path fill-rule="evenodd" clip-rule="evenodd" d="M6.49878 21.1875C8.13232 22.0889 9.9729 22.5586 11.843 22.5586H11.8503C18.0149 22.5586 23.0339 17.5 23.0339 11.2871C23.0339 8.27734 21.8735 5.43848 19.7595 3.30762C17.6455 1.17676 14.8367 0 11.843 0C5.67822 0 0.659424 5.05859 0.659424 11.2715C0.659424 13.2607 1.17676 15.1982 2.15234 16.9111L0.563232 22.752L6.49878 21.1875ZM11.8503 1.90723C14.334 1.90723 16.6697 2.88281 18.4216 4.65625C20.1733 6.42969 21.1416 8.7832 21.1416 11.2871C21.1416 16.457 16.9653 20.6592 11.843 20.6592H11.8354C10.165 20.6592 8.53149 20.2041 7.10498 19.3555L6.76489 19.1543L3.24634 20.085L4.18506 16.6279L3.96338 16.2705C3.03198 14.7803 2.54419 13.0527 2.54419 11.2871C2.55151 6.10938 6.72046 1.90723 11.8503 1.90723ZM13.646 16.5225C13.2439 16.3896 12.7285 16.2197 12.0796 15.9355C9.27075 14.7217 7.44482 11.875 7.31934 11.6738C7.17871 11.4883 6.18091 10.1475 6.18091 8.76172C6.18091 7.37598 6.89795 6.69727 7.15649 6.41504C7.41528 6.13184 7.71826 6.06445 7.90308 6.06445H8.11914C8.22925 6.06543 8.33643 6.06738 8.4353 6.07227C8.60547 6.0791 8.83447 6.00488 9.06372 6.55566C9.16357 6.79492 9.32129 7.17969 9.4751 7.55566C9.68604 8.07031 9.89014 8.56738 9.92847 8.64941C9.95508 8.70605 9.97949 8.7666 9.99292 8.83008C10.0129 8.92578 10.0083 9.0293 9.95068 9.1416L9.89697 9.24805C9.83252 9.37793 9.78174 9.47949 9.66968 9.61035C9.5293 9.77441 9.37402 9.97559 9.24854 10.1025C9.10791 10.2441 8.96021 10.3926 9.1228 10.6758C9.2854 10.959 9.84717 11.8828 10.675 12.6279C11.5659 13.4326 12.3428 13.7715 12.7371 13.9443C12.814 13.9775 12.8762 14.0049 12.9221 14.0283C13.2031 14.1699 13.3657 14.1475 13.5283 13.9609C13.6909 13.7754 14.2305 13.1416 14.4153 12.8584C14.6001 12.5762 14.7849 12.6201 15.0435 12.7168C15.2949 12.8145 16.6697 13.4922 16.9507 13.6338C17.2241 13.7754 17.4163 13.8418 17.4829 13.9609C17.5566 14.0811 17.5566 14.6465 17.3201 15.3027C17.0911 15.9658 15.9749 16.5615 15.4353 16.6436C14.9548 16.7178 14.3486 16.748 13.676 16.5312L13.646 16.5225Z" fill="black"/>
</svg>
